<svg xmlns="http://www.w3.org/2000/svg" viewBox="0 0 719.89 184.25"><defs><style>.a{fill:#fff;}</style></defs><title>advance-logo-white-magic</title><path class="a" d="M156.18,677.31,142.67,638h-.3l-14,39.34-6.15,17.57-8.41,23.87H90.11l40.55-107.21h24.17l40.1,107.21H170.45l-8.11-23.87Z" transform="translate(-90.11 -608.98)"/><path class="a" d="M250.49,611.54a55.23,55.23,0,0,1,19.29,3.3,41.86,41.86,0,0,1,15.47,9.91,45.67,45.67,0,0,1,10.21,16.52q3.68,9.91,3.68,23.28a74.38,74.38,0,0,1-3,21.62,47.65,47.65,0,0,1-9.09,17.12,42.57,42.57,0,0,1-15.16,11.33q-9.09,4.14-21.4,4.13H204.24V611.54Zm-1.65,87.39a30.35,30.35,0,0,0,9.91-1.65,21.91,21.91,0,0,0,8.56-5.48,27.5,27.5,0,0,0,6-10,43.89,43.89,0,0,0,2.26-15A62.51,62.51,0,0,0,274,652.16,29.18,29.18,0,0,0,268.81,641a23,23,0,0,0-9.54-7.13,38.07,38.07,0,0,0-14.64-2.48H227.81v67.57Z" transform="translate(-90.11 -608.98)"/><path class="a" d="M338.78,718.75,304.09,611.54h24.18l23.88,75.38h.3l24.18-75.38H401L365.36,718.75Z" transform="translate(-90.11 -608.98)"/><path class="a" d="M458,677.31,444.5,638h-.3l-14,39.34-6.15,17.57-8.41,23.87H391.94l40.55-107.21h24.17l40.1,107.21H472.28l-8.11-23.87Z" transform="translate(-90.11 -608.98)"/><path class="a" d="M529.49,611.54l44.75,71.93h.3V611.54h22.07V718.75H573L528.44,647h-.3v71.77H506.07V611.54Z" transform="translate(-90.11 -608.98)"/><path class="a" d="M686.11,640.14a23.87,23.87,0,0,0-5.25-5.93,24.59,24.59,0,0,0-15.47-5.4,27.57,27.57,0,0,0-13.52,3.07,25.61,25.61,0,0,0-9,8.26,36.12,36.12,0,0,0-5,11.79,58.78,58.78,0,0,0-1.58,13.67,54.71,54.71,0,0,0,1.58,13.14,35.29,35.29,0,0,0,5,11.48,25.7,25.7,0,0,0,9,8.19,27.57,27.57,0,0,0,13.52,3.08q10.82,0,16.89-6.61t7.44-17.42h22.82a54.56,54.56,0,0,1-4.65,18.17A43.7,43.7,0,0,1,698,709.44a42.13,42.13,0,0,1-14.42,8.71,52.87,52.87,0,0,1-18.17,3,55,55,0,0,1-22.15-4.28,47.41,47.41,0,0,1-16.59-11.79,52.15,52.15,0,0,1-10.36-17.64,64.59,64.59,0,0,1-3.61-21.85,66.82,66.82,0,0,1,3.61-22.3,53.48,53.48,0,0,1,10.36-17.95,47.31,47.31,0,0,1,16.59-12,57.38,57.38,0,0,1,38.89-1.8A45.39,45.39,0,0,1,696.25,619a40.25,40.25,0,0,1,10.29,12.09,43.21,43.21,0,0,1,5.1,16.52H688.82A19.31,19.31,0,0,0,686.11,640.14Z" transform="translate(-90.11 -608.98)"/><path class="a" d="M808.8,611.54v19.82H752.19v23h51.95v18.32H752.19v26.28H810v19.82H728.61V611.54Z" transform="translate(-90.11 -608.98)"/><path class="a" d="M103.92,769.41a13,13,0,0,1,2.75.27,6,6,0,0,1,2.13.87,4.19,4.19,0,0,1,1.38,1.62,5.74,5.74,0,0,1,.48,2.48,4.63,4.63,0,0,1-.72,2.66,5.14,5.14,0,0,1-2.15,1.75,5.07,5.07,0,0,1,2.92,2,6.46,6.46,0,0,1,.34,6.15,5.42,5.42,0,0,1-1.67,1.91,7.32,7.32,0,0,1-2.4,1.1,11.13,11.13,0,0,1-2.77.35H94V769.41Zm-.6,8.56a3.34,3.34,0,0,0,2.05-.6,2.23,2.23,0,0,0,.8-1.92,2.41,2.41,0,0,0-.27-1.21,2,2,0,0,0-.71-.74,3,3,0,0,0-1-.37A6.78,6.78,0,0,0,103,773H98.62v5Zm.27,9a6.1,6.1,0,0,0,1.3-.13,3.38,3.38,0,0,0,1.1-.44,2.21,2.21,0,0,0,.75-.85,2.86,2.86,0,0,0,.28-1.36,2.73,2.73,0,0,0-.91-2.32,3.9,3.9,0,0,0-2.43-.7H98.62v5.8Z" transform="translate(-90.11 -608.98)"/><path class="a" d="M130.34,788.93a11.6,11.6,0,0,1-13.27,0q-2.35-2.07-2.35-6.39V769.41h4.64v13.14a9.48,9.48,0,0,0,.15,1.69,3.29,3.29,0,0,0,1.94,2.5,5.29,5.29,0,0,0,2.26.4c1.66,0,2.81-.37,3.44-1.11a5.3,5.3,0,0,0,.94-3.48V769.41h4.65v13.14Q132.74,786.84,130.34,788.93Z" transform="translate(-90.11 -608.98)"/><path class="a" d="M140.29,785.33a3.15,3.15,0,0,0,1,1.2,4.16,4.16,0,0,0,1.49.68,7,7,0,0,0,1.78.23,9.16,9.16,0,0,0,1.33-.11,4.56,4.56,0,0,0,1.33-.4,3,3,0,0,0,1-.81,2.1,2.1,0,0,0,.41-1.32,1.85,1.85,0,0,0-.55-1.39,4.42,4.42,0,0,0-1.43-.89,16,16,0,0,0-2-.62c-.76-.18-1.51-.37-2.28-.59a20,20,0,0,1-2.31-.73,7.52,7.52,0,0,1-2-1.11,5,5,0,0,1-2-4.17,5.56,5.56,0,0,1,.7-2.82,6.23,6.23,0,0,1,1.82-2,7.89,7.89,0,0,1,2.54-1.18,10.75,10.75,0,0,1,2.85-.39,13.31,13.31,0,0,1,3.18.37,8.07,8.07,0,0,1,2.7,1.2,6.05,6.05,0,0,1,1.88,2.11,6.44,6.44,0,0,1,.7,3.13H148a3.69,3.69,0,0,0-.4-1.57,2.67,2.67,0,0,0-.9-1,3.86,3.86,0,0,0-1.29-.5,7.78,7.78,0,0,0-1.58-.15,5.43,5.43,0,0,0-1.13.12,3.26,3.26,0,0,0-1,.41,2.64,2.64,0,0,0-.75.74,2,2,0,0,0-.3,1.13,1.85,1.85,0,0,0,.24,1,2.06,2.06,0,0,0,.93.71,11.92,11.92,0,0,0,1.92.66l3.22.82c.39.08.94.23,1.64.43a8,8,0,0,1,2.08,1,6.47,6.47,0,0,1,1.79,1.82,5.13,5.13,0,0,1,.76,2.92,6.51,6.51,0,0,1-.56,2.69,6,6,0,0,1-1.67,2.15,8,8,0,0,1-2.76,1.4,12.8,12.8,0,0,1-3.8.51,13.63,13.63,0,0,1-3.39-.43,8.69,8.69,0,0,1-2.9-1.35,6.68,6.68,0,0,1-2-2.34,7,7,0,0,1-.71-3.37h4.5A3.8,3.8,0,0,0,140.29,785.33Z" transform="translate(-90.11 -608.98)"/><path class="a" d="M160.59,769.41v21.13h-4.65V769.41Z" transform="translate(-90.11 -608.98)"/><path class="a" d="M169.29,769.41l8.82,14.18h.06V769.41h4.34v21.13h-4.64l-8.79-14.14H169v14.14h-4.35V769.41Z" transform="translate(-90.11 -608.98)"/><path class="a" d="M202.4,769.41v3.91H191.24v4.53h10.24v3.61H191.24v5.18h11.4v3.9h-16V769.41Z" transform="translate(-90.11 -608.98)"/><path class="a" d="M209.33,785.33a3.15,3.15,0,0,0,1,1.2,4.16,4.16,0,0,0,1.49.68,7,7,0,0,0,1.78.23,9.27,9.27,0,0,0,1.33-.11,4.56,4.56,0,0,0,1.33-.4,3,3,0,0,0,1-.81,2.1,2.1,0,0,0,.41-1.32,1.85,1.85,0,0,0-.55-1.39,4.42,4.42,0,0,0-1.43-.89,15.69,15.69,0,0,0-2-.62c-.75-.18-1.5-.37-2.27-.59a20,20,0,0,1-2.31-.73,7.52,7.52,0,0,1-2-1.11,5,5,0,0,1-2-4.17,5.46,5.46,0,0,1,.7-2.82,6.23,6.23,0,0,1,1.82-2,7.89,7.89,0,0,1,2.54-1.18,10.74,10.74,0,0,1,2.84-.39,13.33,13.33,0,0,1,3.19.37,8.07,8.07,0,0,1,2.7,1.2,6.05,6.05,0,0,1,1.88,2.11,6.44,6.44,0,0,1,.7,3.13H217a3.69,3.69,0,0,0-.4-1.57,2.67,2.67,0,0,0-.9-1,3.86,3.86,0,0,0-1.29-.5,7.78,7.78,0,0,0-1.58-.15,5.43,5.43,0,0,0-1.13.12,3.26,3.26,0,0,0-1,.41,2.64,2.64,0,0,0-.75.74,2,2,0,0,0-.3,1.13,1.85,1.85,0,0,0,.24,1,2.06,2.06,0,0,0,.93.71,11.92,11.92,0,0,0,1.92.66l3.21.82c.4.08,1,.23,1.65.43a8,8,0,0,1,2.08,1,6.47,6.47,0,0,1,1.79,1.82,5.13,5.13,0,0,1,.76,2.92,6.51,6.51,0,0,1-.56,2.69,5.91,5.91,0,0,1-1.68,2.15,7.92,7.92,0,0,1-2.75,1.4,12.8,12.8,0,0,1-3.8.51,13.63,13.63,0,0,1-3.39-.43,8.69,8.69,0,0,1-2.9-1.35,6.68,6.68,0,0,1-2-2.34,7,7,0,0,1-.71-3.37h4.5A3.8,3.8,0,0,0,209.33,785.33Z" transform="translate(-90.11 -608.98)"/><path class="a" d="M228.53,785.33a3.33,3.33,0,0,0,1,1.2,4.21,4.21,0,0,0,1.5.68,6.93,6.93,0,0,0,1.77.23,9,9,0,0,0,1.33-.11,4.47,4.47,0,0,0,1.33-.4,2.87,2.87,0,0,0,1-.81,2,2,0,0,0,.41-1.32,1.88,1.88,0,0,0-.54-1.39,4.59,4.59,0,0,0-1.44-.89,15.51,15.51,0,0,0-2-.62c-.75-.18-1.51-.37-2.28-.59a20,20,0,0,1-2.31-.73,7.52,7.52,0,0,1-2-1.11,5,5,0,0,1-2-4.17,5.56,5.56,0,0,1,.69-2.82,6.34,6.34,0,0,1,1.82-2,7.84,7.84,0,0,1,2.55-1.18,10.68,10.68,0,0,1,2.84-.39,13.31,13.31,0,0,1,3.18.37,8,8,0,0,1,2.71,1.2,6.15,6.15,0,0,1,1.88,2.11,6.55,6.55,0,0,1,.69,3.13h-4.5a3.55,3.55,0,0,0-.4-1.57,2.51,2.51,0,0,0-.9-1,3.72,3.72,0,0,0-1.28-.5,8,8,0,0,0-1.59-.15,5.33,5.33,0,0,0-1.12.12,3.08,3.08,0,0,0-1,.41,2.68,2.68,0,0,0-.76.74,2,2,0,0,0-.29,1.13,1.85,1.85,0,0,0,.23,1,2,2,0,0,0,.94.71,11.58,11.58,0,0,0,1.92.66l3.21.82c.39.08.94.23,1.64.43a8.09,8.09,0,0,1,2.09,1,6.47,6.47,0,0,1,1.79,1.82,5.21,5.21,0,0,1,.75,2.92,6.36,6.36,0,0,1-.56,2.69,5.78,5.78,0,0,1-1.67,2.15,8,8,0,0,1-2.75,1.4,12.92,12.92,0,0,1-3.81.51,13.56,13.56,0,0,1-3.38-.43,8.51,8.51,0,0,1-2.9-1.35,6.58,6.58,0,0,1-2-2.34,6.87,6.87,0,0,1-.71-3.37h4.5A3.8,3.8,0,0,0,228.53,785.33Z" transform="translate(-90.11 -608.98)"/><path class="a" d="M263,769.41l7.9,21.13H266l-1.59-4.7h-7.91l-1.65,4.7h-4.68l8-21.13Zm.26,13-2.66-7.75h-.06l-2.75,7.75Z" transform="translate(-90.11 -608.98)"/><path class="a" d="M276.23,785.33a3.33,3.33,0,0,0,1,1.2,4.29,4.29,0,0,0,1.5.68,6.93,6.93,0,0,0,1.77.23,9.29,9.29,0,0,0,1.34-.11,4.66,4.66,0,0,0,1.33-.4,2.84,2.84,0,0,0,1-.81,2,2,0,0,0,.42-1.32,1.85,1.85,0,0,0-.55-1.39,4.48,4.48,0,0,0-1.44-.89,15.51,15.51,0,0,0-2-.62c-.75-.18-1.51-.37-2.28-.59a19.85,19.85,0,0,1-2.3-.73,7.74,7.74,0,0,1-2-1.11,5,5,0,0,1-2-4.17,5.46,5.46,0,0,1,.7-2.82,6.23,6.23,0,0,1,1.82-2,7.79,7.79,0,0,1,2.54-1.18,10.74,10.74,0,0,1,2.84-.39,13.19,13.19,0,0,1,3.18.37,8,8,0,0,1,2.71,1.2,6.05,6.05,0,0,1,1.88,2.11,6.55,6.55,0,0,1,.69,3.13h-4.49a3.85,3.85,0,0,0-.4-1.57,2.67,2.67,0,0,0-.9-1,3.86,3.86,0,0,0-1.29-.5,7.85,7.85,0,0,0-1.58-.15,5.35,5.35,0,0,0-1.13.12,3.17,3.17,0,0,0-1,.41,2.68,2.68,0,0,0-.76.74,2.06,2.06,0,0,0-.29,1.13,1.85,1.85,0,0,0,.24,1,2,2,0,0,0,.93.71,11.58,11.58,0,0,0,1.92.66l3.21.82c.4.08.94.23,1.64.43a8.09,8.09,0,0,1,2.09,1,6.47,6.47,0,0,1,1.79,1.82,5.21,5.21,0,0,1,.76,2.92,6.36,6.36,0,0,1-.57,2.69,5.78,5.78,0,0,1-1.67,2.15,8,8,0,0,1-2.75,1.4,12.85,12.85,0,0,1-3.8.51,13.58,13.58,0,0,1-3.39-.43,8.6,8.6,0,0,1-2.9-1.35,6.58,6.58,0,0,1-2-2.34,7,7,0,0,1-.71-3.37h4.5A3.93,3.93,0,0,0,276.23,785.33Z" transform="translate(-90.11 -608.98)"/><path class="a" d="M295.44,785.33a3.24,3.24,0,0,0,1,1.2,4.16,4.16,0,0,0,1.49.68,7.06,7.06,0,0,0,1.78.23,9.16,9.16,0,0,0,1.33-.11,4.56,4.56,0,0,0,1.33-.4,2.87,2.87,0,0,0,1-.81,2.1,2.1,0,0,0,.41-1.32,1.88,1.88,0,0,0-.54-1.39,4.59,4.59,0,0,0-1.44-.89,15.51,15.51,0,0,0-2-.62c-.75-.18-1.51-.37-2.28-.59a20,20,0,0,1-2.31-.73,7.52,7.52,0,0,1-2-1.11,5.29,5.29,0,0,1-1.44-1.7,5.21,5.21,0,0,1-.54-2.47,5.56,5.56,0,0,1,.69-2.82,6.23,6.23,0,0,1,1.82-2,7.84,7.84,0,0,1,2.55-1.18,10.63,10.63,0,0,1,2.84-.39,13.31,13.31,0,0,1,3.18.37,8.12,8.12,0,0,1,2.71,1.2,6,6,0,0,1,1.87,2.11,6.44,6.44,0,0,1,.7,3.13h-4.5a3.69,3.69,0,0,0-.4-1.57,2.58,2.58,0,0,0-.9-1,3.78,3.78,0,0,0-1.29-.5,7.78,7.78,0,0,0-1.58-.15,5.43,5.43,0,0,0-1.13.12,3.26,3.26,0,0,0-1,.41,2.78,2.78,0,0,0-.75.74,2,2,0,0,0-.3,1.13,1.85,1.85,0,0,0,.24,1,2.06,2.06,0,0,0,.93.71,12.09,12.09,0,0,0,1.93.66l3.21.82c.39.08.94.23,1.64.43a8.25,8.25,0,0,1,2.09,1,6.61,6.61,0,0,1,1.79,1.82,5.21,5.21,0,0,1,.75,2.92,6.51,6.51,0,0,1-.56,2.69,5.89,5.89,0,0,1-1.67,2.15,8,8,0,0,1-2.76,1.4,12.8,12.8,0,0,1-3.8.51,13.69,13.69,0,0,1-3.39-.43,8.69,8.69,0,0,1-2.9-1.35,6.55,6.55,0,0,1-2-2.34,6.87,6.87,0,0,1-.71-3.37h4.49A3.8,3.8,0,0,0,295.44,785.33Z" transform="translate(-90.11 -608.98)"/><path class="a" d="M310.89,775.67a10.38,10.38,0,0,1,2-3.53,9.31,9.31,0,0,1,3.27-2.37,11.53,11.53,0,0,1,8.74,0,9.36,9.36,0,0,1,3.26,2.37,10.55,10.55,0,0,1,2,3.53,13.31,13.31,0,0,1,.71,4.4,12.8,12.8,0,0,1-.71,4.3,10.41,10.41,0,0,1-2,3.48,9.36,9.36,0,0,1-3.26,2.32,11.66,11.66,0,0,1-8.74,0,9.31,9.31,0,0,1-3.27-2.32,10.25,10.25,0,0,1-2-3.48,12.56,12.56,0,0,1-.71-4.3A13.06,13.06,0,0,1,310.89,775.67Zm4.24,7a7.2,7.2,0,0,0,1,2.26,5.11,5.11,0,0,0,1.78,1.61,6.13,6.13,0,0,0,5.33,0,5,5,0,0,0,1.77-1.61,6.77,6.77,0,0,0,1-2.26,10.67,10.67,0,0,0,.31-2.59,11.47,11.47,0,0,0-.31-2.7,6.9,6.9,0,0,0-1-2.32,5,5,0,0,0-1.77-1.63,6.22,6.22,0,0,0-5.33,0,5.16,5.16,0,0,0-1.78,1.63,7.33,7.33,0,0,0-1,2.32,12,12,0,0,0-.31,2.7A11.19,11.19,0,0,0,315.13,782.66Z" transform="translate(-90.11 -608.98)"/><path class="a" d="M347.67,775.05a4.81,4.81,0,0,0-1-1.17,4.9,4.9,0,0,0-1.4-.78,4.81,4.81,0,0,0-1.65-.28,5.47,5.47,0,0,0-2.66.6,5,5,0,0,0-1.77,1.63,7.13,7.13,0,0,0-1,2.32,12,12,0,0,0-.31,2.7,11.19,11.19,0,0,0,.31,2.59,7,7,0,0,0,1,2.26,5,5,0,0,0,1.77,1.61,5.37,5.37,0,0,0,2.66.61,4.28,4.28,0,0,0,3.33-1.3,6,6,0,0,0,1.47-3.44h4.5A10.89,10.89,0,0,1,352,786a8.71,8.71,0,0,1-1.95,2.72,8.27,8.27,0,0,1-2.84,1.71,10.32,10.32,0,0,1-3.59.6,10.87,10.87,0,0,1-4.36-.85,9.31,9.31,0,0,1-3.27-2.32,10.25,10.25,0,0,1-2-3.48,12.56,12.56,0,0,1-.71-4.3,13.06,13.06,0,0,1,.71-4.4,10.38,10.38,0,0,1,2-3.53,9.31,9.31,0,0,1,3.27-2.37,11.33,11.33,0,0,1,7.66-.36,9.08,9.08,0,0,1,2.79,1.47,7.92,7.92,0,0,1,2,2.38,8.43,8.43,0,0,1,1,3.26h-4.5A3.93,3.93,0,0,0,347.67,775.05Z" transform="translate(-90.11 -608.98)"/><path class="a" d="M360.69,769.41v21.13H356V769.41Z" transform="translate(-90.11 -608.98)"/><path class="a" d="M375.31,769.41l7.9,21.13h-4.82l-1.6-4.7h-7.9l-1.66,4.7h-4.68l8-21.13Zm.26,13-2.66-7.75h-.06l-2.75,7.75Z" transform="translate(-90.11 -608.98)"/><path class="a" d="M380.67,773.32v-3.91H398v3.91h-6.34v17.22H387V773.32Z" transform="translate(-90.11 -608.98)"/><path class="a" d="M405.05,769.41v21.13H400.4V769.41Z" transform="translate(-90.11 -608.98)"/><path class="a" d="M408.93,775.67a10.38,10.38,0,0,1,2-3.53,9.22,9.22,0,0,1,3.27-2.37,11.53,11.53,0,0,1,8.74,0,9.36,9.36,0,0,1,3.26,2.37,10.55,10.55,0,0,1,2,3.53,13.31,13.31,0,0,1,.71,4.4,12.8,12.8,0,0,1-.71,4.3,10.41,10.41,0,0,1-2,3.48,9.36,9.36,0,0,1-3.26,2.32,11.66,11.66,0,0,1-8.74,0,9.22,9.22,0,0,1-3.27-2.32,10.25,10.25,0,0,1-2-3.48,12.56,12.56,0,0,1-.72-4.3A13.06,13.06,0,0,1,408.93,775.67Zm4.24,7a7.2,7.2,0,0,0,1,2.26,5.11,5.11,0,0,0,1.78,1.61,6.13,6.13,0,0,0,5.33,0,5,5,0,0,0,1.77-1.61,6.77,6.77,0,0,0,1-2.26,10.67,10.67,0,0,0,.31-2.59,11.47,11.47,0,0,0-.31-2.7,6.9,6.9,0,0,0-1-2.32,5,5,0,0,0-1.77-1.63,6.22,6.22,0,0,0-5.33,0,5.16,5.16,0,0,0-1.78,1.63,7.33,7.33,0,0,0-1,2.32,12,12,0,0,0-.31,2.7A11.19,11.19,0,0,0,413.17,782.66Z" transform="translate(-90.11 -608.98)"/><path class="a" d="M436.77,769.41l8.82,14.18h.06V769.41H450v21.13h-4.65l-8.78-14.14h-.06v14.14h-4.35V769.41Z" transform="translate(-90.11 -608.98)"/><path class="a" d="M808.5,777.37,790.71,767.1a3,3,0,0,0-4.5,2.59v20.54a3,3,0,0,0,4.5,2.6l17.79-10.27A3,3,0,0,0,808.5,777.37Z" transform="translate(-90.11 -608.98)"/></svg>