<?xml version="1.0" encoding="UTF-8"?>
<svg width="171px" height="64px" viewBox="0 0 171 64" version="1.1" xmlns="http://www.w3.org/2000/svg" xmlns:xlink="http://www.w3.org/1999/xlink">
    <!-- Generator: Sketch 51.2 (57519) - http://www.bohemiancoding.com/sketch -->
    <title>Group 40</title>
    <desc>Created with Sketch.</desc>
    <defs></defs>
    <g id="Page-1" stroke="none" stroke-width="1" fill="none" fill-rule="evenodd">
        <g id="Desktop-v2" transform="translate(-250.000000, -543.000000)" fill="#FFFFFF">
            <g id="Group-41" transform="translate(250.000000, 484.000000)">
                <g id="Group-40" transform="translate(0.000000, 59.000000)">
                    <path d="M31.8851096,33.4321069 L28.1612828,22.7822681 L28.0784779,22.7822681 L24.2306831,33.4321069 L31.8851096,33.4321069 Z M31.5127269,15.627907 L42.56,44.6511628 L35.8157093,44.6511628 L33.5814132,38.1880442 L22.5341401,38.1880442 L20.2172785,44.6511628 L13.68,44.6511628 L24.8512411,15.627907 L31.5127269,15.627907 Z" id="Fill-1"></path>
                    <path d="M57.2548839,31.5709301 C57.0898546,30.7777815 56.8070837,30.0777661 56.4084817,29.4725176 C56.0091633,28.8670358 55.4930585,28.3763947 54.8601675,27.9994274 C54.2265599,27.622927 53.4286395,27.43456 52.4652122,27.43456 C51.5015459,27.43456 50.6897736,27.622927 50.0291786,27.9994274 C49.3685837,28.3763947 48.8381493,28.8740383 48.4395473,29.4925914 C48.0402289,30.1118448 47.7512485,30.8179291 47.5723672,31.6113111 C47.3930082,32.4049265 47.3039258,33.2323872 47.3039258,34.092993 C47.3039258,34.9001466 47.400173,35.7073001 47.5929063,36.5144536 C47.7854007,37.3213737 48.0949203,38.041463 48.5221814,38.6733209 C48.9484873,39.305879 49.48537,39.8170607 50.1323518,40.2068659 C50.778856,40.5971379 51.5569538,40.7920405 52.4652122,40.7920405 C53.4286395,40.7920405 54.2337247,40.603907 54.8807066,40.2269397 C55.5272108,39.8506726 56.0433155,39.34626 56.4290208,38.7137019 C56.8142485,38.081844 57.0898546,37.3617547 57.2548839,36.5548346 C57.4201521,35.7476811 57.5027862,34.9139181 57.5027862,34.052612 C57.5027862,33.1920062 57.4201521,32.3645454 57.2548839,31.5709301 Z M57.5027862,41.8816277 C56.8142485,43.011596 55.9129161,43.8255186 54.7980725,44.3229287 C53.6832289,44.8205722 52.4238951,45.069394 51.0200711,45.069394 C49.423275,45.069394 48.019451,44.7668865 46.808599,44.1614046 C45.5970306,43.5563896 44.599451,42.7359313 43.8151437,41.7000299 C43.0303588,40.6645952 42.4380683,39.4739387 42.0394663,38.1285272 C41.6401479,36.7835826 41.4407275,35.3844854 41.4407275,33.931469 C41.4407275,32.533072 41.6401479,31.1811249 42.0394663,29.875861 C42.4380683,28.5712973 43.0303588,27.4212553 43.8151437,26.4257348 C44.599451,25.4306812 45.5834175,24.6298299 46.767282,24.0245815 C47.95043,23.419333 49.3272666,23.1165921 50.89612,23.1165921 C52.1621409,23.1165921 53.3665446,23.3787186 54.509092,23.9034384 C55.6511619,24.4279248 56.5529719,25.2016998 57.2135669,26.2238297 L57.296201,26.2238297 L57.296201,15.7317676 L63.1593993,15.7317676 L63.1593993,44.5449076 L57.5851814,44.5449076 L57.5851814,41.8816277 L57.5027862,41.8816277 Z" id="Fill-2"></path>
                    <polygon id="Fill-4" points="70.7977018 44.5449076 63.4893624 23.6814595 69.6415412 23.6814595 74.1422325 37.9266222 74.2248666 37.9266222 78.7253191 23.6814595 84.5474392 23.6814595 77.3214951 44.5449076"></polygon>
                    <path d="M98.2140411,34.3352091 C97.9661388,34.5508858 97.6566193,34.7187121 97.2850047,34.8396217 C96.9133902,34.9607648 96.5140718,35.0613672 96.0875271,35.1421292 C95.6605047,35.2231247 95.2134209,35.290582 94.7455592,35.3440343 C94.2772198,35.3984203 93.8095969,35.4651774 93.3417352,35.5459394 C92.9010997,35.626468 92.4676291,35.7343064 92.0410844,35.8685207 C91.614062,36.0034353 91.2424475,36.1852666 90.9262408,36.4133143 C90.6095564,36.6422957 90.3547282,36.9317319 90.1624726,37.2809227 C89.9695006,37.6310471 89.8734922,38.0747715 89.8734922,38.612796 C89.8734922,39.1242111 89.9695006,39.5546307 90.1624726,39.9040549 C90.3547282,40.2539459 90.6164824,40.5296106 90.9470187,40.7312822 C91.2773162,40.9331873 91.662305,41.0744042 92.1031793,41.1551662 C92.5430983,41.2356948 92.9973469,41.2760759 93.4656863,41.2760759 C94.6216081,41.2760759 95.5160145,41.0884092 96.1493832,40.7112084 C96.7822743,40.334708 97.250136,39.8837477 97.5532073,39.3592613 C97.8558008,38.8345415 98.0416081,38.3037529 98.1106291,37.7652615 C98.1791723,37.2274704 98.2140411,36.7968173 98.2140411,36.4740026 L98.2140411,34.3352091 Z M84.6708888,30.0980033 C84.7535229,28.7528252 85.0971947,27.6361617 85.7030983,26.7484795 C86.3082855,25.860564 87.0792184,25.1481775 88.0151807,24.6096861 C88.9506654,24.071895 90.0036528,23.688392 91.1739042,23.459644 C92.3436779,23.2313629 93.5203777,23.1165221 94.7042422,23.1165221 C95.7777687,23.1165221 96.8649084,23.1909819 97.9661388,23.338501 C99.0668916,23.4867203 100.072114,23.7761565 100.980611,24.2061093 C101.888869,24.6367624 102.632337,25.2352417 103.210298,26.0017808 C103.788259,26.7685533 104.077478,27.784381 104.077478,29.048797 L104.077478,39.9040549 C104.077478,40.8461231 104.131931,41.7471099 104.242508,42.6077158 C104.352129,43.4692553 104.544862,44.1146513 104.820468,44.5448376 L98.874636,44.5448376 C98.764298,44.2220228 98.674738,43.8929059 98.6061947,43.5563196 C98.5371737,43.2199667 98.4886919,42.8770782 98.4617045,42.5271872 C97.5257422,43.4692553 96.4242729,44.1281895 95.1584908,44.5044565 C93.8919922,44.880957 92.5985061,45.069324 91.2773162,45.069324 C90.258481,45.069324 89.3089056,44.9484143 88.4281123,44.7063616 C87.5468413,44.4643089 86.7766249,44.0878085 86.1160299,43.5763934 C85.4554349,43.0654451 84.9393302,42.4200491 84.5674768,41.6392716 C84.1961011,40.8594278 84.010055,39.9313646 84.010055,38.8548487 C84.010055,37.6714281 84.2230885,36.695748 84.6501109,35.929209 C85.0766556,35.1624365 85.6269126,34.5508858 86.3018372,34.092923 C86.9760453,33.6358939 87.7469782,33.292772 88.6141584,33.064024 C89.4810997,32.8357429 90.3547282,32.654145 91.2359992,32.5192304 C92.1165536,32.385016 92.9837338,32.2771777 93.8373008,32.1964157 C94.6901514,32.1156537 95.4477101,31.994744 96.108305,31.8329865 C96.7689,31.6716959 97.2914531,31.4366457 97.6771584,31.1269023 C98.062386,30.8180925 98.2410285,30.3671322 98.2140411,29.7749551 C98.2140411,29.156402 98.1106291,28.6652941 97.9042827,28.3020983 C97.6979363,27.9389026 97.4223302,27.6564689 97.0786584,27.4545638 C96.7340313,27.2528921 96.3351905,27.1186778 95.8809419,27.050987 C95.4269321,26.98423 94.9378148,26.9501512 94.4152617,26.9501512 C93.2591011,26.9501512 92.3508427,27.1922039 91.6902478,27.6765427 C91.029414,28.1608815 90.6437087,28.968035 90.5340872,30.0980033 L84.6708888,30.0980033 Z" id="Fill-6"></path>
                    <path d="M112.128497,23.6815062 L112.128497,26.5870722 L112.252448,26.5870722 C112.995678,25.3763419 113.958866,24.4954288 115.142731,23.9438661 C116.325879,23.3927703 117.537447,23.1166388 118.776242,23.1166388 C120.345095,23.1166388 121.631655,23.325313 122.636877,23.741961 C123.641383,24.1595428 124.432855,24.7377149 125.010816,25.4771777 C125.589016,26.2175742 125.995021,27.1185611 126.229071,28.181072 C126.462644,29.2442832 126.580147,30.4207013 126.580147,31.7119602 L126.580147,44.5449543 L120.716948,44.5449543 L120.716948,32.7611664 C120.716948,31.0399547 120.441342,29.754998 119.891085,28.9074635 C119.339873,28.0599289 118.363071,27.6362784 116.959486,27.6362784 C115.36269,27.6362784 114.206529,28.10031 113.491004,29.0286065 C112.775002,29.9566697 112.417478,31.4839125 112.417478,33.6087009 L112.417478,44.5449543 L106.554279,44.5449543 L106.554279,23.6815062 L112.128497,23.6815062 Z" id="Fill-8"></path>
                    <path d="M139.17284,27.4345133 C138.236639,27.4345133 137.452332,27.6431875 136.819441,28.060069 C136.185833,28.4774173 135.669728,29.0152084 135.270887,29.6741426 C134.871569,30.3335436 134.589753,31.0601685 134.424485,31.8533171 C134.259456,32.6473993 134.176822,33.4342456 134.176822,34.2140894 C134.176822,34.9675572 134.259456,35.7343297 134.424485,36.5144069 C134.589753,37.294951 134.858195,38.0010353 135.22957,38.6328932 C135.601185,39.2654513 136.10296,39.7831686 136.736806,40.186512 C137.369697,40.5900887 138.14063,40.7919938 139.048889,40.7919938 C140.452713,40.7919938 141.532927,40.4084909 142.290246,39.6417184 C143.047089,38.8749459 143.521876,37.8460469 143.714848,36.554788 L149.371461,36.554788 C148.985756,39.3259061 147.885003,41.4376233 146.068248,42.8901728 C144.251731,44.3431892 141.92508,45.0693473 139.090206,45.0693473 C137.493649,45.0693473 136.02773,44.8072208 134.692927,44.282501 C133.357407,43.7580146 132.222024,43.0250874 131.28654,42.0832527 C130.350339,41.1418848 129.620723,40.0189191 129.097931,38.7136552 C128.5749,37.4090916 128.313385,35.9763824 128.313385,34.4159945 C128.313385,32.8016875 128.554122,31.3022212 129.036313,29.9161953 C129.517311,28.5311031 130.226387,27.3336775 131.162589,26.3248523 C132.098073,25.3157937 133.240621,24.5289474 134.589753,23.96408 C135.937931,23.3989791 137.480035,23.1165454 139.214157,23.1165454 C140.479939,23.1165454 141.697956,23.2778361 142.868446,23.6008842 C144.037981,23.9234655 145.083804,24.4148068 146.006392,25.073741 C146.928502,25.733142 147.678657,26.5536003 148.256618,27.5353492 C148.834818,28.5177983 149.165115,29.6811451 149.247749,31.0260898 L143.508263,31.0260898 C143.122558,28.6319389 141.677178,27.4345133 139.17284,27.4345133" id="Fill-10"></path>
                    <path d="M163.513114,28.5644349 C162.811202,27.811434 161.744123,27.4344667 160.313312,27.4344667 C159.377111,27.4344667 158.59973,27.5896885 157.980213,27.8984982 C157.360696,28.2082417 156.865369,28.5915112 156.493755,29.0487737 C156.12214,29.506503 155.860147,29.9908418 155.709209,30.5013233 C155.557554,31.0129718 155.467755,31.4700009 155.440767,31.8733442 L164.979033,31.8733442 C164.703427,30.4207946 164.215026,29.3179027 163.513114,28.5644349 M156.886147,39.5408358 C157.766463,40.3750656 159.032961,40.7919471 160.684688,40.7919471 C161.867836,40.7919471 162.886671,40.5032112 163.740238,39.9241054 C164.593089,39.3461667 165.116358,38.7339157 165.30933,38.0880529 L170.470616,38.0880529 C169.644753,40.590042 168.378255,42.3796447 166.671837,43.455227 C164.964703,44.5317429 162.900284,45.0693006 160.478341,45.0693006 C158.798911,45.0693006 157.284749,44.8071741 155.936333,44.2824543 C154.587439,43.7579679 153.444892,43.0115026 152.509407,42.0430584 C151.573206,41.0743808 150.850516,39.9180366 150.341576,38.5723917 C149.83192,37.227447 149.577569,35.7475877 149.577569,34.1335141 C149.577569,32.5733596 149.838846,31.1208101 150.362354,29.7749318 C150.884668,28.4302205 151.627897,27.2666404 152.591802,26.2844246 C153.55523,25.3026757 154.703987,24.5289007 156.039506,23.9640333 C157.374548,23.3991659 158.853603,23.1164988 160.478341,23.1164988 C162.294858,23.1164988 163.877563,23.4596207 165.226696,24.1456312 C166.574873,24.8316416 167.683508,25.753636 168.550449,26.9099803 C169.417629,28.0670248 170.043355,29.38536 170.429299,30.8647524 C170.814288,32.3446117 170.951614,33.891228 170.841992,35.5055351 L155.440767,35.5055351 C155.523401,37.3616614 156.004876,38.7075397 156.886147,39.5408358" id="Fill-12"></path>
                    <path d="M16.1836693,61.9913979 C16.327443,61.9913979 16.4650073,61.9773929 16.5961232,61.9500832 C16.7274779,61.9225401 16.8430701,61.8767905 16.9431385,61.812601 C17.0429682,61.7484116 17.1227363,61.6615807 17.1822042,61.5514082 C17.2414332,61.4417026 17.2712866,61.301186 17.2712866,61.1300918 C17.2712866,60.7939724 17.1740841,60.5542538 16.9806344,60.4107028 C16.786707,60.2671518 16.5306846,60.195493 16.2118508,60.195493 L14.6086064,60.195493 L14.6086064,61.9913979 L16.1836693,61.9913979 Z M16.0991246,59.2146778 C16.3618341,59.2146778 16.5772559,59.1539895 16.7461064,59.031446 C16.914957,58.9096027 16.9992628,58.710732 16.9992628,58.4362344 C16.9992628,58.2833468 16.9710813,58.1580022 16.914957,58.0602008 C16.8585939,57.9626328 16.7836022,57.8863057 16.6899821,57.8312194 C16.5961232,57.7761332 16.4884123,57.7380863 16.3666106,57.7168454 C16.2445701,57.6953711 16.1179919,57.684634 15.9866372,57.684634 L14.6086064,57.684634 L14.6086064,59.2146778 L16.0991246,59.2146778 Z M16.2868425,56.5668034 C16.6056763,56.5668034 16.8960897,56.5943465 17.1587992,56.6491993 C17.4212698,56.7042856 17.6462447,56.7943843 17.8337237,56.9194954 C18.0212028,57.04484 18.1666483,57.2112658 18.2695827,57.4187728 C18.3729947,57.6267468 18.4243425,57.8830378 18.4243425,58.1885798 C18.4243425,58.518397 18.3479179,58.7933614 18.1945911,59.0132395 C18.0415031,59.2333511 17.8150953,59.4135484 17.5148899,59.554065 C17.9275827,59.6700729 18.2351916,59.8731451 18.4384332,60.1632816 C18.6416749,60.453418 18.7431763,60.803309 18.7431763,61.2124878 C18.7431763,61.542305 18.6774989,61.8280065 18.546383,62.0691255 C18.4150282,62.310478 18.2382964,62.5077148 18.0166651,62.6601356 C17.7945561,62.8130233 17.5416385,62.9259967 17.2571958,62.9992895 C16.9727531,63.0725822 16.6806679,63.1092285 16.3804626,63.1092285 L13.1364779,63.1092285 L13.1364779,56.5668034 L16.2868425,56.5668034 Z" id="Fill-14"></path>
                    <path d="M24.6591075,62.609811 C24.1527947,63.0406975 23.4527933,63.2559073 22.5591034,63.2559073 C21.6527556,63.2559073 20.9510824,63.042098 20.4543226,62.6144794 C19.957324,62.1868607 19.7087053,61.5269929 19.7087053,60.6351092 L19.7087053,56.5666633 L21.1808338,56.5666633 L21.1808338,60.6351092 C21.1808338,60.8125056 21.1963575,60.9866342 21.2276439,61.1574949 C21.2589302,61.328589 21.3246075,61.4796094 21.424676,61.6110227 C21.5245056,61.7424361 21.6637416,61.8493408 21.8419064,61.9317367 C22.0198324,62.0141327 22.258898,62.0554474 22.5591034,62.0554474 C23.0840447,62.0554474 23.446345,61.9410734 23.6464818,61.7118586 C23.8466187,61.4828772 23.9466872,61.1241164 23.9466872,60.6351092 L23.9466872,56.5666633 L25.4185768,56.5666633 L25.4185768,60.6351092 C25.4185768,61.5209241 25.1654204,62.179158 24.6591075,62.609811" id="Fill-16"></path>
                    <path d="M27.8092094,61.4965321 C27.8904105,61.6491863 27.9983602,61.7731304 28.1325809,61.8676639 C28.2670404,61.962431 28.4249049,62.0326893 28.6061744,62.0784389 C28.787444,62.1241884 28.974923,62.1470632 29.1686116,62.1470632 C29.2999663,62.1470632 29.4406353,62.1365595 29.5906186,62.1148518 C29.7406018,62.0938443 29.8812708,62.0525296 30.0126256,61.9913746 C30.1437415,61.9302195 30.2528853,61.8461897 30.3407736,61.739285 C30.4281842,61.6326137 30.4718895,61.4965321 30.4718895,61.3315067 C30.4718895,61.1543438 30.4140934,61.0107928 30.2985013,60.9008537 C30.1826703,60.791148 30.0312541,60.6994154 29.843775,60.6261227 C29.6562959,60.5525966 29.4437401,60.4886405 29.2061074,60.4335543 C28.9684747,60.3787015 28.7279761,60.3175464 28.4843728,60.2503225 C28.2340823,60.1891674 27.9904789,60.1144742 27.7530851,60.025776 C27.5154524,59.9373113 27.3028965,59.8227039 27.1154175,59.6824207 C26.9279384,59.5416706 26.7762834,59.3661416 26.6606912,59.1553667 C26.545099,58.9445918 26.4873029,58.6897012 26.4873029,58.3902281 C26.4873029,58.0543421 26.5606228,57.7625717 26.7075013,57.5151504 C26.8543797,57.2677292 27.0466353,57.0616226 27.284268,56.8965973 C27.5216619,56.7318054 27.790342,56.6094952 28.0905473,56.5301337 C28.3905138,56.4507722 28.6904803,56.4110914 28.9904468,56.4110914 C29.3405669,56.4110914 29.6763574,56.4491382 29.9985348,56.5254654 C30.3202345,56.6017925 30.6061102,56.7257365 30.8564007,56.8965973 C31.1062135,57.0676914 31.3046786,57.2861691 31.4515571,57.5517968 C31.5984356,57.8174245 31.6719943,58.1397724 31.6719943,58.5183736 L30.2469147,58.5183736 C30.2342568,58.3230042 30.1922233,58.1612467 30.1203365,58.0328678 C30.0482108,57.9044888 29.9531577,57.8038864 29.8342219,57.7303603 C29.715525,57.657301 29.5796325,57.6052491 29.4265446,57.5746716 C29.2732177,57.5440941 29.106039,57.528922 28.9250082,57.528922 C28.8060725,57.528922 28.6873756,57.5412931 28.5686786,57.5655684 C28.4499817,57.5900771 28.342032,57.6327922 28.2453071,57.6937139 C28.1481046,57.7551024 28.0685753,57.8311961 28.0062415,57.9226953 C27.94343,58.0144279 27.9123825,58.1306692 27.9123825,58.2711858 C27.9123825,58.3993313 27.9372205,58.503435 27.9873742,58.5827965 C28.037289,58.6619247 28.1356856,58.7354508 28.2825641,58.8024413 C28.4294426,58.8698986 28.6326842,58.936889 28.8920501,59.0041129 C29.1514161,59.0713368 29.4905501,59.1570006 29.9092135,59.2606374 C30.0343588,59.2851461 30.2077471,59.3294952 30.4296172,59.3934513 C30.6514873,59.4578742 30.8719244,59.5601105 31.0906898,59.7006271 C31.3094552,59.8411437 31.498606,60.0290439 31.6579035,60.2640941 C31.817201,60.4993777 31.8969691,60.8002513 31.8969691,61.1667148 C31.8969691,61.4659545 31.8375013,61.7439533 31.7188043,62.0004778 C31.6001074,62.2570023 31.4236144,62.4785144 31.1890865,62.6647806 C30.9547973,62.8512802 30.6641451,62.9962317 30.3171297,63.1001019 C29.9703532,63.2037388 29.5686465,63.2557906 29.1124873,63.2557906 C28.7434999,63.2557906 28.3859761,63.2114415 28.0389608,63.1229767 C27.6919454,63.034512 27.3857694,62.8953959 27.120194,62.7060953 C26.8543797,62.5167946 26.6434957,62.2754422 26.4873029,61.9822713 C26.3311102,61.6888671 26.2561186,61.3408434 26.2623281,60.9375 L27.6874077,60.9375 C27.6874077,61.1576116 27.7280082,61.3438778 27.8092094,61.4965321" id="Fill-19"></path>
                    <polygon id="Fill-21" points="32.7687109 63.1092285 34.2408394 63.1092285 34.2408394 56.5668034 32.7687109 56.5668034"></polygon>
                    <polygon id="Fill-23" points="36.997283 56.5667567 39.7910791 60.9559166 39.8099464 60.9559166 39.8099464 56.5667567 41.1879771 56.5667567 41.1879771 63.1091818 39.7160874 63.1091818 36.9316056 58.7293586 36.9127383 58.7293586 36.9127383 63.1091818 35.5344687 63.1091818 35.5344687 56.5667567"></polygon>
                    <polygon id="Fill-24" points="47.4883957 56.5667567 47.4883957 57.7763199 43.9537588 57.7763199 43.9537588 59.1782181 47.1977434 59.1782181 47.1977434 60.2962822 43.9537588 60.2962822 43.9537588 61.8998521 47.5633873 61.8998521 47.5633873 63.1091818 42.4818691 63.1091818 42.4818691 56.5667567"></polygon>
                    <path d="M49.6822827,61.4965321 C49.7634838,61.6491863 49.8714335,61.7731304 50.0056542,61.8676639 C50.1401137,61.962431 50.2979782,62.0326893 50.4792478,62.0784389 C50.6605173,62.1241884 50.8479964,62.1470632 51.0416849,62.1470632 C51.1730397,62.1470632 51.3137087,62.1365595 51.4636919,62.1148518 C51.6136751,62.0938443 51.7543441,62.0525296 51.8856989,61.9913746 C52.0168148,61.9302195 52.1259587,61.8461897 52.2138469,61.739285 C52.3012575,61.6326137 52.3449628,61.4965321 52.3449628,61.3315067 C52.3449628,61.1543438 52.2871668,61.0107928 52.1715746,60.9008537 C52.0557436,60.791148 51.9043274,60.6994154 51.7168483,60.6261227 C51.5293693,60.5525966 51.3168134,60.4886405 51.0791807,60.4335543 C50.841548,60.3787015 50.6010494,60.3175464 50.3574461,60.2503225 C50.1071556,60.1891674 49.8635522,60.1144742 49.6261584,60.025776 C49.3885257,59.9373113 49.1759698,59.8227039 48.9884908,59.6824207 C48.8010117,59.5416706 48.6493567,59.3661416 48.5337645,59.1553667 C48.4181723,58.9445918 48.3603763,58.6897012 48.3603763,58.3902281 C48.3603763,58.0543421 48.4336961,57.7625717 48.5805746,57.5151504 C48.7274531,57.2677292 48.9197087,57.0616226 49.1573413,56.8965973 C49.3947352,56.7318054 49.6634154,56.6094952 49.9636207,56.5301337 C50.2635872,56.4507722 50.5635536,56.4110914 50.8635201,56.4110914 C51.2136402,56.4110914 51.5494307,56.4491382 51.8716081,56.5254654 C52.1933078,56.6017925 52.4791835,56.7257365 52.729474,56.8965973 C52.9792869,57.0676914 53.177752,57.2861691 53.3246304,57.5517968 C53.4715089,57.8174245 53.5450676,58.1397724 53.5450676,58.5183736 L52.119988,58.5183736 C52.1073302,58.3230042 52.0652966,58.1612467 51.9934098,58.0328678 C51.9212841,57.9044888 51.826231,57.8038864 51.7072953,57.7303603 C51.5885983,57.657301 51.4527059,57.6052491 51.2996179,57.5746716 C51.1462911,57.5440941 50.9791123,57.528922 50.7980816,57.528922 C50.6791458,57.528922 50.5604489,57.5412931 50.441752,57.5655684 C50.323055,57.5900771 50.2151053,57.6327922 50.1183804,57.6937139 C50.0211779,57.7551024 49.9416486,57.8311961 49.8793148,57.9226953 C49.8165034,58.0144279 49.7854559,58.1306692 49.7854559,58.2711858 C49.7854559,58.3993313 49.8102939,58.503435 49.8604475,58.5827965 C49.9103623,58.6619247 50.0087589,58.7354508 50.1556374,58.8024413 C50.3025159,58.8698986 50.5057575,58.936889 50.7651235,59.0041129 C51.0244894,59.0713368 51.3636235,59.1570006 51.7822869,59.2606374 C51.9074321,59.2851461 52.0808204,59.3294952 52.3026905,59.3934513 C52.5245606,59.4578742 52.7449978,59.5601105 52.9637631,59.7006271 C53.1825285,59.8411437 53.3716793,60.0290439 53.5309768,60.2640941 C53.6902743,60.4993777 53.7700425,60.8002513 53.7700425,61.1667148 C53.7700425,61.4659545 53.7105746,61.7439533 53.5918777,62.0004778 C53.4731807,62.2570023 53.2966877,62.4785144 53.0621598,62.6647806 C52.8278707,62.8512802 52.5372184,62.9962317 52.1902031,63.1001019 C51.8434265,63.2037388 51.4417198,63.2557906 50.9855606,63.2557906 C50.6165732,63.2557906 50.2590494,63.2114415 49.9120341,63.1229767 C49.5650187,63.034512 49.2588427,62.8953959 48.9932673,62.7060953 C48.7274531,62.5167946 48.516569,62.2754422 48.3603763,61.9822713 C48.2041835,61.6888671 48.1291919,61.3408434 48.1354014,60.9375 L49.560481,60.9375 C49.560481,61.1576116 49.6010816,61.3438778 49.6822827,61.4965321" id="Fill-25"></path>
                    <path d="M55.7668735,61.4965321 C55.8480746,61.6491863 55.9560243,61.7731304 56.090245,61.8676639 C56.2247045,61.962431 56.382569,62.0326893 56.5638385,62.0784389 C56.7451081,62.1241884 56.9325872,62.1470632 57.1262757,62.1470632 C57.2576304,62.1470632 57.3982994,62.1365595 57.5482827,62.1148518 C57.6982659,62.0938443 57.8389349,62.0525296 57.9702897,61.9913746 C58.1014056,61.9302195 58.2105494,61.8461897 58.2984377,61.739285 C58.3858483,61.6326137 58.4295536,61.4965321 58.4295536,61.3315067 C58.4295536,61.1543438 58.3717575,61.0107928 58.2561654,60.9008537 C58.1403344,60.791148 57.9889182,60.6994154 57.8014391,60.6261227 C57.6139601,60.5525966 57.4014042,60.4886405 57.1637715,60.4335543 C56.9261388,60.3787015 56.6856402,60.3175464 56.4420369,60.2503225 C56.1917464,60.1891674 55.948143,60.1144742 55.7107492,60.025776 C55.4731165,59.9373113 55.2605606,59.8227039 55.0730816,59.6824207 C54.8856025,59.5416706 54.7339475,59.3661416 54.6183553,59.1553667 C54.5027631,58.9445918 54.444967,58.6897012 54.444967,58.3902281 C54.444967,58.0543421 54.5182869,57.7625717 54.6651654,57.5151504 C54.8120439,57.2677292 55.0042994,57.0616226 55.2419321,56.8965973 C55.479326,56.7318054 55.7480061,56.6094952 56.0482115,56.5301337 C56.3481779,56.4507722 56.6481444,56.4110914 56.9481109,56.4110914 C57.298231,56.4110914 57.6340215,56.4491382 57.9561989,56.5254654 C58.2778986,56.6017925 58.5637743,56.7257365 58.8140648,56.8965973 C59.0638777,57.0676914 59.2623427,57.2861691 59.4092212,57.5517968 C59.5560997,57.8174245 59.6296584,58.1397724 59.6296584,58.5183736 L58.2045788,58.5183736 C58.1919209,58.3230042 58.1498874,58.1612467 58.0780006,58.0328678 C58.0058749,57.9044888 57.9108218,57.8038864 57.791886,57.7303603 C57.6731891,57.657301 57.5372966,57.6052491 57.3842087,57.5746716 C57.2308818,57.5440941 57.0637031,57.528922 56.8826723,57.528922 C56.7637366,57.528922 56.6450397,57.5412931 56.5263427,57.5655684 C56.4076458,57.5900771 56.2996961,57.6327922 56.2029712,57.6937139 C56.1057687,57.7551024 56.0262394,57.8311961 55.9639056,57.9226953 C55.9010941,58.0144279 55.8700466,58.1306692 55.8700466,58.2711858 C55.8700466,58.3993313 55.8948846,58.503435 55.9450383,58.5827965 C55.9949531,58.6619247 56.0933497,58.7354508 56.2402282,58.8024413 C56.3871067,58.8698986 56.5903483,58.936889 56.8497142,59.0041129 C57.1090802,59.0713368 57.4482142,59.1570006 57.8668777,59.2606374 C57.9920229,59.2851461 58.1654112,59.3294952 58.3872813,59.3934513 C58.6091514,59.4578742 58.8295885,59.5601105 59.0483539,59.7006271 C59.2671193,59.8411437 59.4562701,60.0290439 59.6155676,60.2640941 C59.7748651,60.4993777 59.8546332,60.8002513 59.8546332,61.1667148 C59.8546332,61.4659545 59.7951654,61.7439533 59.6764684,62.0004778 C59.5577715,62.2570023 59.3812785,62.4785144 59.1467506,62.6647806 C58.9124615,62.8512802 58.6218092,62.9962317 58.2747939,63.1001019 C57.9280173,63.2037388 57.5263106,63.2557906 57.0701514,63.2557906 C56.701164,63.2557906 56.3436402,63.2114415 55.9966249,63.1229767 C55.6496095,63.034512 55.3434335,62.8953959 55.0778581,62.7060953 C54.8120439,62.5167946 54.6011598,62.2754422 54.444967,61.9822713 C54.2887743,61.6888671 54.2137827,61.3408434 54.2199922,60.9375 L55.6450718,60.9375 C55.6450718,61.1576116 55.6856723,61.3438778 55.7668735,61.4965321" id="Fill-26"></path>
                    <path d="M66.7550087,60.5801864 L65.9112335,58.1794999 L65.8923662,58.1794999 L65.0204095,60.5801864 L66.7550087,60.5801864 Z M66.670464,56.5668267 L69.1738466,63.1092519 L67.6455939,63.1092519 L67.139281,61.6522674 L64.6361372,61.6522674 L64.110957,63.1092519 L62.6297531,63.1092519 L65.1610785,56.5668267 L66.670464,56.5668267 Z" id="Fill-27"></path>
                    <path d="M70.8801448,61.4965321 C70.9613459,61.6491863 71.0692957,61.7731304 71.2035163,61.8676639 C71.3379758,61.962431 71.4958404,62.0326893 71.6771099,62.0784389 C71.8583795,62.1241884 72.0458585,62.1470632 72.2395471,62.1470632 C72.3709018,62.1470632 72.5115708,62.1365595 72.6615541,62.1148518 C72.8115373,62.0938443 72.9522063,62.0525296 73.083561,61.9913746 C73.214677,61.9302195 73.3238208,61.8461897 73.4117091,61.739285 C73.4991197,61.6326137 73.542825,61.4965321 73.542825,61.3315067 C73.542825,61.1543438 73.4850289,61.0107928 73.3694367,60.9008537 C73.2536057,60.791148 73.1021895,60.6994154 72.9147105,60.6261227 C72.7272314,60.5525966 72.5146756,60.4886405 72.2770429,60.4335543 C72.0394102,60.3787015 71.7989116,60.3175464 71.5553082,60.2503225 C71.3050177,60.1891674 71.0614144,60.1144742 70.8240205,60.025776 C70.5863878,59.9373113 70.373832,59.8227039 70.1863529,59.6824207 C69.9988739,59.5416706 69.8472189,59.3661416 69.7316267,59.1553667 C69.6160345,58.9445918 69.5582384,58.6897012 69.5582384,58.3902281 C69.5582384,58.0543421 69.6315582,57.7625717 69.7784367,57.5151504 C69.9253152,57.2677292 70.1175708,57.0616226 70.3552035,56.8965973 C70.5925973,56.7318054 70.8612775,56.6094952 71.1614828,56.5301337 C71.4614493,56.4507722 71.7614158,56.4110914 72.0613823,56.4110914 C72.4115024,56.4110914 72.7472929,56.4491382 73.0694703,56.5254654 C73.39117,56.6017925 73.6770457,56.7257365 73.9273362,56.8965973 C74.177149,57.0676914 74.3756141,57.2861691 74.5224926,57.5517968 C74.6693711,57.8174245 74.7429297,58.1397724 74.7429297,58.5183736 L73.3178501,58.5183736 C73.3051923,58.3230042 73.2631588,58.1612467 73.1912719,58.0328678 C73.1191462,57.9044888 73.0240932,57.8038864 72.9051574,57.7303603 C72.7864605,57.657301 72.650568,57.6052491 72.49748,57.5746716 C72.3441532,57.5440941 72.1769744,57.528922 71.9959437,57.528922 C71.877008,57.528922 71.758311,57.5412931 71.6396141,57.5655684 C71.5209172,57.5900771 71.4129675,57.6327922 71.3162426,57.6937139 C71.2190401,57.7551024 71.1395108,57.8311961 71.077177,57.9226953 C71.0143655,58.0144279 70.983318,58.1306692 70.983318,58.2711858 C70.983318,58.3993313 71.008156,58.503435 71.0583096,58.5827965 C71.1082244,58.6619247 71.2066211,58.7354508 71.3534996,58.8024413 C71.5003781,58.8698986 71.7036197,58.936889 71.9629856,59.0041129 C72.2223515,59.0713368 72.5614856,59.1570006 72.980149,59.2606374 C73.1052943,59.2851461 73.2786825,59.3294952 73.5005527,59.3934513 C73.7224228,59.4578742 73.9428599,59.5601105 74.1616253,59.7006271 C74.3803906,59.8411437 74.5695415,60.0290439 74.728839,60.2640941 C74.8881365,60.4993777 74.9679046,60.8002513 74.9679046,61.1667148 C74.9679046,61.4659545 74.9084367,61.7439533 74.7897398,62.0004778 C74.6710429,62.2570023 74.4945499,62.4785144 74.2600219,62.6647806 C74.0257328,62.8512802 73.7350806,62.9962317 73.3880652,63.1001019 C73.0412887,63.2037388 72.639582,63.2557906 72.1834228,63.2557906 C71.8144353,63.2557906 71.4569116,63.2114415 71.1098962,63.1229767 C70.7628809,63.034512 70.4567049,62.8953959 70.1911295,62.7060953 C69.9253152,62.5167946 69.7144311,62.2754422 69.5582384,61.9822713 C69.4020457,61.6888671 69.3270541,61.3408434 69.3332635,60.9375 L70.7583432,60.9375 C70.7583432,61.1576116 70.7989437,61.3438778 70.8801448,61.4965321" id="Fill-28"></path>
                    <path d="M76.9647356,61.4965321 C77.0459367,61.6491863 77.1538865,61.7731304 77.2881071,61.8676639 C77.4225666,61.962431 77.5804311,62.0326893 77.7617007,62.0784389 C77.9429703,62.1241884 78.1304493,62.1470632 78.3241378,62.1470632 C78.4554926,62.1470632 78.5961616,62.1365595 78.7461448,62.1148518 C78.8961281,62.0938443 79.0367971,62.0525296 79.1681518,61.9913746 C79.2992677,61.9302195 79.4084116,61.8461897 79.4962999,61.739285 C79.5837105,61.6326137 79.6274158,61.4965321 79.6274158,61.3315067 C79.6274158,61.1543438 79.5696197,61.0107928 79.4540275,60.9008537 C79.3381965,60.791148 79.1867803,60.6994154 78.9993013,60.6261227 C78.8118222,60.5525966 78.5992663,60.4886405 78.3616337,60.4335543 C78.124001,60.3787015 77.8835024,60.3175464 77.639899,60.2503225 C77.3896085,60.1891674 77.1460052,60.1144742 76.9086113,60.025776 C76.6709786,59.9373113 76.4584228,59.8227039 76.2709437,59.6824207 C76.0834647,59.5416706 75.9318096,59.3661416 75.8162175,59.1553667 C75.7006253,58.9445918 75.6428292,58.6897012 75.6428292,58.3902281 C75.6428292,58.0543421 75.716149,57.7625717 75.8630275,57.5151504 C76.009906,57.2677292 76.2021616,57.0616226 76.4397943,56.8965973 C76.6771881,56.7318054 76.9458683,56.6094952 77.2460736,56.5301337 C77.5460401,56.4507722 77.8460066,56.4110914 78.145973,56.4110914 C78.4960932,56.4110914 78.8318837,56.4491382 79.154061,56.5254654 C79.4757608,56.6017925 79.7616365,56.7257365 80.011927,56.8965973 C80.2617398,57.0676914 80.4602049,57.2861691 80.6070834,57.5517968 C80.7539619,57.8174245 80.8275205,58.1397724 80.8275205,58.5183736 L79.4024409,58.5183736 C79.3897831,58.3230042 79.3477496,58.1612467 79.2758627,58.0328678 C79.203737,57.9044888 79.1086839,57.8038864 78.9897482,57.7303603 C78.8710513,57.657301 78.7351588,57.6052491 78.5820708,57.5746716 C78.428744,57.5440941 78.2615652,57.528922 78.0805345,57.528922 C77.9615987,57.528922 77.8429018,57.5412931 77.7242049,57.5655684 C77.605508,57.5900771 77.4975582,57.6327922 77.4008334,57.6937139 C77.3036309,57.7551024 77.2241015,57.8311961 77.1617677,57.9226953 C77.0989563,58.0144279 77.0679088,58.1306692 77.0679088,58.2711858 C77.0679088,58.3993313 77.0927468,58.503435 77.1429004,58.5827965 C77.1928152,58.6619247 77.2912119,58.7354508 77.4380904,58.8024413 C77.5849689,58.8698986 77.7882105,58.936889 78.0475764,59.0041129 C78.3069423,59.0713368 78.6460764,59.1570006 79.0647398,59.2606374 C79.1898851,59.2851461 79.3632733,59.3294952 79.5851434,59.3934513 C79.8070135,59.4578742 80.0274507,59.5601105 80.2462161,59.7006271 C80.4649814,59.8411437 80.6541323,60.0290439 80.8134297,60.2640941 C80.9727272,60.4993777 81.0524954,60.8002513 81.0524954,61.1667148 C81.0524954,61.4659545 80.9930275,61.7439533 80.8743306,62.0004778 C80.7556337,62.2570023 80.5791406,62.4785144 80.3446127,62.6647806 C80.1103236,62.8512802 79.8196714,62.9962317 79.472656,63.1001019 C79.1258795,63.2037388 78.7241728,63.2557906 78.2680135,63.2557906 C77.8990261,63.2557906 77.5415024,63.2114415 77.194487,63.1229767 C76.8474716,63.034512 76.5412957,62.8953959 76.2757203,62.7060953 C76.009906,62.5167946 75.7990219,62.2754422 75.6428292,61.9822713 C75.4866365,61.6888671 75.4116448,61.3408434 75.4178543,60.9375 L76.8429339,60.9375 C76.8429339,61.1576116 76.8835345,61.3438778 76.9647356,61.4965321" id="Fill-29"></path>
                    <path d="M83.2042056,60.667274 C83.269883,60.9268329 83.3742503,61.1604826 83.5182628,61.3682231 C83.6620366,61.576197 83.8495156,61.7423894 84.0807,61.867734 C84.3118844,61.9930785 84.5932223,62.0554007 84.924714,62.0554007 C85.2557279,62.0554007 85.5370659,61.9930785 85.7684891,61.867734 C85.9996735,61.7423894 86.1871525,61.576197 86.3309263,61.3682231 C86.4747,61.1604826 86.5793061,60.9268329 86.6449835,60.667274 C86.7106609,60.4077151 86.7433802,60.1404534 86.7433802,59.8654891 C86.7433802,59.578387 86.7106609,59.3006216 86.6449835,59.0314927 C86.5793061,58.7630639 86.4747,58.5228786 86.3309263,58.3123371 C86.1871525,58.1015622 85.9996735,57.9335024 85.7684891,57.8083913 C85.5370659,57.6832802 85.2557279,57.6204912 84.924714,57.6204912 C84.5932223,57.6204912 84.3118844,57.6832802 84.0807,57.8083913 C83.8495156,57.9335024 83.6620366,58.1015622 83.5182628,58.3123371 C83.3742503,58.5228786 83.269883,58.7630639 83.2042056,59.0314927 C83.1385282,59.3006216 83.1058089,59.578387 83.1058089,59.8654891 C83.1058089,60.1404534 83.1385282,60.4077151 83.2042056,60.667274 M81.8588941,58.5046721 C82.0088774,58.0863901 82.2242992,57.721327 82.5056372,57.4097163 C82.7869751,57.0981056 83.1323187,56.8539521 83.5416679,56.6765557 C83.951017,56.4996262 84.4119528,56.4111614 84.924714,56.4111614 C85.443207,56.4111614 85.9058145,56.4996262 86.3122978,56.6765557 C86.7183034,56.8539521 87.062214,57.0981056 87.343552,57.4097163 C87.6246511,57.721327 87.8405506,58.0863901 87.9905338,58.5046721 C88.1402782,58.9231875 88.2152698,59.3769488 88.2152698,59.8654891 C88.2152698,60.3418917 88.1402782,60.7865497 87.9905338,61.1987629 C87.8405506,61.6109761 87.6246511,61.9699703 87.343552,62.2755122 C87.062214,62.5808207 86.7183034,62.8207727 86.3122978,62.9949012 C85.9058145,63.1687964 85.443207,63.2558606 84.924714,63.2558606 C84.4119528,63.2558606 83.951017,63.1687964 83.5416679,62.9949012 C83.1323187,62.8207727 82.7869751,62.5808207 82.5056372,62.2755122 C82.2242992,61.9699703 82.0088774,61.6109761 81.8588941,61.1987629 C81.7086721,60.7865497 81.6336804,60.3418917 81.6336804,59.8654891 C81.6336804,59.3769488 81.7086721,58.9231875 81.8588941,58.5046721" id="Fill-30"></path>
                    <path d="M93.5125919,58.3123604 C93.4249425,58.1748782 93.3155598,58.0544354 93.1844439,57.9503318 C93.0530891,57.8466949 92.9045388,57.7656995 92.7390318,57.7075788 C92.573286,57.6494582 92.3998978,57.6205145 92.218867,57.6205145 C91.8873754,57.6205145 91.6060374,57.6833035 91.3748531,57.8084147 C91.1436687,57.9335258 90.9559508,58.1015855 90.8124159,58.3123604 C90.6684034,58.5229019 90.564036,58.7630873 90.4983587,59.031516 C90.4326813,59.3004116 90.399962,59.5784104 90.399962,59.8655124 C90.399962,60.1404768 90.4326813,60.4077384 90.4983587,60.6672973 C90.564036,60.9268563 90.6684034,61.160506 90.8124159,61.3682465 C90.9559508,61.575987 91.1436687,61.7424128 91.3748531,61.8675239 C91.6060374,61.9931019 91.8873754,62.055424 92.218867,62.055424 C92.6688168,62.055424 93.0203698,61.9212096 93.2735263,61.6523141 C93.5266827,61.3834185 93.6814425,61.029326 93.7375668,60.5893363 L95.1626464,60.5893363 C95.1251506,60.9987485 95.0281869,61.3682465 94.8719941,61.6980637 C94.7158014,62.0281143 94.509455,62.3091475 94.2531939,62.5411633 C93.9969327,62.7731791 93.6967274,62.9503421 93.3532944,63.0726522 C93.0093838,63.1947289 92.6313209,63.255884 92.218867,63.255884 C91.7061059,63.255884 91.2451701,63.1688197 90.8358209,62.9949246 C90.4264718,62.8205626 90.0811282,62.5808441 89.7997902,62.2755356 C89.5184522,61.9699936 89.3030304,61.6109994 89.1530472,61.1987862 C89.0028251,60.7865731 88.9278335,60.341915 88.9278335,59.8655124 C88.9278335,59.3769721 89.0028251,58.9232108 89.1530472,58.5046954 C89.3030304,58.0864135 89.5184522,57.7213504 89.7997902,57.4097396 C90.0811282,57.0981289 90.4264718,56.8539755 90.8358209,56.6765791 C91.2451701,56.4994161 91.7061059,56.4109513 92.218867,56.4109513 C92.5873768,56.4109513 92.9358251,56.4630032 93.2639732,56.56664 C93.5921212,56.6707437 93.8858782,56.821764 94.145483,57.0204013 C94.4046101,57.2188051 94.6188377,57.4645925 94.7876883,57.7579967 C94.9563,58.0511676 95.0625779,58.3870536 95.1062832,58.7658883 L93.6814425,58.7658883 C93.6563656,58.600863 93.6000025,58.4498426 93.5125919,58.3123604" id="Fill-31"></path>
                    <polygon id="Fill-32" points="96.1657668 63.1092285 97.6378953 63.1092285 97.6378953 56.5668034 96.1657668 56.5668034"></polygon>
                    <path d="M102.353626,60.5801864 L101.509851,58.1794999 L101.491223,58.1794999 L100.619266,60.5801864 L102.353626,60.5801864 Z M102.26932,56.5668267 L104.772703,63.1092519 L103.244211,63.1092519 L102.738137,61.6522674 L100.234755,61.6522674 L99.7098134,63.1092519 L98.2286095,63.1092519 L100.759935,56.5668267 L102.26932,56.5668267 Z" id="Fill-33"></path>
                    <polygon id="Fill-34" points="103.9664 57.7762266 103.9664 56.5666633 109.451058 56.5666633 109.451058 57.7762266 107.444435 57.7762266 107.444435 63.1093219 105.972545 63.1093219 105.972545 57.7762266"></polygon>
                    <polygon id="Fill-35" points="110.21977 63.1092285 111.691659 63.1092285 111.691659 56.5668034 110.21977 56.5668034"></polygon>
                    <path d="M114.265353,60.667274 C114.330791,60.9268329 114.435636,61.1604826 114.57941,61.3682231 C114.723184,61.576197 114.910663,61.7423894 115.141847,61.867734 C115.37327,61.9930785 115.654369,62.0554007 115.985622,62.0554007 C116.317114,62.0554007 116.598452,61.9930785 116.829397,61.867734 C117.060582,61.7423894 117.248061,61.576197 117.392073,61.3682231 C117.535608,61.1604826 117.640692,60.9268329 117.70613,60.667274 C117.771808,60.4077151 117.804527,60.1404534 117.804527,59.8654891 C117.804527,59.578387 117.771808,59.3006216 117.70613,59.0314927 C117.640692,58.7630639 117.535608,58.5228786 117.392073,58.3123371 C117.248061,58.1015622 117.060582,57.9335024 116.829397,57.8083913 C116.598452,57.6832802 116.317114,57.6204912 115.985622,57.6204912 C115.654369,57.6204912 115.37327,57.6832802 115.141847,57.8083913 C114.910663,57.9335024 114.723184,58.1015622 114.57941,58.3123371 C114.435636,58.5228786 114.330791,58.7630639 114.265353,59.0314927 C114.199675,59.3006216 114.166956,59.578387 114.166956,59.8654891 C114.166956,60.1404534 114.199675,60.4077151 114.265353,60.667274 M112.919802,58.5046721 C113.070024,58.0863901 113.285446,57.721327 113.566784,57.4097163 C113.848122,57.0981056 114.193227,56.8539521 114.602815,56.6765557 C115.012164,56.4996262 115.473339,56.4111614 115.985622,56.4111614 C116.504593,56.4111614 116.966961,56.4996262 117.373445,56.6765557 C117.779689,56.8539521 118.123361,57.0981056 118.404699,57.4097163 C118.686037,57.721327 118.901459,58.0863901 119.051442,58.5046721 C119.201664,58.9231875 119.276417,59.3769488 119.276417,59.8654891 C119.276417,60.3418917 119.201664,60.7865497 119.051442,61.1987629 C118.901459,61.6109761 118.686037,61.9699703 118.404699,62.2755122 C118.123361,62.5808207 117.779689,62.8207727 117.373445,62.9949012 C116.966961,63.1687964 116.504593,63.2558606 115.985622,63.2558606 C115.473339,63.2558606 115.012164,63.1687964 114.602815,62.9949012 C114.193227,62.8207727 113.848122,62.5808207 113.566784,62.2755122 C113.285446,61.9699703 113.070024,61.6109761 112.919802,61.1987629 C112.769819,60.7865497 112.695066,60.3418917 112.695066,59.8654891 C112.695066,59.3769488 112.769819,58.9231875 112.919802,58.5046721" id="Fill-36"></path>
                    <polygon id="Fill-37" points="121.742447 56.5667567 124.536243 60.9559166 124.554872 60.9559166 124.554872 56.5667567 125.93338 56.5667567 125.93338 63.1091818 124.461251 63.1091818 121.67677 58.7293586 121.657902 58.7293586 121.657902 63.1091818 120.279872 63.1091818 120.279872 56.5667567"></polygon>
                    <path d="M0,44.5912362 C15.1920179,-14.631716 42.4760688,9.48555202 42.4760688,9.48555202 C35.7087911,2.75944186 29.9598623,0.0611015912 25.087099,0.0620416157 C5.29717453,0.0658017136 0,44.5912362 0,44.5912362" id="Fill-39"></path>
                </g>
            </g>
        </g>
    </g>
</svg>