<?xml version="1.0" encoding="UTF-8"?>
<svg width="200px" height="76px" viewBox="0 0 200 76" version="1.1" xmlns="http://www.w3.org/2000/svg" xmlns:xlink="http://www.w3.org/1999/xlink">
    <!-- Generator: Sketch 51.2 (57519) - http://www.bohemiancoding.com/sketch -->
    <title>Logo alt</title>
    <desc>Created with Sketch.</desc>
    <defs></defs>
    <g id="Page-1" stroke="none" stroke-width="1" fill="none" fill-rule="evenodd">
        <g id="Desktop-v2" transform="translate(-990.000000, -25003.000000)" fill="#E64640">
            <g id="Group-70" transform="translate(0.000000, 24550.000000)">
                <g id="Group-68" transform="translate(250.000000, 270.000000)">
                    <g id="Logo-alt" transform="translate(740.000000, 183.000000)">
                        <path d="M37.2925258,39.7006269 L32.9371728,27.0539434 L32.840325,27.0539434 L28.3399802,39.7006269 L37.2925258,39.7006269 Z M36.8569905,18.5581395 L49.7777778,53.0232558 L41.8897185,53.0232558 L39.2765067,45.3483025 L26.3557194,45.3483025 L23.6459397,53.0232558 L16,53.0232558 L29.0657791,18.5581395 L36.8569905,18.5581395 Z" id="Fill-1"></path>
                        <g id="Group-38" transform="translate(15.111111, 18.558140)">
                            <path d="M51.8536654,18.9323399 C51.6606487,17.990476 51.3299224,17.1592077 50.8637213,16.4404752 C50.3966822,15.7214655 49.7930509,15.1388292 49.0528274,14.6911806 C48.311766,14.2440862 47.3785258,14.0204005 46.2517101,14.0204005 C45.1246151,14.0204005 44.1751738,14.2440862 43.4025481,14.6911806 C42.6299224,15.1388292 42.0095313,15.7297809 41.5433302,16.4643128 C41.0762911,17.1996762 40.7383023,18.0381513 40.5290844,18.9802924 C40.3193079,19.9227106 40.2151179,20.9053203 40.2151179,21.9272897 C40.2151179,22.8857845 40.3276878,23.8442793 40.5531068,24.8027741 C40.7782464,25.7609918 41.1402576,26.6160977 41.6399783,27.366429 C42.1385816,28.1175918 42.7665146,28.72462 43.5232185,29.1875137 C44.2793637,29.6509617 45.1894196,29.8824086 46.2517101,29.8824086 C47.3785258,29.8824086 48.3201459,29.659 49.0768498,29.2113513 C49.832995,28.7645342 50.4366263,28.1655442 50.8877436,27.4143814 C51.3383023,26.6640502 51.6606487,25.8089442 51.8536654,24.8507266 C52.0469615,23.8922318 52.1436096,22.9021382 52.1436096,21.8793373 C52.1436096,20.8573678 52.0469615,19.8747582 51.8536654,18.9323399 Z M52.1436096,31.1762934 C51.3383023,32.5181307 50.2841124,33.4846638 48.9802017,34.0753383 C47.6762911,34.66629 46.2033861,34.9617658 44.5614867,34.9617658 C42.6938889,34.9617658 41.0519894,34.6025381 39.6357883,33.8835284 C38.2187492,33.1650731 37.0519894,32.1907789 36.134671,30.9606459 C35.2167939,29.7310673 34.5240565,28.3171627 34.0578554,26.7194866 C33.5908163,25.1223648 33.357576,23.4609368 33.357576,21.7354799 C33.357576,20.0748835 33.5908163,18.4694462 34.0578554,16.9194454 C34.5240565,15.3702761 35.2167939,14.0046011 36.134671,12.8224206 C37.0519894,11.6407944 38.2028274,10.6897835 39.5874643,9.97105097 C40.9712632,9.25231846 42.5815984,8.89281361 44.4165146,8.89281361 C45.8972408,8.89281361 47.3059001,9.20408882 48.6422129,9.8271936 C49.9779671,10.4500212 51.0327157,11.368879 51.8053414,12.5826583 L51.9019894,12.5826583 L51.9019894,0.123334506 L58.7595313,0.123334506 L58.7595313,34.3389382 L52.2399783,34.3389382 L52.2399783,31.1762934 L52.1436096,31.1762934 Z" id="Fill-2"></path>
                            <polygon id="Fill-4" points="67.6932185 34.3389382 59.1454531 9.56359367 66.3409839 9.56359367 71.6049503 26.4797243 71.7015984 26.4797243 76.9652855 9.56359367 83.7747827 9.56359367 75.3233861 34.3389382"></polygon>
                            <path d="M99.7591124,22.2149213 C99.4691682,22.4710373 99.107157,22.6703311 98.6725202,22.8139113 C98.2378833,22.9577686 97.7708442,23.077234 97.2719615,23.1731389 C96.7725202,23.269321 96.2496151,23.3494266 95.7024084,23.4129012 C95.1546431,23.4774846 94.6077157,23.5567586 94.060509,23.6526635 C93.5451459,23.7482913 93.0381626,23.8763493 92.53928,24.0357288 C92.0398386,24.1959399 91.6052017,24.4118646 91.2353693,24.6826712 C90.8649783,24.9545866 90.5669336,25.2982921 90.3420732,25.7129561 C90.1163749,26.1287289 90.0040844,26.6556516 90.0040844,27.2945557 C90.0040844,27.9018612 90.1163749,28.4129845 90.3420732,28.8279257 C90.5669336,29.2434213 90.8730788,29.570773 91.259671,29.8102581 C91.6459839,30.0500204 92.0962632,30.2177154 92.6119056,30.3136204 C93.1264308,30.4092481 93.6577157,30.4572005 94.2054811,30.4572005 C95.5574364,30.4572005 96.6035258,30.2343463 97.3443079,29.7864205 C98.0845313,29.3393262 98.6317381,28.8038109 98.9862073,28.1809833 C99.3401179,27.5578785 99.5574364,26.927567 99.6381626,26.2881085 C99.7183302,25.6494815 99.7591124,25.138081 99.7591124,24.7547385 L99.7591124,22.2149213 Z M83.9191682,17.1832393 C84.0158163,15.5858404 84.4177716,14.2598025 85.1264308,13.2056799 C85.834252,12.1512802 86.735928,11.3053212 87.8306207,10.6658627 C88.9247548,10.0272357 90.1563191,9.57182597 91.5250341,9.30018776 C92.8931906,9.02910392 94.2694475,8.89273046 95.6540844,8.89273046 C96.909671,8.89273046 98.1811794,8.98115146 99.4691682,9.15633039 C100.756598,9.33234086 101.932297,9.67604634 102.994867,10.1866153 C104.057157,10.6980158 104.92671,11.40871 105.602688,12.3189752 C106.278665,13.2295175 106.616934,14.4358129 106.616934,15.937307 L106.616934,28.8279257 C106.616934,29.9466316 106.680621,31.0165535 106.80995,32.038523 C106.938163,33.0616011 107.163582,33.8280089 107.485928,34.3388551 L100.531738,34.3388551 C100.402688,33.9555126 100.297939,33.5646862 100.217772,33.16499 C100.137045,32.7655709 100.080341,32.3583908 100.048777,31.9428952 C98.9540844,33.0616011 97.6658163,33.8440855 96.1853693,34.2909026 C94.7040844,34.7379969 93.1912353,34.9616827 91.6459839,34.9616827 C90.4543637,34.9616827 89.3437492,34.8181025 88.3135816,34.5306649 C87.2828554,34.2432273 86.3820174,33.796133 85.6093917,33.1888276 C84.836766,32.5820765 84.2331347,31.8156688 83.7982185,30.8884955 C83.363861,29.962431 83.1462632,28.860356 83.1462632,27.5819933 C83.1462632,26.1766814 83.3954252,25.0180613 83.8948665,24.1077961 C84.3937492,23.1972538 85.0373246,22.4710373 85.8267101,21.9272066 C86.6152576,21.3844845 87.5169336,20.9770272 88.5311794,20.705389 C89.5451459,20.4343052 90.5669336,20.2186577 91.5976598,20.0584466 C92.6275481,19.899067 93.6417939,19.771009 94.6401179,19.6751041 C95.637604,19.5791992 96.5236375,19.435619 97.2962632,19.243532 C98.0688889,19.0519993 98.6800621,18.7728772 99.1311794,18.4050569 C99.5817381,18.0383453 99.7906766,17.50283 99.7591124,16.7996197 C99.7591124,16.0650878 99.6381626,15.4818972 99.3968218,15.0506022 C99.1554811,14.6193073 98.8331347,14.2839173 98.4311794,14.044155 C98.0281068,13.8046699 97.5616263,13.6452903 97.0303414,13.5649076 C96.4993358,13.4856336 95.9272688,13.445165 95.3160956,13.445165 C93.963861,13.445165 92.9015705,13.7326026 92.1289448,14.3077549 C91.3560397,14.8829072 90.9049224,15.841402 90.7767101,17.1832393 L83.9191682,17.1832393 Z" id="Fill-6"></path>
                            <path d="M116.03333,9.5636491 L116.03333,13.0140087 L116.178302,13.0140087 C117.047576,11.5762665 118.174112,10.5301822 119.558749,9.87520149 C120.942548,9.22077517 122.359587,8.89286905 123.80847,8.89286905 C125.643386,8.89286905 127.148135,9.14066961 128.323833,9.6354392 C129.498693,10.1313175 130.424392,10.8178969 131.100369,11.696009 C131.776626,12.5752298 132.251487,13.6451517 132.52523,14.9068835 C132.798414,16.1694468 132.935844,17.5664432 132.935844,19.0998132 L132.935844,34.3389936 L126.078302,34.3389936 L126.078302,20.3457456 C126.078302,18.3018067 125.755956,16.7759206 125.112381,15.7694734 C124.467688,14.7630261 123.32523,14.259941 121.68361,14.259941 C119.816012,14.259941 118.463777,14.8109785 117.626906,15.9133307 C116.789475,17.0154057 116.371319,18.8290065 116.371319,21.3521928 L116.371319,34.3389936 L109.513777,34.3389936 L109.513777,9.5636491 L116.03333,9.5636491 Z" id="Fill-8"></path>
                            <path d="M147.66414,14.0203451 C146.569168,14.0203451 145.65185,14.2681456 144.911626,14.7631924 C144.170565,15.2587935 143.566934,15.8974205 143.100453,16.6799048 C142.633414,17.4629435 142.303805,18.3258106 142.110509,19.2676745 C141.917492,20.2106471 141.820844,21.1450271 141.820844,22.0710917 C141.820844,22.9658346 141.917492,23.876377 142.110509,24.8027187 C142.303805,25.7296148 142.617772,26.5680898 143.052129,27.3184211 C143.486766,28.0695839 144.073637,28.6843732 144.814978,29.1633434 C145.555202,29.6425908 146.456878,29.8823531 147.519168,29.8823531 C149.161068,29.8823531 150.424475,29.4269434 151.31023,28.516401 C152.195425,27.6058587 152.750732,26.3840411 152.976431,24.8506712 L159.592353,24.8506712 C159.141235,28.141374 157.853805,30.6490381 155.728945,32.3739407 C153.604364,34.0993977 150.883135,34.9617104 147.567492,34.9617104 C145.700174,34.9617104 143.985649,34.6504352 142.424475,34.0273304 C140.862464,33.4045028 139.534531,32.5341518 138.440397,31.4157231 C137.345425,30.2978487 136.492073,28.9643269 135.880621,27.414326 C135.268889,25.8651567 134.963023,24.1638146 134.963023,22.3108539 C134.963023,20.3938643 135.244587,18.6132482 135.808554,16.9673424 C136.371124,15.3225454 137.200453,13.9006025 138.295425,12.7026226 C139.389559,11.5043655 140.725872,10.5699855 142.303805,9.89920544 C143.880621,9.2281482 145.684252,8.89275817 147.712464,8.89275817 C149.192911,8.89275817 150.617492,9.08429083 151.986487,9.4679105 C153.354364,9.8509758 154.577548,10.4344436 155.656598,11.2169279 C156.73509,11.9999666 157.612464,12.9742608 158.288442,14.1400876 C158.964699,15.306746 159.351012,16.6882203 159.44766,18.2853421 L152.734811,18.2853421 C152.283693,15.4422879 150.593191,14.0203451 147.66414,14.0203451" id="Fill-10"></path>
                            <path d="M176.132297,15.3621269 C175.311347,14.4679383 174.063302,14.0202896 172.389839,14.0202896 C171.294867,14.0202896 170.385649,14.2046155 169.661068,14.5713271 C168.936487,14.9391474 168.357157,15.39428 167.92252,15.9372792 C167.487883,16.4808328 167.181459,17.0559852 167.004922,17.6621818 C166.827548,18.2697644 166.72252,18.8124865 166.690956,19.2914567 L177.846822,19.2914567 C177.524475,17.5665541 176.953246,16.2568699 176.132297,15.3621269 M168.381459,28.396603 C169.411068,29.3872509 170.892353,29.8822977 172.824196,29.8822977 C174.207995,29.8822977 175.399615,29.5394238 176.397939,28.8517356 C177.395425,28.1654334 178.007436,27.4383854 178.233135,26.6714232 L184.269727,26.6714232 C183.303805,29.6425354 181.82252,31.7676886 179.82671,33.0449425 C177.830062,34.3233052 175.415537,34.9616549 172.582855,34.9616549 C170.61861,34.9616549 168.84766,34.6503797 167.270565,34.027275 C165.692911,33.4044474 164.356598,32.5180198 163.262464,31.3679924 C162.167492,30.2176877 161.322241,28.8445289 160.726989,27.2465756 C160.1309,25.6494538 159.833414,23.8921209 159.833414,21.9754085 C159.833414,20.122725 160.139001,18.3978224 160.751291,16.799592 C161.362185,15.2027474 162.231459,13.8209959 163.358833,12.6546147 C164.485649,11.4887879 165.829224,10.5699301 167.391235,9.89915 C168.952688,9.22836995 170.682576,8.89270274 172.582855,8.89270274 C174.707436,8.89270274 176.558554,9.30016004 178.136487,10.1147975 C179.713302,10.9294349 181.00995,12.0243032 182.023917,13.397462 C183.038163,14.7714524 183.770006,16.3369755 184.221403,18.093754 C184.671682,19.8510868 184.832297,21.6876937 184.704084,23.6046833 L166.690956,23.6046833 C166.787604,25.8088333 167.350732,27.4070638 168.381459,28.396603" id="Fill-12"></path>
                            <path d="M3.81715705,55.0566455 C3.98531347,55.0566455 4.14620732,55.0400146 4.29955928,55.0075843 C4.45319056,54.9748769 4.5883861,54.9205492 4.7054252,54.8443242 C4.82218498,54.7680992 4.91548107,54.6649876 4.98503414,54.5341577 C5.05430788,54.4038823 5.08922408,54.2370188 5.08922408,54.0338445 C5.08922408,53.6347027 4.97553693,53.3500369 4.74927995,53.1795701 C4.52246431,53.0091032 4.22302297,52.9240084 3.85011794,52.9240084 L1.97497827,52.9240084 L1.97497827,55.0566455 L3.81715705,55.0566455 Z M3.71827436,51.7592903 C4.02553693,51.7592903 4.27749224,51.687223 4.47497827,51.5417026 C4.67246431,51.3970136 4.77106766,51.1608547 4.77106766,50.8348889 C4.77106766,50.6533348 4.73810677,50.5044881 4.67246431,50.3883489 C4.60654252,50.2724869 4.51883302,50.1818485 4.40933582,50.1164335 C4.29955928,50.0510186 4.17358163,50.005838 4.03112353,49.9806144 C3.8883861,49.9551137 3.7403414,49.9423633 3.58671012,49.9423633 L1.97497827,49.9423633 L1.97497827,51.7592903 L3.71827436,51.7592903 Z M3.93782744,48.6149395 C4.31073246,48.6149395 4.65039727,48.647647 4.95765984,48.7127847 C5.26464308,48.7781996 5.52777157,48.8851918 5.74704531,49.0337613 C5.96631906,49.1826079 6.13643079,49.3802386 6.25682185,49.6266532 C6.37777157,49.8736222 6.43782744,50.1779679 6.43782744,50.5407989 C6.43782744,50.9324569 6.34844196,51.2589771 6.16911235,51.5200824 C5.99006207,51.7814649 5.7252576,51.9954492 5.37414029,52.1623127 C5.85682185,52.3000721 6.21659839,52.5412203 6.45430788,52.8857573 C6.69201738,53.2302943 6.81073246,53.6457899 6.81073246,54.1316897 C6.81073246,54.5233476 6.73391682,54.8626182 6.58056487,55.1489471 C6.42693358,55.4355531 6.22022967,55.6697717 5.96101179,55.8507715 C5.70123526,56.0323256 5.4054252,56.1664816 5.07274364,56.2535167 C4.74006207,56.3405518 4.39844196,56.3840693 4.04732464,56.3840693 L0.253190565,56.3840693 L0.253190565,48.6149395 L3.93782744,48.6149395 Z" id="Fill-14"></path>
                            <path d="M13.7299503,55.7910111 C13.1377716,56.3026887 12.3190565,56.5582504 11.2738051,56.5582504 C10.2137492,56.5582504 9.39307883,56.3043518 8.81207325,55.7965547 C8.23078833,55.2887576 7.94000621,54.5051645 7.94000621,53.4460527 L7.94000621,48.6147732 L9.66179392,48.6147732 L9.66179392,53.4460527 C9.66179392,53.6567109 9.67995034,53.8634885 9.71654252,54.0663857 C9.7531347,54.2695599 9.82995034,54.4488966 9.94698945,54.60495 C10.0637492,54.7610033 10.2265984,54.8879526 10.4349783,54.9857978 C10.6430788,55.083643 10.9226878,55.1327042 11.2738051,55.1327042 C11.8877716,55.1327042 12.3115146,54.9968851 12.5455928,54.7246925 C12.779671,54.4527771 12.8967101,54.0267486 12.8967101,53.4460527 L12.8967101,48.6147732 L14.6182185,48.6147732 L14.6182185,53.4460527 C14.6182185,54.4979578 14.3221291,55.2796106 13.7299503,55.7910111" id="Fill-16"></path>
                            <path d="M17.41428,54.4689923 C17.509252,54.6502692 17.635509,54.7974528 17.7924922,54.9097114 C17.9497548,55.0222472 18.1343917,55.105679 18.3464029,55.1600066 C18.558414,55.2143342 18.7776878,55.2414981 19.0042241,55.2414981 C19.1578554,55.2414981 19.3223805,55.2290249 19.4977995,55.203247 C19.6732185,55.1783006 19.8377436,55.1292394 19.9913749,55.0566178 C20.1447269,54.9839961 20.2723805,54.8842107 20.3751738,54.7572614 C20.4774084,54.6305893 20.5285258,54.4689923 20.5285258,54.2730247 C20.5285258,54.0626437 20.460928,53.8921769 20.3257325,53.7616242 C20.1902576,53.6313488 20.0131626,53.5224163 19.7938889,53.4353812 C19.5746151,53.3480689 19.3260118,53.2721211 19.0480788,53.2067062 C18.7701459,53.1415684 18.488861,53.0689468 18.2039448,52.9891184 C17.9112073,52.9164968 17.6262911,52.8277986 17.3486375,52.7224695 C17.0707045,52.6174176 16.8221012,52.4813213 16.6028274,52.314735 C16.3835537,52.1475944 16.2061794,51.9391536 16.0709839,51.6888584 C15.9357883,51.4385632 15.8681906,51.1358806 15.8681906,50.7802563 C15.8681906,50.3813917 15.9539448,50.0349144 16.1257325,49.7411016 C16.2975202,49.4472889 16.5223805,49.2025373 16.8003135,49.0065697 C17.0779671,48.8108793 17.3922129,48.6656361 17.7433302,48.5713942 C18.0941682,48.4771524 18.4450062,48.4300315 18.7958442,48.4300315 C19.2053414,48.4300315 19.5980788,48.4752121 19.9748945,48.5658506 C20.3511515,48.6564891 20.685509,48.8036726 20.9782464,49.0065697 C21.2704252,49.209744 21.5025481,49.4691862 21.6743358,49.7846192 C21.8461235,50.1000521 21.932157,50.4828402 21.932157,50.9324292 L20.2653973,50.9324292 C20.2505928,50.700428 20.2014308,50.5083409 20.1173526,50.3558909 C20.032995,50.2034409 19.9218218,50.0839755 19.7827157,49.9966633 C19.6438889,49.9099053 19.4849503,49.8480938 19.3059001,49.811783 C19.1265705,49.7754722 18.9310397,49.7574553 18.7193079,49.7574553 C18.5802017,49.7574553 18.4413749,49.772146 18.3025481,49.8009729 C18.1637213,49.830077 18.0374643,49.8808013 17.9243358,49.9531457 C17.8106487,50.0260445 17.7176319,50.1164058 17.6447269,50.2250611 C17.5712632,50.3339936 17.5349503,50.4720301 17.5349503,50.6388936 C17.5349503,50.7910664 17.5640006,50.9146895 17.6226598,51.0089313 C17.6810397,51.102896 17.7961235,51.1902083 17.9679112,51.2697595 C18.1396989,51.349865 18.3774084,51.4294162 18.6807604,51.5092446 C18.9841124,51.5890729 19.3807604,51.6907987 19.8704252,51.8138674 C20.0167939,51.8429715 20.2195872,51.8956361 20.4790844,51.9715839 C20.7385816,52.0480861 20.9964029,52.1694917 21.2522688,52.3363552 C21.5081347,52.5032187 21.7293637,52.72635 21.9156766,53.0054722 C22.1019894,53.2848714 22.1952855,53.6421588 22.1952855,54.0773343 C22.1952855,54.4326815 22.1257325,54.762805 21.9869056,55.0674279 C21.8480788,55.3720507 21.6416543,55.6350963 21.3673526,55.8562874 C21.0933302,56.0777557 20.7533861,56.2498856 20.3475202,56.3732315 C19.9419336,56.4963003 19.4721012,56.5581118 18.9385816,56.5581118 C18.5070174,56.5581118 18.088861,56.5054473 17.682995,56.4003953 C17.2771291,56.2953434 16.9190286,56.1301431 16.608414,55.9053486 C16.2975202,55.6805541 16.0508721,55.3939481 15.8681906,55.0458077 C15.685509,54.6973901 15.5977995,54.284112 15.6050621,53.8051418 L17.2718218,53.8051418 C17.2718218,54.0665242 17.3193079,54.2877154 17.41428,54.4689923" id="Fill-19"></path>
                            <polygon id="Fill-21" points="23.2148665 56.3840693 24.9366543 56.3840693 24.9366543 48.6149395 23.2148665 48.6149395"></polygon>
                            <polygon id="Fill-23" points="28.1605649 48.6148841 31.4281626 53.8270114 31.4502297 53.8270114 31.4502297 48.6148841 33.0619615 48.6148841 33.0619615 56.3840139 31.3404531 56.3840139 28.0837492 51.1829738 28.0616822 51.1829738 28.0616822 56.3840139 26.449671 56.3840139 26.449671 48.6148841"></polygon>
                            <polygon id="Fill-24" points="40.4308721 48.6148841 40.4308721 50.0512404 36.2967939 50.0512404 36.2967939 51.7159945 40.090928 51.7159945 40.090928 53.0436955 36.2967939 53.0436955 36.2967939 54.9479348 40.5185816 54.9479348 40.5185816 56.3840139 34.5752855 56.3840139 34.5752855 48.6148841"></polygon>
                            <path d="M42.9968218,54.4689923 C43.0917939,54.6502692 43.2180509,54.7974528 43.3750341,54.9097114 C43.5322967,55.0222472 43.7169336,55.105679 43.9289448,55.1600066 C44.1409559,55.2143342 44.3602297,55.2414981 44.586766,55.2414981 C44.7403973,55.2414981 44.9049224,55.2290249 45.0803414,55.203247 C45.2557604,55.1783006 45.4202855,55.1292394 45.5739168,55.0566178 C45.7272688,54.9839961 45.8549224,54.8842107 45.9577157,54.7572614 C46.0599503,54.6305893 46.1110677,54.4689923 46.1110677,54.2730247 C46.1110677,54.0626437 46.0434699,53.8921769 45.9082744,53.7616242 C45.7727995,53.6313488 45.5957045,53.5224163 45.3764308,53.4353812 C45.157157,53.3480689 44.9085537,53.2721211 44.6306207,53.2067062 C44.3526878,53.1415684 44.0714029,53.0689468 43.7864867,52.9891184 C43.4937492,52.9164968 43.208833,52.8277986 42.9311794,52.7224695 C42.6532464,52.6174176 42.4046431,52.4813213 42.1853693,52.314735 C41.9660956,52.1475944 41.7887213,51.9391536 41.6535258,51.6888584 C41.5183302,51.4385632 41.4507325,51.1358806 41.4507325,50.7802563 C41.4507325,50.3813917 41.5364867,50.0349144 41.7082744,49.7411016 C41.8800621,49.4472889 42.1049224,49.2025373 42.3828554,49.0065697 C42.660509,48.8108793 42.9747548,48.6656361 43.3258721,48.5713942 C43.6767101,48.4771524 44.0275481,48.4300315 44.3783861,48.4300315 C44.7878833,48.4300315 45.1806207,48.4752121 45.5574364,48.5658506 C45.9336934,48.6564891 46.2680509,48.8036726 46.5607883,49.0065697 C46.8529671,49.209744 47.08509,49.4691862 47.2568777,49.7846192 C47.4286654,50.1000521 47.5146989,50.4828402 47.5146989,50.9324292 L45.8479392,50.9324292 C45.8331347,50.700428 45.7839727,50.5083409 45.6998945,50.3558909 C45.6155369,50.2034409 45.5043637,50.0839755 45.3652576,49.9966633 C45.2264308,49.9099053 45.0674922,49.8480938 44.888442,49.811783 C44.7091124,49.7754722 44.5135816,49.7574553 44.3018498,49.7574553 C44.1627436,49.7574553 44.0239168,49.772146 43.88509,49.8009729 C43.7462632,49.830077 43.6200062,49.8808013 43.5068777,49.9531457 C43.3931906,50.0260445 43.3001738,50.1164058 43.2272688,50.2250611 C43.1538051,50.3339936 43.1174922,50.4720301 43.1174922,50.6388936 C43.1174922,50.7910664 43.1465425,50.9146895 43.2052017,51.0089313 C43.2635816,51.102896 43.3786654,51.1902083 43.5504531,51.2697595 C43.7222408,51.349865 43.9599503,51.4294162 44.2633023,51.5092446 C44.5666543,51.5890729 44.9633023,51.6907987 45.4529671,51.8138674 C45.5993358,51.8429715 45.8021291,51.8956361 46.0616263,51.9715839 C46.3211235,52.0480861 46.5789448,52.1694917 46.8348107,52.3363552 C47.0906766,52.5032187 47.3119056,52.72635 47.4982185,53.0054722 C47.6845313,53.2848714 47.7778274,53.6421588 47.7778274,54.0773343 C47.7778274,54.4326815 47.7082744,54.762805 47.5694475,55.0674279 C47.4306207,55.3720507 47.2241962,55.6350963 46.9498945,55.8562874 C46.6758721,56.0777557 46.335928,56.2498856 45.9300621,56.3732315 C45.5244755,56.4963003 45.0546431,56.5581118 44.5211235,56.5581118 C44.0895593,56.5581118 43.6714029,56.5054473 43.2655369,56.4003953 C42.859671,56.2953434 42.5015705,56.1301431 42.1909559,55.9053486 C41.8800621,55.6805541 41.633414,55.3939481 41.4507325,55.0458077 C41.2680509,54.6973901 41.1803414,54.284112 41.187604,53.8051418 L42.8543637,53.8051418 C42.8543637,54.0665242 42.9018498,54.2877154 42.9968218,54.4689923" id="Fill-25"></path>
                            <path d="M50.1133023,54.4689923 C50.2082744,54.6502692 50.3345313,54.7974528 50.4915146,54.9097114 C50.6487772,55.0222472 50.833414,55.105679 51.0454252,55.1600066 C51.2574364,55.2143342 51.4767101,55.2414981 51.7032464,55.2414981 C51.8568777,55.2414981 52.0214029,55.2290249 52.1968218,55.203247 C52.3722408,55.1783006 52.536766,55.1292394 52.6903973,55.0566178 C52.8437492,54.9839961 52.9714029,54.8842107 53.0741962,54.7572614 C53.1764308,54.6305893 53.2275481,54.4689923 53.2275481,54.2730247 C53.2275481,54.0626437 53.1599503,53.8921769 53.0247548,53.7616242 C52.88928,53.6313488 52.712185,53.5224163 52.4929112,53.4353812 C52.2736375,53.3480689 52.0250341,53.2721211 51.7471012,53.2067062 C51.4691682,53.1415684 51.1878833,53.0689468 50.9029671,52.9891184 C50.6102297,52.9164968 50.3253135,52.8277986 50.0476598,52.7224695 C49.7697269,52.6174176 49.5211235,52.4813213 49.3018498,52.314735 C49.082576,52.1475944 48.9052017,51.9391536 48.7700062,51.6888584 C48.6348107,51.4385632 48.5672129,51.1358806 48.5672129,50.7802563 C48.5672129,50.3813917 48.6529671,50.0349144 48.8247548,49.7411016 C48.9965425,49.4472889 49.2214029,49.2025373 49.4993358,49.0065697 C49.7769894,48.8108793 50.0912353,48.6656361 50.4423526,48.5713942 C50.7931906,48.4771524 51.1440286,48.4300315 51.4948665,48.4300315 C51.9043637,48.4300315 52.2971012,48.4752121 52.6739168,48.5658506 C53.0501738,48.6564891 53.3845313,48.8036726 53.6772688,49.0065697 C53.9694475,49.209744 54.2015705,49.4691862 54.3733582,49.7846192 C54.5451459,50.1000521 54.6311794,50.4828402 54.6311794,50.9324292 L52.9644196,50.9324292 C52.9496151,50.700428 52.9004531,50.5083409 52.8163749,50.3558909 C52.7320174,50.2034409 52.6208442,50.0839755 52.4817381,49.9966633 C52.3429112,49.9099053 52.1839727,49.8480938 52.0049224,49.811783 C51.8255928,49.7754722 51.6300621,49.7574553 51.4183302,49.7574553 C51.2792241,49.7574553 51.1403973,49.772146 51.0015705,49.8009729 C50.8627436,49.830077 50.7364867,49.8808013 50.6233582,49.9531457 C50.509671,50.0260445 50.4166543,50.1164058 50.3437492,50.2250611 C50.2702855,50.3339936 50.2339727,50.4720301 50.2339727,50.6388936 C50.2339727,50.7910664 50.263023,50.9146895 50.3216822,51.0089313 C50.3800621,51.102896 50.4951459,51.1902083 50.6669336,51.2697595 C50.8387213,51.349865 51.0764308,51.4294162 51.3797827,51.5092446 C51.6831347,51.5890729 52.0797827,51.6907987 52.5694475,51.8138674 C52.7158163,51.8429715 52.9186096,51.8956361 53.1781068,51.9715839 C53.437604,52.0480861 53.6954252,52.1694917 53.9512911,52.3363552 C54.207157,52.5032187 54.4283861,52.72635 54.6146989,53.0054722 C54.8010118,53.2848714 54.8943079,53.6421588 54.8943079,54.0773343 C54.8943079,54.4326815 54.8247548,54.762805 54.685928,55.0674279 C54.5471012,55.3720507 54.3406766,55.6350963 54.0663749,55.8562874 C53.7923526,56.0777557 53.4524084,56.2498856 53.0465425,56.3732315 C52.6409559,56.4963003 52.1711235,56.5581118 51.637604,56.5581118 C51.2060397,56.5581118 50.7878833,56.5054473 50.3820174,56.4003953 C49.9761515,56.2953434 49.6180509,56.1301431 49.3074364,55.9053486 C48.9965425,55.6805541 48.7498945,55.3939481 48.5672129,55.0458077 C48.3845313,54.6973901 48.2968218,54.284112 48.3040844,53.8051418 L49.9708442,53.8051418 C49.9708442,54.0665242 50.0183302,54.2877154 50.1133023,54.4689923" id="Fill-26"></path>
                            <path d="M62.9649224,53.3808318 L61.9780509,50.5300166 L61.9559839,50.5300166 L60.9361515,53.3808318 L62.9649224,53.3808318 Z M62.8660397,48.6149672 L65.7939727,56.3840971 L64.0065425,56.3840971 L63.4143637,54.653928 L60.4867101,54.653928 L59.8724643,56.3840971 L58.1400621,56.3840971 L61.1006766,48.6149672 L62.8660397,48.6149672 Z" id="Fill-27"></path>
                            <path d="M67.7896431,54.4689923 C67.8846151,54.6502692 68.0108721,54.7974528 68.1678554,54.9097114 C68.3251179,55.0222472 68.5097548,55.105679 68.721766,55.1600066 C68.9337772,55.2143342 69.1530509,55.2414981 69.3795872,55.2414981 C69.5332185,55.2414981 69.6977436,55.2290249 69.8731626,55.203247 C70.0485816,55.1783006 70.2131068,55.1292394 70.3667381,55.0566178 C70.52009,54.9839961 70.6477436,54.8842107 70.7505369,54.7572614 C70.8527716,54.6305893 70.9038889,54.4689923 70.9038889,54.2730247 C70.9038889,54.0626437 70.8362911,53.8921769 70.7010956,53.7616242 C70.5656207,53.6313488 70.3885258,53.5224163 70.169252,53.4353812 C69.9499783,53.3480689 69.7013749,53.2721211 69.423442,53.2067062 C69.145509,53.1415684 68.8642241,53.0689468 68.5793079,52.9891184 C68.2865705,52.9164968 68.0016543,52.8277986 67.7240006,52.7224695 C67.4460677,52.6174176 67.1974643,52.4813213 66.9781906,52.314735 C66.7589168,52.1475944 66.5815425,51.9391536 66.446347,51.6888584 C66.3111515,51.4385632 66.2435537,51.1358806 66.2435537,50.7802563 C66.2435537,50.3813917 66.3293079,50.0349144 66.5010956,49.7411016 C66.6728833,49.4472889 66.8977436,49.2025373 67.1756766,49.0065697 C67.4533302,48.8108793 67.767576,48.6656361 68.1186934,48.5713942 C68.4695313,48.4771524 68.8203693,48.4300315 69.1712073,48.4300315 C69.5807045,48.4300315 69.973442,48.4752121 70.3502576,48.5658506 C70.7265146,48.6564891 71.0608721,48.8036726 71.3536096,49.0065697 C71.6457883,49.209744 71.8779112,49.4691862 72.0496989,49.7846192 C72.2214867,50.1000521 72.3075202,50.4828402 72.3075202,50.9324292 L70.6407604,50.9324292 C70.6259559,50.700428 70.5767939,50.5083409 70.4927157,50.3558909 C70.4083582,50.2034409 70.297185,50.0839755 70.1580788,49.9966633 C70.019252,49.9099053 69.8603135,49.8480938 69.6812632,49.811783 C69.5019336,49.7754722 69.3064029,49.7574553 69.094671,49.7574553 C68.9555649,49.7574553 68.8167381,49.772146 68.6779112,49.8009729 C68.5390844,49.830077 68.4128274,49.8808013 68.2996989,49.9531457 C68.1860118,50.0260445 68.092995,50.1164058 68.02009,50.2250611 C67.9466263,50.3339936 67.9103135,50.4720301 67.9103135,50.6388936 C67.9103135,50.7910664 67.9393637,50.9146895 67.998023,51.0089313 C68.0564029,51.102896 68.1714867,51.1902083 68.3432744,51.2697595 C68.5150621,51.349865 68.7527716,51.4294162 69.0561235,51.5092446 C69.3594755,51.5890729 69.7561235,51.6907987 70.2457883,51.8138674 C70.392157,51.8429715 70.5949503,51.8956361 70.8544475,51.9715839 C71.1139448,52.0480861 71.371766,52.1694917 71.6276319,52.3363552 C71.8834978,52.5032187 72.1047269,52.72635 72.2910397,53.0054722 C72.4773526,53.2848714 72.5706487,53.6421588 72.5706487,54.0773343 C72.5706487,54.4326815 72.5010956,54.762805 72.3622688,55.0674279 C72.223442,55.3720507 72.0170174,55.6350963 71.7427157,55.8562874 C71.4686934,56.0777557 71.1287492,56.2498856 70.7228833,56.3732315 C70.3172967,56.4963003 69.8474643,56.5581118 69.3139448,56.5581118 C68.8823805,56.5581118 68.4642241,56.5054473 68.0583582,56.4003953 C67.6524922,56.2953434 67.2943917,56.1301431 66.9837772,55.9053486 C66.6728833,55.6805541 66.4262353,55.3939481 66.2435537,55.0458077 C66.0608721,54.6973901 65.9731626,54.284112 65.9804252,53.8051418 L67.647185,53.8051418 C67.647185,54.0665242 67.694671,54.2877154 67.7896431,54.4689923" id="Fill-28"></path>
                            <path d="M74.9061235,54.4689923 C75.0010956,54.6502692 75.1273526,54.7974528 75.2843358,54.9097114 C75.4415984,55.0222472 75.6262353,55.105679 75.8382464,55.1600066 C76.0502576,55.2143342 76.2695313,55.2414981 76.4960677,55.2414981 C76.6496989,55.2414981 76.8142241,55.2290249 76.9896431,55.203247 C77.1650621,55.1783006 77.3295872,55.1292394 77.4832185,55.0566178 C77.6365705,54.9839961 77.7642241,54.8842107 77.8670174,54.7572614 C77.969252,54.6305893 78.0203693,54.4689923 78.0203693,54.2730247 C78.0203693,54.0626437 77.9527716,53.8921769 77.817576,53.7616242 C77.6821012,53.6313488 77.5050062,53.5224163 77.2857325,53.4353812 C77.0664587,53.3480689 76.8178554,53.2721211 76.5399224,53.2067062 C76.2619894,53.1415684 75.9807045,53.0689468 75.6957883,52.9891184 C75.4030509,52.9164968 75.1181347,52.8277986 74.8404811,52.7224695 C74.5625481,52.6174176 74.3139448,52.4813213 74.094671,52.314735 C73.8753973,52.1475944 73.698023,51.9391536 73.5628274,51.6888584 C73.4276319,51.4385632 73.3600341,51.1358806 73.3600341,50.7802563 C73.3600341,50.3813917 73.4457883,50.0349144 73.617576,49.7411016 C73.7893637,49.4472889 74.0142241,49.2025373 74.292157,49.0065697 C74.5698107,48.8108793 74.8840565,48.6656361 75.2351738,48.5713942 C75.5860118,48.4771524 75.9368498,48.4300315 76.2876878,48.4300315 C76.697185,48.4300315 77.0899224,48.4752121 77.4667381,48.5658506 C77.842995,48.6564891 78.1773526,48.8036726 78.47009,49.0065697 C78.7622688,49.209744 78.9943917,49.4691862 79.1661794,49.7846192 C79.3379671,50.1000521 79.4240006,50.4828402 79.4240006,50.9324292 L77.7572408,50.9324292 C77.7424364,50.700428 77.6932744,50.5083409 77.6091962,50.3558909 C77.5248386,50.2034409 77.4136654,50.0839755 77.2745593,49.9966633 C77.1357325,49.9099053 76.9767939,49.8480938 76.7977436,49.811783 C76.618414,49.7754722 76.4228833,49.7574553 76.2111515,49.7574553 C76.0720453,49.7574553 75.9332185,49.772146 75.7943917,49.8009729 C75.6555649,49.830077 75.5293079,49.8808013 75.4161794,49.9531457 C75.3024922,50.0260445 75.2094755,50.1164058 75.1365705,50.2250611 C75.0631068,50.3339936 75.0267939,50.4720301 75.0267939,50.6388936 C75.0267939,50.7910664 75.0558442,50.9146895 75.1145034,51.0089313 C75.1728833,51.102896 75.2879671,51.1902083 75.4597548,51.2697595 C75.6315425,51.349865 75.869252,51.4294162 76.172604,51.5092446 C76.4759559,51.5890729 76.872604,51.6907987 77.3622688,51.8138674 C77.5086375,51.8429715 77.7114308,51.8956361 77.970928,51.9715839 C78.2304252,52.0480861 78.4882464,52.1694917 78.7441124,52.3363552 C78.9999783,52.5032187 79.2212073,52.72635 79.4075202,53.0054722 C79.593833,53.2848714 79.6871291,53.6421588 79.6871291,54.0773343 C79.6871291,54.4326815 79.617576,54.762805 79.4787492,55.0674279 C79.3399224,55.3720507 79.1334978,55.6350963 78.8591962,55.8562874 C78.5851738,56.0777557 78.2452297,56.2498856 77.8393637,56.3732315 C77.4337772,56.4963003 76.9639448,56.5581118 76.4304252,56.5581118 C75.998861,56.5581118 75.5807045,56.5054473 75.1748386,56.4003953 C74.7689727,56.2953434 74.4108721,56.1301431 74.1002576,55.9053486 C73.7893637,55.6805541 73.5427157,55.3939481 73.3600341,55.0458077 C73.1773526,54.6973901 73.0896431,54.284112 73.0969056,53.8051418 L74.7636654,53.8051418 C74.7636654,54.0665242 74.8111515,54.2877154 74.9061235,54.4689923" id="Fill-29"></path>
                            <path d="M82.2037492,53.4842483 C82.2805649,53.7924746 82.4026319,54.0699336 82.5710677,54.3166254 C82.7392241,54.5635944 82.9584978,54.7609479 83.2288889,54.9097946 C83.49928,55.0586412 83.8283302,55.1326488 84.2160397,55.1326488 C84.6031906,55.1326488 84.9322408,55.0586412 85.2029112,54.9097946 C85.4733023,54.7609479 85.692576,54.5635944 85.8607325,54.3166254 C86.0288889,54.0699336 86.1512353,53.7924746 86.2280509,53.4842483 C86.3048665,53.1760221 86.3431347,52.8586489 86.3431347,52.5321287 C86.3431347,52.1911951 86.3048665,51.8613487 86.2280509,51.541758 C86.1512353,51.2229989 86.0288889,50.9377788 85.8607325,50.6877607 C85.692576,50.4374655 85.4733023,50.2378946 85.2029112,50.0893252 C84.9322408,49.9407557 84.6031906,49.8661938 84.2160397,49.8661938 C83.8283302,49.8661938 83.49928,49.9407557 83.2288889,50.0893252 C82.9584978,50.2378946 82.7392241,50.4374655 82.5710677,50.6877607 C82.4026319,50.9377788 82.2805649,51.2229989 82.2037492,51.541758 C82.1269336,51.8613487 82.0886654,52.1911951 82.0886654,52.5321287 C82.0886654,52.8586489 82.1269336,53.1760221 82.2037492,53.4842483 M80.6302855,50.9161586 C80.8057045,50.4194487 81.0576598,49.9859363 81.3867101,49.6158986 C81.7157604,49.2458608 82.119671,48.9559286 82.598442,48.7452704 C83.0772129,48.5351666 83.6163191,48.4301146 84.2160397,48.4301146 C84.8224643,48.4301146 85.3635258,48.5351666 85.8389448,48.7452704 C86.3138051,48.9559286 86.7160397,49.2458608 87.04509,49.6158986 C87.373861,49.9859363 87.6263749,50.4194487 87.8017939,50.9161586 C87.9769336,51.4131456 88.0646431,51.9519871 88.0646431,52.5321287 C88.0646431,53.0978569 87.9769336,53.6258883 87.8017939,54.1153914 C87.6263749,54.6048945 87.373861,55.0312002 87.04509,55.3940312 C86.7160397,55.7565851 86.3138051,56.041528 85.8389448,56.2483057 C85.3635258,56.4548061 84.8224643,56.558195 84.2160397,56.558195 C83.6163191,56.558195 83.0772129,56.4548061 82.598442,56.2483057 C82.119671,56.041528 81.7157604,55.7565851 81.3867101,55.3940312 C81.0576598,55.0312002 80.8057045,54.6048945 80.6302855,54.1153914 C80.4545872,53.6258883 80.3668777,53.0978569 80.3668777,52.5321287 C80.3668777,51.9519871 80.4545872,51.4131456 80.6302855,50.9161586" id="Fill-30"></path>
                            <path d="M94.2603414,50.6877885 C94.1578274,50.5245284 94.0298945,50.3815025 93.8765425,50.2578794 C93.7229112,50.1348107 93.5491682,50.0386286 93.3555928,49.9696103 C93.1617381,49.900592 92.9589448,49.8662215 92.7472129,49.8662215 C92.3595034,49.8662215 92.0304531,49.9407834 91.7600621,50.0893529 C91.489671,50.2379223 91.2701179,50.4374933 91.1022408,50.6877885 C90.9338051,50.9378065 90.8117381,51.2230266 90.7349224,51.5417857 C90.6581068,51.8610992 90.6198386,52.1912228 90.6198386,52.5321564 C90.6198386,52.8586766 90.6581068,53.1760499 90.7349224,53.4842761 C90.8117381,53.7925023 90.9338051,54.0699613 91.1022408,54.3166531 C91.2701179,54.563345 91.489671,54.7609756 91.7600621,54.9095451 C92.0304531,55.0586689 92.3595034,55.1326765 92.7472129,55.1326765 C93.2734699,55.1326765 93.6846431,54.9732969 93.9807325,54.6539834 C94.2768218,54.33467 94.4578274,53.9141851 94.5234699,53.3916973 L96.1902297,53.3916973 C96.1463749,53.8778743 96.0329671,54.3166531 95.8502855,54.7083111 C95.667604,55.1002462 95.4262632,55.4339731 95.1265425,55.7094919 C94.8268218,55.9850106 94.4757045,56.1953917 94.0740286,56.3406349 C93.6717939,56.485601 93.2296151,56.5582227 92.7472129,56.5582227 C92.1474922,56.5582227 91.6083861,56.4548339 91.1296151,56.2483334 C90.6508442,56.0412786 90.2469336,55.7566128 89.9178833,55.394059 C89.588833,55.0312279 89.3368777,54.6049223 89.1614587,54.1154191 C88.9857604,53.625916 88.8980509,53.0978846 88.8980509,52.5321564 C88.8980509,51.9520148 88.9857604,51.4131733 89.1614587,50.9161863 C89.3368777,50.4194764 89.588833,49.985964 89.9178833,49.6159263 C90.2469336,49.2458885 90.6508442,48.9559563 91.1296151,48.7452981 C91.6083861,48.5349171 92.1474922,48.4298652 92.7472129,48.4298652 C93.1782185,48.4298652 93.5857604,48.4916767 93.9695593,48.6147455 C94.3533582,48.7383686 94.6969336,48.9177052 95.0005649,49.153587 C95.3036375,49.3891915 95.5541962,49.681064 95.7516822,50.0294816 C95.9488889,50.377622 96.0731906,50.7764867 96.1243079,51.2263528 L94.4578274,51.2263528 C94.4284978,51.0303852 94.362576,50.8510486 94.2603414,50.6877885" id="Fill-31"></path>
                            <polygon id="Fill-32" points="97.3634699 56.3840693 99.0852576 56.3840693 99.0852576 48.6149395 97.3634699 48.6149395"></polygon>
                            <path d="M104.600732,53.3808318 L103.613861,50.5300166 L103.592073,50.5300166 L102.572241,53.3808318 L104.600732,53.3808318 Z M104.502129,48.6149672 L107.430062,56.3840971 L105.642353,56.3840971 L105.050453,54.653928 L102.12252,54.653928 L101.508554,56.3840971 L99.7761515,56.3840971 L102.736766,48.6149672 L104.502129,48.6149672 Z" id="Fill-33"></path>
                            <polygon id="Fill-34" points="106.487017 50.0511295 106.487017 48.6147732 112.901822 48.6147732 112.901822 50.0511295 110.554894 50.0511295 110.554894 56.3841802 108.833386 56.3841802 108.833386 50.0511295"></polygon>
                            <polygon id="Fill-35" points="113.8009 56.3840693 115.522408 56.3840693 115.522408 48.6149395 113.8009 48.6149395"></polygon>
                            <path d="M118.532576,53.4842483 C118.609112,53.7924746 118.731738,54.0699336 118.899894,54.3166254 C119.068051,54.5635944 119.287325,54.7609479 119.557716,54.9097946 C119.828386,55.0586412 120.157157,55.1326488 120.544587,55.1326488 C120.932297,55.1326488 121.261347,55.0586412 121.531459,54.9097946 C121.80185,54.7609479 122.021124,54.5635944 122.189559,54.3166254 C122.357436,54.0699336 122.480341,53.7924746 122.556878,53.4842483 C122.633693,53.1760221 122.671962,52.8586489 122.671962,52.5321287 C122.671962,52.1911951 122.633693,51.8613487 122.556878,51.541758 C122.480341,51.2229989 122.357436,50.9377788 122.189559,50.6877607 C122.021124,50.4374655 121.80185,50.2378946 121.531459,50.0893252 C121.261347,49.9407557 120.932297,49.8661938 120.544587,49.8661938 C120.157157,49.8661938 119.828386,49.9407557 119.557716,50.0893252 C119.287325,50.2378946 119.068051,50.4374655 118.899894,50.6877607 C118.731738,50.9377788 118.609112,51.2229989 118.532576,51.541758 C118.45576,51.8613487 118.417492,52.1911951 118.417492,52.5321287 C118.417492,52.8586489 118.45576,53.1760221 118.532576,53.4842483 M116.958833,50.9161586 C117.134531,50.4194487 117.386487,49.9859363 117.715537,49.6158986 C118.044587,49.2458608 118.448218,48.9559286 118.927269,48.7452704 C119.40604,48.5351666 119.945425,48.4301146 120.544587,48.4301146 C121.15157,48.4301146 121.692353,48.5351666 122.167772,48.7452704 C122.642911,48.9559286 123.044867,49.2458608 123.373917,49.6158986 C123.702967,49.9859363 123.954922,50.4194487 124.130341,50.9161586 C124.30604,51.4131456 124.39347,51.9519871 124.39347,52.5321287 C124.39347,53.0978569 124.30604,53.6258883 124.130341,54.1153914 C123.954922,54.6048945 123.702967,55.0312002 123.373917,55.3940312 C123.044867,55.7565851 122.642911,56.041528 122.167772,56.2483057 C121.692353,56.4548061 121.15157,56.558195 120.544587,56.558195 C119.945425,56.558195 119.40604,56.4548061 118.927269,56.2483057 C118.448218,56.041528 118.044587,55.7565851 117.715537,55.3940312 C117.386487,55.0312002 117.134531,54.6048945 116.958833,54.1153914 C116.783414,53.6258883 116.695984,53.0978569 116.695984,52.5321287 C116.695984,51.9519871 116.783414,51.4131456 116.958833,50.9161586" id="Fill-36"></path>
                            <polygon id="Fill-37" points="127.277716 48.6148841 130.545313 53.8270114 130.567101 53.8270114 130.567101 48.6148841 132.179392 48.6148841 132.179392 56.3840139 130.457604 56.3840139 127.2009 51.1829738 127.178833 51.1829738 127.178833 56.3840139 125.567101 56.3840139 125.567101 48.6148841"></polygon>
                        </g>
                        <g id="Group-41">
                            <path d="M0,52.952093 C17.768442,-17.3751628 49.6796127,11.264093 49.6796127,11.264093 C41.7646679,3.27683721 35.0407747,0.0725581395 29.3416363,0.0736744186 C6.19552576,0.0781395349 0,52.952093 0,52.952093" id="Fill-39"></path>
                        </g>
                    </g>
                </g>
            </g>
        </g>
    </g>
</svg>