<?xml version="1.0" encoding="utf-8"?>
<!-- Generator: Adobe Illustrator 22.1.0, SVG Export Plug-In . SVG Version: 6.00 Build 0)  -->
<svg version="1.1" id="Ebene_1" xmlns="http://www.w3.org/2000/svg" xmlns:xlink="http://www.w3.org/1999/xlink" x="0px" y="0px"
	 viewBox="0 0 156.6 56.4" style="enable-background:new 0 0 156.6 56.4;" xml:space="preserve">
<style type="text/css">
	.st0{fill:#E63329;}
</style>
<g>
	<g>
		<path class="st0" d="M26.9,29.6l-3.2-9.4h-0.1l-3.3,9.4H26.9z M26.6,13.8l9.6,25.7h-5.9l-1.9-5.7h-9.6l-2,5.7h-5.7l9.7-25.7
			C20.8,13.8,26.6,13.8,26.6,13.8z"/>
		<path class="st0" d="M48.8,27.9c-0.1-0.7-0.4-1.3-0.7-1.9c-0.3-0.5-0.8-1-1.3-1.3c-0.7-0.3-1.4-0.5-2.2-0.5s-1.5,0.2-2.1,0.5
			s-1,0.8-1.4,1.3c-0.3,0.6-0.6,1.2-0.8,1.9c-0.1,0.8-0.2,1.5-0.2,2.3c0,0.7,0.1,1.4,0.3,2.2c0.2,0.7,0.4,1.4,0.8,1.9
			c0.4,0.6,0.8,1,1.4,1.4c0.6,0.3,1.2,0.5,2,0.5s1.5-0.2,2.1-0.5s1-0.8,1.3-1.3c0.3-0.6,0.6-1.2,0.7-1.9c0.1-0.7,0.2-1.5,0.2-2.2
			C49,29.4,48.9,28.6,48.8,27.9 M49,37.1c-0.6,1-1.4,1.7-2.4,2.2c-1,0.4-2.1,0.7-3.3,0.7c-1.4,0-2.6-0.3-3.7-0.8
			c-1.1-0.5-1.9-1.3-2.6-2.2c-0.7-0.9-1.2-2-1.5-3.2S35,31.4,35,30.1c0-1.2,0.2-2.5,0.5-3.6c0.3-1.2,0.9-2.2,1.5-3.1
			c0.7-0.9,1.5-1.6,2.6-2.1c1-0.5,2.2-0.8,3.6-0.8c1.1,0,2.2,0.2,3.1,0.7c1,0.5,1.8,1.2,2.4,2.1h0.1v-9.4h5.1v25.7H49L49,37.1
			L49,37.1z"/>
		<polygon class="st0" points="60.9,39.5 54.5,20.9 59.9,20.9 63.8,33.6 63.9,33.6 67.8,20.9 72.9,20.9 66.6,39.5 		"/>
		<path class="st0" d="M84.4,30.8c-0.3,0.1-0.7,0.2-1,0.3c-0.5,0.1-0.8,0.1-1.3,0.2c-0.4,0-0.8,0.1-1.2,0.2
			c-0.4,0.1-0.8,0.2-1.1,0.3c-0.4,0.1-0.7,0.3-1,0.5s-0.5,0.5-0.7,0.8s-0.3,0.7-0.3,1.2s0.1,0.8,0.3,1.1c0.2,0.3,0.4,0.6,0.7,0.7
			c0.3,0.2,0.6,0.3,1,0.4c0.4,0.1,0.8,0.1,1.2,0.1c1,0,1.8-0.2,2.3-0.5c0.6-0.3,1-0.7,1.2-1.2c0.3-0.5,0.4-0.9,0.5-1.4
			s0.1-0.9,0.1-1.2v-1.9C84.9,30.6,84.7,30.7,84.4,30.8 M74.3,23.6c0.5-0.8,1.2-1.4,2-1.9s1.7-0.8,2.8-1c1-0.2,2-0.3,3.1-0.3
			c0.9,0,1.9,0.1,2.8,0.2c1,0.1,1.8,0.4,2.6,0.8c0.8,0.4,1.4,0.9,1.9,1.6s0.8,1.6,0.8,2.7v9.7c0,0.8,0,1.6,0.1,2.4
			c0.1,0.8,0.3,1.3,0.5,1.7h-5.2c-0.1-0.3-0.2-0.6-0.2-0.9c-0.1-0.3-0.1-0.6-0.1-0.9c-0.8,0.8-1.8,1.4-2.9,1.8
			c-1.1,0.3-2.2,0.5-3.4,0.5c-0.9,0-1.7-0.1-2.5-0.3s-1.4-0.6-2-1c-0.6-0.5-1-1-1.3-1.7s-0.5-1.5-0.5-2.5c0-1.1,0.2-1.9,0.6-2.6
			c0.4-0.7,0.9-1.2,1.4-1.6c0.6-0.4,1.3-0.7,2-0.9c0.8-0.2,1.5-0.4,2.3-0.5s1.5-0.2,2.3-0.3c0.7-0.1,1.4-0.2,2-0.3s1-0.4,1.4-0.6
			c0.3-0.3,0.5-0.7,0.5-1.2c0-0.6-0.1-1-0.3-1.3c-0.2-0.3-0.4-0.6-0.7-0.8c-0.3-0.2-0.6-0.3-1-0.4s-0.8-0.1-1.3-0.1
			c-1,0-1.8,0.2-2.4,0.6s-0.9,1.2-1,2.2h-5.1C73.4,25.4,73.7,24.4,74.3,23.6"/>
		<path class="st0" d="M97.7,20.9v2.6h0.1c0.6-1.1,1.5-1.9,2.5-2.4s2.1-0.7,3.2-0.7c1.4,0,2.5,0.2,3.4,0.6s1.6,0.9,2.1,1.5
			c0.5,0.7,0.9,1.5,1.1,2.4s0.3,2,0.3,3.1v11.4h-5.3V29c0-1.5-0.2-2.7-0.7-3.4c-0.5-0.8-1.3-1.1-2.6-1.1c-1.4,0-2.4,0.4-3,1.2
			c-0.6,0.8-0.9,2.2-0.9,4.1v9.8h-5.1V20.9H97.7z"/>
		<path class="st0" d="M120.9,24.2c-0.8,0-1.5,0.2-2.1,0.6s-1,0.9-1.3,1.4c-0.3,0.6-0.6,1.2-0.7,1.9s-0.2,1.4-0.2,2.1
			c0,0.7,0.1,1.4,0.2,2.1c0.1,0.7,0.4,1.3,0.7,1.9c0.3,0.6,0.8,1,1.3,1.4c0.6,0.4,1.2,0.5,2,0.5c1.2,0,2.2-0.3,2.8-1
			c0.7-0.7,1.1-1.6,1.2-2.8h4.9c-0.3,2.5-1.3,4.4-2.9,5.6c-1.6,1.3-3.6,1.9-6.1,1.9c-1.4,0-2.7-0.2-3.8-0.7c-1.2-0.5-2.2-1.1-3-2
			c-0.8-0.8-1.5-1.8-1.9-3c-0.5-1.2-0.7-2.4-0.7-3.8c0-1.4,0.2-2.8,0.6-4s1-2.3,1.9-3.2c0.8-0.9,1.8-1.6,3-2.1s2.5-0.8,4-0.8
			c1.1,0,2.2,0.1,3.2,0.4s1.9,0.7,2.7,1.3c0.8,0.6,1.5,1.3,2,2.2c0.5,0.9,0.8,1.9,0.9,3.1h-5C124.3,25.3,123,24.2,120.9,24.2"/>
		<path class="st0" d="M142.4,25.2c-0.6-0.7-1.5-1-2.8-1c-0.8,0-1.5,0.1-2,0.4s-1,0.6-1.3,1s-0.6,0.8-0.7,1.3
			c-0.1,0.5-0.2,0.9-0.2,1.2h8.3C143.5,26.9,143,25.9,142.4,25.2 M136.7,35c0.8,0.7,1.9,1.1,3.3,1.1c1,0,1.9-0.3,2.7-0.8
			c0.7-0.5,1.2-1.1,1.4-1.6h4.5c-0.7,2.2-1.8,3.8-3.3,4.8s-3.3,1.4-5.4,1.4c-1.5,0-2.8-0.2-4-0.7s-2.2-1.1-3-2s-1.4-1.9-1.9-3.1
			c-0.4-1.2-0.7-2.5-0.7-4c0-1.4,0.2-2.7,0.7-3.9c0.5-1.2,1.1-2.2,1.9-3.1c0.8-0.9,1.8-1.6,3-2.1s2.5-0.8,3.9-0.8
			c1.6,0,3,0.3,4.1,0.9c1.2,0.6,2.1,1.4,2.9,2.5c0.8,1,1.3,2.2,1.6,3.5s0.5,2.7,0.4,4.1h-13.4C135.5,33.1,135.9,34.3,136.7,35"/>
		<path class="st0" d="M0,39.9c0,0,7.3-62,37.7-31.5C37.6,8.4,13.4-13.2,0,39.9"/>
	</g>
	<g>
		<path class="st0" d="M5.8,49.5c-0.4-0.4-1.1-0.7-1.7-0.7c-1.5,0-2.6,1.2-2.6,2.7s1.2,2.7,2.6,2.7c1.2,0,2.1-0.7,2.2-1.8h-2v-1h3.3
			c0,2.6-1.4,3.8-3.5,3.8s-3.7-1.7-3.7-3.7c0-2.1,1.6-3.8,3.7-3.8c1,0,1.9,0.4,2.5,1L5.8,49.5z"/>
		<path class="st0" d="M8.9,47.9h4.4v1H10v2.2h2.9v1H10v2h3.4v1H8.9C8.9,55.1,8.9,47.9,8.9,47.9z"/>
		<path class="st0" d="M20.2,55.2h-1.1L16,50v5.2h-1.1v-7.3H16l3.1,5.2v-5.2h1.1V55.2z"/>
		<path class="st0" d="M22.1,55.2v-7.3h2.8c2.1,0,3.3,1.6,3.3,3.7c0,2.1-1.2,3.6-3.3,3.6H22.1z M23.3,54.1H25c1.4,0,2.2-1.1,2.2-2.6
			s-0.7-2.6-2.2-2.6h-1.7V54.1z"/>
		<path class="st0" d="M29.8,47.9h4.4v1h-3.3v2.2h2.9v1h-2.9v2h3.4v1h-4.5C29.8,55.1,29.8,47.9,29.8,47.9z"/>
		<path class="st0" d="M40.9,55.2h-1.4l-1.8-2.7h-0.8v2.7h-1.1v-7.3h2.9c1.6,0,2.2,1.2,2.2,2.3s-0.5,2.1-1.9,2.3L40.9,55.2z
			 M36.9,48.9v2.6h1.6c0.8,0,1.1-0.6,1.1-1.3c0-0.6-0.3-1.3-1.1-1.3H36.9z"/>
		<path class="st0" d="M45.1,47.9h4.4v1h-3.3v2.2h2.9v1h-2.9v2h3.4v1h-4.5V47.9z"/>
		<path class="st0" d="M57,55.9l-0.9,0.5l-0.8-1.3c-0.4,0.1-0.7,0.2-1.1,0.2c-2.1,0-3.7-1.7-3.7-3.7c0-2.1,1.6-3.8,3.7-3.8
			c2.1,0,3.7,1.7,3.7,3.8c0,1.3-0.7,2.5-1.7,3.2L57,55.9z M55.6,53.7c0.7-0.5,1.2-1.3,1.2-2.2c0-1.5-1.1-2.7-2.6-2.7
			s-2.6,1.2-2.6,2.7c0,1.4,1,2.5,2.3,2.6c0.3,0,0.5,0,0.8,0L54,53l0.8-0.5L55.6,53.7z"/>
		<path class="st0" d="M63.6,52.6v-4.8h1.1v4.8c0,1.6-1.3,2.6-2.7,2.6c-1.5,0-2.7-1-2.7-2.6v-4.8h1.1v4.8c0,0.9,0.7,1.6,1.6,1.6
			C62.8,54.2,63.6,53.6,63.6,52.6z"/>
		<path class="st0" d="M70.4,53.3h-3l-0.6,1.9h-1.2l2.8-7.3h1.2l2.8,7.3h-1.3L70.4,53.3z M67.8,52.3H70l-1.1-3.1L67.8,52.3z"/>
		<path class="st0" d="M73.3,47.9h1.1v6.3h2.9v1h-4.1L73.3,47.9L73.3,47.9z"/>
		<path class="st0" d="M78.6,47.9h1.1v7.3h-1.1V47.9z"/>
		<path class="st0" d="M81,47.9h5.5V49h-2.2v6.2h-1.2v-6.3h-2.2L81,47.9L81,47.9z"/>
		<path class="st0" d="M89.5,55.2v-3.4l-2.8-4h1.4l2,2.9l2-2.9h1.3l-2.8,4v3.4H89.5z"/>
		<path class="st0" d="M96.7,47.9h1.1v7.3h-1.1V47.9z"/>
		<path class="st0" d="M105.1,55.2H104l-3.1-5.2v5.2h-1.1v-7.3h1.1l3.1,5.2v-5.2h1.1V55.2z"/>
		<path class="st0" d="M113.5,51.3c0.9,0.2,1.3,1.1,1.3,1.8c0,1.2-0.8,2.1-2.2,2.1h-3v-7.3h2.8c1.2,0,2,0.7,2,1.9
			C114.5,50.4,114.3,51,113.5,51.3z M112.4,50.9c0.6,0,0.9-0.5,0.9-1c0-0.6-0.4-0.9-1-0.9h-1.6v2L112.4,50.9L112.4,50.9z
			 M110.8,51.8v2.3h1.8c0.7,0,1.1-0.6,1.1-1.1s-0.4-1.2-1.1-1.2H110.8z"/>
		<path class="st0" d="M120.5,52.6v-4.8h1.1v4.8c0,1.6-1.3,2.6-2.7,2.6c-1.5,0-2.7-1-2.7-2.6v-4.8h1.1v4.8c0,0.9,0.7,1.6,1.6,1.6
			S120.5,53.6,120.5,52.6z"/>
		<path class="st0" d="M124.2,53c0,0.6,0.6,1.2,1.5,1.2s1.3-0.5,1.4-1c0-0.7-0.5-1-1.2-1.2l-0.9-0.2c-1.6-0.4-1.8-1.3-1.8-2
			c0-1.3,1.1-2.1,2.4-2.1c1.3,0,2.4,0.8,2.4,2.2c-0.3,0-0.9,0-1.1,0c0-0.7-0.5-1.1-1.3-1.1c-0.7,0-1.3,0.4-1.3,1c0,0.3,0.1,0.7,1,1
			l0.9,0.2c1.5,0.4,2.1,1.2,2,2.3s-1.1,2-2.5,2c-1.5,0-2.6-1-2.6-2.2h1.1V53z"/>
		<path class="st0" d="M129.6,47.9h1.1v7.3h-1.1V47.9z"/>
		<path class="st0" d="M138,55.2h-1.1l-3.1-5.2v5.2h-1.1v-7.3h1.1l3.1,5.2v-5.2h1.1V55.2z"/>
		<path class="st0" d="M139.9,47.9h4.4v1H141v2.2h2.9v1H141v2h3.4v1h-4.5L139.9,47.9L139.9,47.9z"/>
		<path class="st0" d="M146.5,53c0,0.6,0.6,1.2,1.5,1.2s1.3-0.5,1.4-1c0-0.7-0.5-1-1.2-1.2l-0.9-0.2c-1.6-0.4-1.8-1.3-1.8-2
			c0-1.3,1.1-2.1,2.4-2.1c1.3,0,2.4,0.8,2.4,2.2c-0.3,0-0.9,0-1.1,0c0-0.7-0.5-1.1-1.3-1.1c-0.7,0-1.3,0.4-1.3,1c0,0.3,0.1,0.7,1,1
			l0.9,0.2c1.5,0.4,2.1,1.2,2,2.3s-1.1,2-2.5,2c-1.5,0-2.6-1-2.6-2.2h1.1V53z"/>
		<path class="st0" d="M152.6,53c0,0.6,0.6,1.2,1.5,1.2s1.3-0.5,1.4-1c0-0.7-0.5-1-1.2-1.2l-0.9-0.2c-1.6-0.4-1.8-1.3-1.8-2
			c0-1.3,1.1-2.1,2.4-2.1c1.3,0,2.4,0.8,2.4,2.2c-0.3,0-0.9,0-1.1,0c0-0.7-0.5-1.1-1.3-1.1c-0.7,0-1.3,0.4-1.3,1c0,0.3,0.1,0.7,1,1
			l0.9,0.2c1.5,0.4,2.1,1.2,2,2.3s-1.1,2-2.5,2c-1.5,0-2.6-1-2.6-2.2h1.1V53z"/>
	</g>
</g>
</svg>
