<svg xmlns="http://www.w3.org/2000/svg" viewBox="0 0 1360.64 441.23"><defs><style>.a{fill:#fff;}</style></defs><title>LOGO Advance_red</title><path class="a" d="M210.51,111.44l73,195.13H238.93l-14.76-43.46h-73l-15.3,43.46H92.72l73.79-195.13ZM213,231.14l-24.6-71.6h-.55l-25.41,71.6Z" transform="translate(-2.36 -5.33)"/><path class="a" d="M383,288.53a40.1,40.1,0,0,1-17.9,16.53,59.57,59.57,0,0,1-25,5.06q-15.85,0-27.87-6.15a56,56,0,0,1-19.82-16.67,75.54,75.54,0,0,1-11.75-24.19,101.52,101.52,0,0,1-4-28.42,95.43,95.43,0,0,1,4-27.46,71.47,71.47,0,0,1,11.75-23.37,58.73,58.73,0,0,1,19.54-16.26q11.75-6.15,27.33-6.15a55.59,55.59,0,0,1,23.91,5.33A41.73,41.73,0,0,1,381,182.5h.55V111.44h38.8V306.57H383.49v-18Zm-1.64-69.82a41.13,41.13,0,0,0-5.61-14.21,31.6,31.6,0,0,0-10.24-10q-6.3-3.83-15.85-3.83t-16.13,3.83A30.25,30.25,0,0,0,323,204.63,44.78,44.78,0,0,0,317.22,219a77.54,77.54,0,0,0-1.77,16.81,71.62,71.62,0,0,0,1.91,16.39,44.48,44.48,0,0,0,6.15,14.62,33.87,33.87,0,0,0,10.66,10.39,28.8,28.8,0,0,0,15.44,4q9.56,0,16-3.83a29,29,0,0,0,10.25-10.24,46.14,46.14,0,0,0,5.47-14.62,86.46,86.46,0,0,0,1.64-17A84.28,84.28,0,0,0,381.31,218.71Z" transform="translate(-2.36 -5.33)"/><path class="a" d="M470.94,306.57,422.57,165.28h40.72l29.78,96.47h.55l29.79-96.47h38.53L514.12,306.57Z" transform="translate(-2.36 -5.33)"/><path class="a" d="M562.76,208.73q.82-13.66,6.83-22.68a46.54,46.54,0,0,1,15.3-14.48,66.49,66.49,0,0,1,20.91-7.79,118.71,118.71,0,0,1,23.36-2.33A158.69,158.69,0,0,1,650.75,163a66.09,66.09,0,0,1,20,5.87A39.28,39.28,0,0,1,685.46,181q5.74,7.8,5.74,20.64v73.51a147.37,147.37,0,0,0,1.09,18.31q1.1,8.74,3.83,13.12H656.77a54.59,54.59,0,0,1-1.78-6.7,57,57,0,0,1-1-7,50.5,50.5,0,0,1-21.86,13.39,87.76,87.76,0,0,1-25.69,3.83,69.35,69.35,0,0,1-18.85-2.46A43.22,43.22,0,0,1,572.32,300a35.6,35.6,0,0,1-10.25-13.12A44.5,44.5,0,0,1,558.39,268q0-12,4.23-19.81a35.44,35.44,0,0,1,10.93-12.43,49,49,0,0,1,15.31-7,162.79,162.79,0,0,1,17.35-3.69q8.74-1.37,17.22-2.19a102.06,102.06,0,0,0,15-2.46,26.08,26.08,0,0,0,10.38-4.78q3.82-3.13,3.55-9.16,0-6.27-2-10a15.09,15.09,0,0,0-5.46-5.74A21.71,21.71,0,0,0,637,188.1a65.53,65.53,0,0,0-9.7-.68q-11.47,0-18,4.91t-7.66,16.4Zm89.63,28.7a17.41,17.41,0,0,1-6.14,3.41,63.64,63.64,0,0,1-7.93,2q-4.25.83-8.88,1.37t-9.29,1.36a70.5,70.5,0,0,0-8.61,2.19,25.26,25.26,0,0,0-7.38,3.69,17.62,17.62,0,0,0-5.06,5.87,19,19,0,0,0-1.91,9,18.32,18.32,0,0,0,1.91,8.75,14.7,14.7,0,0,0,5.2,5.6,21.82,21.82,0,0,0,7.65,2.87,48.5,48.5,0,0,0,9,.82q11.47,0,17.76-3.83a25.64,25.64,0,0,0,9.29-9.15,29.41,29.41,0,0,0,3.69-10.8,75,75,0,0,0,.68-8.74Z" transform="translate(-2.36 -5.33)"/><path class="a" d="M744.49,165.28V185h.82q7.38-12.3,19.13-17.9a55.24,55.24,0,0,1,24-5.61q15.57,0,25.55,4.24a38,38,0,0,1,15.71,11.75,45.48,45.48,0,0,1,8.06,18.31,113.8,113.8,0,0,1,2.33,23.91v86.91H801.33v-79.8q0-17.49-5.47-26.1t-19.4-8.61q-15.86,0-23,9.43t-7.11,31v74.06H707.59V165.28Z" transform="translate(-2.36 -5.33)"/><path class="a" d="M923.48,190.69q-9.3,0-15.58,4.24a33.72,33.72,0,0,0-10.24,10.93,47.31,47.31,0,0,0-5.61,14.76,80.3,80.3,0,0,0-1.64,16,76.89,76.89,0,0,0,1.64,15.57,48.3,48.3,0,0,0,5.33,14.35,30.53,30.53,0,0,0,10,10.52,27.43,27.43,0,0,0,15.3,4.1q13.94,0,21.45-7.79t9.43-20.9H991q-3.83,28.14-21.86,42.9t-46.19,14.76a77.36,77.36,0,0,1-29.1-5.33,64.61,64.61,0,0,1-22.55-14.89,68,68,0,0,1-14.48-22.82A79.19,79.19,0,0,1,851.61,238a94.11,94.11,0,0,1,4.78-30.47,68.63,68.63,0,0,1,14.07-24.32,64.56,64.56,0,0,1,22.69-16q13.38-5.73,30.6-5.74a88.9,88.9,0,0,1,24.19,3.28,64.82,64.82,0,0,1,20.77,10,53.3,53.3,0,0,1,14.89,16.67q5.74,10,6.56,23.64h-38Q948.35,190.69,923.48,190.69Z" transform="translate(-2.36 -5.33)"/><path class="a" d="M1040.72,272.68q8.73,8.47,25.14,8.47,11.75,0,20.22-5.88t10.38-12.43h34.16q-8.19,25.41-25.14,36.35t-41,10.93a80.73,80.73,0,0,1-30.06-5.33,62.39,62.39,0,0,1-22.68-15.17,68.17,68.17,0,0,1-14.35-23.5,86,86,0,0,1-5.06-30.06,82.32,82.32,0,0,1,5.2-29.52,68.31,68.31,0,0,1,37.57-39.35,73.3,73.3,0,0,1,29.38-5.74q18,0,31.43,7a62.88,62.88,0,0,1,22,18.72,77,77,0,0,1,12.43,26.78,99.77,99.77,0,0,1,2.73,31.43H1031.15Q1032,264.21,1040.72,272.68Zm43.86-74.33q-7-7.65-21.18-7.66-9.3,0-15.44,3.15a29.31,29.31,0,0,0-9.84,7.79,28.57,28.57,0,0,0-5.19,9.83,44,44,0,0,0-1.78,9.29h63.13Q1091.55,206,1084.58,198.35Z" transform="translate(-2.36 -5.33)"/><path class="a" d="M10.75,372l16.6,64h.2l17.83-64h8.71L72,436h.21l16.7-64h7L75.71,445.12H68.33L49.79,379.64h-.21L31.14,445.12H23.55L3.27,372Z" transform="translate(-2.36 -5.33)"/><path class="a" d="M101.84,394.09A36.05,36.05,0,0,1,108.3,382a30.92,30.92,0,0,1,10.81-8.4,34.39,34.39,0,0,1,15.11-3.13,34.08,34.08,0,0,1,15.06,3.13A31.1,31.1,0,0,1,160,382a36.23,36.23,0,0,1,6.46,12.14,49.63,49.63,0,0,1,0,28.9A35.52,35.52,0,0,1,160,435.08a31.46,31.46,0,0,1-10.76,8.35,34.22,34.22,0,0,1-15.06,3.13,34.53,34.53,0,0,1-15.11-3.13,31.27,31.27,0,0,1-10.81-8.35A35.35,35.35,0,0,1,101.84,423a49.63,49.63,0,0,1,0-28.9Zm6.4,26.18a31.53,31.53,0,0,0,4.92,10.35,24.79,24.79,0,0,0,8.56,7.33,26.42,26.42,0,0,0,12.5,2.77A26.13,26.13,0,0,0,146.67,438a25,25,0,0,0,8.5-7.33,31.53,31.53,0,0,0,4.92-10.35,44.25,44.25,0,0,0,0-23.51,31.56,31.56,0,0,0-4.92-10.3,25,25,0,0,0-8.5-7.33,26.13,26.13,0,0,0-12.45-2.76,26.42,26.42,0,0,0-12.5,2.76,24.79,24.79,0,0,0-8.56,7.33,31.56,31.56,0,0,0-4.92,10.3,44.52,44.52,0,0,0,0,23.51Z" transform="translate(-2.36 -5.33)"/><path class="a" d="M189.55,372l24.29,64.14L239,372h10.25v73.16h-7V381.9h-.2l-25,63.22h-6.56L186.48,381.9h-.21v63.22h-7V372Z" transform="translate(-2.36 -5.33)"/><path class="a" d="M314.15,372v5.94H270.6v26.44h40.79v5.94H270.6v28.9h44.06v5.94h-51V372Z" transform="translate(-2.36 -5.33)"/><path class="a" d="M332.08,372l42.63,61.89h.21V372h7v73.16H374.1l-42.63-61.89h-.21v61.89h-7V372Z" transform="translate(-2.36 -5.33)"/><path class="a" d="M432.5,372v73.16h-7V372Z" transform="translate(-2.36 -5.33)"/><path class="a" d="M455.45,372l42.63,61.89h.2V372h7v73.16h-7.78l-42.63-61.89h-.21v61.89h-7V372Z" transform="translate(-2.36 -5.33)"/><path class="a" d="M553.41,430.47a15.42,15.42,0,0,0,5.07,6,21.11,21.11,0,0,0,7.64,3.23,43.5,43.5,0,0,0,9.42,1,26.93,26.93,0,0,0,6.25-.82,21.77,21.77,0,0,0,6.31-2.62,16,16,0,0,0,4.86-4.61,11.68,11.68,0,0,0,1.95-6.81,10,10,0,0,0-1.38-5.33,12.59,12.59,0,0,0-3.59-3.79,20.94,20.94,0,0,0-4.87-2.51,47.47,47.47,0,0,0-5.22-1.59l-16.29-4a47.38,47.38,0,0,1-6.2-2.05,17.5,17.5,0,0,1-5.28-3.28,15.42,15.42,0,0,1-3.64-5,17.18,17.18,0,0,1-1.38-7.27,23.28,23.28,0,0,1,1-6.25,17.38,17.38,0,0,1,3.85-6.77,22.38,22.38,0,0,1,7.73-5.38,31.17,31.17,0,0,1,12.61-2.2,36.54,36.54,0,0,1,10.34,1.44,25.41,25.41,0,0,1,8.61,4.3,20.75,20.75,0,0,1,8.1,17h-7a17,17,0,0,0-1.9-7.33,16.27,16.27,0,0,0-4.4-5.22,19.42,19.42,0,0,0-6.25-3.18,25.33,25.33,0,0,0-7.43-1.07,30.83,30.83,0,0,0-6.92.76,17.59,17.59,0,0,0-5.84,2.46,12.9,12.9,0,0,0-4.05,4.46,14,14,0,0,0-1.53,6.87,10.58,10.58,0,0,0,.87,4.45,9.42,9.42,0,0,0,2.4,3.23,12.65,12.65,0,0,0,3.54,2.15,27.41,27.41,0,0,0,4.25,1.34l17.83,4.4a50.88,50.88,0,0,1,7.33,2.51,24.1,24.1,0,0,1,6,3.69,15.46,15.46,0,0,1,4.1,5.38,18.06,18.06,0,0,1,1.49,7.69,28.05,28.05,0,0,1-.26,3.27,16.49,16.49,0,0,1-1.23,4.36,21.81,21.81,0,0,1-2.76,4.66,17.5,17.5,0,0,1-4.92,4.25,28.51,28.51,0,0,1-7.74,3.08,45.42,45.42,0,0,1-11.06,1.18,46.11,46.11,0,0,1-12-1.49,25.75,25.75,0,0,1-9.43-4.56,20.07,20.07,0,0,1-6-7.89A25.94,25.94,0,0,1,544.7,421h7A20.58,20.58,0,0,0,553.41,430.47Z" transform="translate(-2.36 -5.33)"/><path class="a" d="M613.05,372l16.6,64h.2l17.83-64h8.71l17.93,64h.21l16.7-64h7L678,445.12h-7.37l-18.55-65.48h-.21l-18.44,65.48h-7.58L605.57,372Z" transform="translate(-2.36 -5.33)"/><path class="a" d="M713.36,372v73.16h-7V372Z" transform="translate(-2.36 -5.33)"/><path class="a" d="M733.65,430.47a15.42,15.42,0,0,0,5.07,6,21.11,21.11,0,0,0,7.64,3.23,43.5,43.5,0,0,0,9.42,1,27.07,27.07,0,0,0,6.26-.82,21.83,21.83,0,0,0,6.3-2.62,16,16,0,0,0,4.86-4.61,11.68,11.68,0,0,0,1.95-6.81,10,10,0,0,0-1.38-5.33,12.59,12.59,0,0,0-3.59-3.79,20.94,20.94,0,0,0-4.87-2.51,47.47,47.47,0,0,0-5.22-1.59l-16.29-4a47.38,47.38,0,0,1-6.2-2.05,17.5,17.5,0,0,1-5.28-3.28,15.42,15.42,0,0,1-3.64-5A17.18,17.18,0,0,1,727.3,391a23.28,23.28,0,0,1,1-6.25,17.38,17.38,0,0,1,3.85-6.77,22.38,22.38,0,0,1,7.73-5.38,31.15,31.15,0,0,1,12.6-2.2,36.61,36.61,0,0,1,10.35,1.44,25.41,25.41,0,0,1,8.61,4.3,20.75,20.75,0,0,1,8.1,17h-7a17,17,0,0,0-1.9-7.33,16.27,16.27,0,0,0-4.4-5.22,19.42,19.42,0,0,0-6.25-3.18,25.33,25.33,0,0,0-7.43-1.07,30.83,30.83,0,0,0-6.92.76,17.59,17.59,0,0,0-5.84,2.46,12.9,12.9,0,0,0-4.05,4.46,14,14,0,0,0-1.53,6.87,10.58,10.58,0,0,0,.87,4.45,9.32,9.32,0,0,0,2.41,3.23,12.46,12.46,0,0,0,3.53,2.15,27.41,27.41,0,0,0,4.25,1.34l17.83,4.4a50.88,50.88,0,0,1,7.33,2.51,24.1,24.1,0,0,1,6,3.69,15.46,15.46,0,0,1,4.1,5.38,18.06,18.06,0,0,1,1.49,7.69,28.05,28.05,0,0,1-.26,3.27,16.49,16.49,0,0,1-1.23,4.36,21.81,21.81,0,0,1-2.76,4.66A17.5,17.5,0,0,1,773,442.3a28.51,28.51,0,0,1-7.74,3.08,45.45,45.45,0,0,1-11.07,1.18,46,46,0,0,1-12-1.49,25.75,25.75,0,0,1-9.43-4.56,20.07,20.07,0,0,1-6-7.89A25.94,25.94,0,0,1,724.94,421h7A20.58,20.58,0,0,0,733.65,430.47Z" transform="translate(-2.36 -5.33)"/><path class="a" d="M798.2,430.47a15.36,15.36,0,0,0,5.08,6,21,21,0,0,0,7.63,3.23,43.59,43.59,0,0,0,9.43,1,27.06,27.06,0,0,0,6.25-.82,21.83,21.83,0,0,0,6.3-2.62,16,16,0,0,0,4.87-4.61,11.75,11.75,0,0,0,1.94-6.81,10,10,0,0,0-1.38-5.33,12.59,12.59,0,0,0-3.59-3.79,21.07,21.07,0,0,0-4.86-2.51,47.62,47.62,0,0,0-5.23-1.59l-16.29-4a47.38,47.38,0,0,1-6.2-2.05,17.5,17.5,0,0,1-5.28-3.28,15.4,15.4,0,0,1-3.63-5,17,17,0,0,1-1.39-7.27,22.94,22.94,0,0,1,1-6.25,17.36,17.36,0,0,1,3.84-6.77,22.57,22.57,0,0,1,7.73-5.38,31.17,31.17,0,0,1,12.61-2.2,36.66,36.66,0,0,1,10.35,1.44,25.41,25.41,0,0,1,8.61,4.3,21.47,21.47,0,0,1,5.89,7.12,21.2,21.2,0,0,1,2.2,9.89h-7a17.14,17.14,0,0,0-1.89-7.33,16.42,16.42,0,0,0-4.41-5.22,19.31,19.31,0,0,0-6.25-3.18,25.29,25.29,0,0,0-7.43-1.07,30.83,30.83,0,0,0-6.92.76,17.68,17.68,0,0,0-5.84,2.46,12.77,12.77,0,0,0-4,4.46,13.93,13.93,0,0,0-1.54,6.87,10.58,10.58,0,0,0,.87,4.45,9.32,9.32,0,0,0,2.41,3.23,12.46,12.46,0,0,0,3.53,2.15,27.53,27.53,0,0,0,4.26,1.34l17.83,4.4A51.17,51.17,0,0,1,835,409a24.34,24.34,0,0,1,6.05,3.69,15.71,15.71,0,0,1,4.1,5.38,18.06,18.06,0,0,1,1.48,7.69,28.05,28.05,0,0,1-.26,3.27,16.83,16.83,0,0,1-1.22,4.36,21.87,21.87,0,0,1-2.77,4.66,17.5,17.5,0,0,1-4.92,4.25,28.44,28.44,0,0,1-7.73,3.08,45.56,45.56,0,0,1-11.07,1.18,46.11,46.11,0,0,1-12-1.49,25.83,25.83,0,0,1-9.43-4.56,20,20,0,0,1-6-7.89,25.93,25.93,0,0,1-1.8-11.58h7A20.71,20.71,0,0,0,798.2,430.47Z" transform="translate(-2.36 -5.33)"/><path class="a" d="M917.17,372a44.08,44.08,0,0,1,8.86.87,21.4,21.4,0,0,1,7.48,3,15.84,15.84,0,0,1,5.18,5.54,18.82,18.82,0,0,1,1,14.14,16.86,16.86,0,0,1-6.61,8.66,14.87,14.87,0,0,1-5.17,2.15v.2a17.29,17.29,0,0,1,11.27,5.79,17.79,17.79,0,0,1,4.2,12,28.2,28.2,0,0,1-.31,3.95,19.09,19.09,0,0,1-3.89,9.06,15.78,15.78,0,0,1-4.66,3.95,28.1,28.1,0,0,1-7.18,2.77,42.37,42.37,0,0,1-10.19,1.07H886.22V372Zm0,32.07a24.22,24.22,0,0,0,7.28-1,15.22,15.22,0,0,0,5.12-2.67,10.94,10.94,0,0,0,3.07-3.94,11.56,11.56,0,0,0,1-4.82q0-13.72-16.5-13.73h-24V404Zm0,35.15a38.88,38.88,0,0,0,7.38-.67,16.74,16.74,0,0,0,6.15-2.41,12.36,12.36,0,0,0,4.2-4.66,15.66,15.66,0,0,0,1.53-7.32q0-7.08-5-10.61T917.17,410h-24v29.21Z" transform="translate(-2.36 -5.33)"/><path class="a" d="M960.82,372v45.29a35.75,35.75,0,0,0,1.43,10.81,18.12,18.12,0,0,0,4.21,7.28,16.11,16.11,0,0,0,6.76,4.09,29.26,29.26,0,0,0,9,1.29,29.62,29.62,0,0,0,9.12-1.29,16.21,16.21,0,0,0,6.77-4.09,18.23,18.23,0,0,0,4.2-7.28,35.75,35.75,0,0,0,1.43-10.81V372h7v46.83a35.68,35.68,0,0,1-1.59,10.71,23.49,23.49,0,0,1-5,8.86,23.81,23.81,0,0,1-8.81,6,39.43,39.43,0,0,1-26,0,23.89,23.89,0,0,1-8.81-6,23.49,23.49,0,0,1-5-8.86,35.68,35.68,0,0,1-1.59-10.71V372Z" transform="translate(-2.36 -5.33)"/><path class="a" d="M1029.78,430.47a15.42,15.42,0,0,0,5.07,6,21,21,0,0,0,7.64,3.23,43.5,43.5,0,0,0,9.42,1,27,27,0,0,0,6.25-.82,21.6,21.6,0,0,0,6.3-2.62,16,16,0,0,0,4.87-4.61,11.68,11.68,0,0,0,2-6.81,10,10,0,0,0-1.38-5.33,12.71,12.71,0,0,0-3.59-3.79,20.94,20.94,0,0,0-4.87-2.51,47.47,47.47,0,0,0-5.22-1.59l-16.3-4a48.39,48.39,0,0,1-6.2-2.05,17.57,17.57,0,0,1-5.27-3.28,15.28,15.28,0,0,1-3.64-5,17.18,17.18,0,0,1-1.38-7.27,23.28,23.28,0,0,1,1-6.25,17.36,17.36,0,0,1,3.84-6.77,22.52,22.52,0,0,1,7.74-5.38,31.15,31.15,0,0,1,12.6-2.2,36.66,36.66,0,0,1,10.35,1.44,25.41,25.41,0,0,1,8.61,4.3,20.75,20.75,0,0,1,8.1,17h-7a17,17,0,0,0-1.9-7.33,16.27,16.27,0,0,0-4.4-5.22,19.47,19.47,0,0,0-6.26-3.18,25.22,25.22,0,0,0-7.42-1.07,30.77,30.77,0,0,0-6.92.76,17.59,17.59,0,0,0-5.84,2.46,12.8,12.8,0,0,0-4,4.46,14,14,0,0,0-1.54,6.87,10.42,10.42,0,0,0,.88,4.45,9.29,9.29,0,0,0,2.4,3.23,12.65,12.65,0,0,0,3.54,2.15,27.41,27.41,0,0,0,4.25,1.34l17.83,4.4a50.88,50.88,0,0,1,7.33,2.51,24.28,24.28,0,0,1,6,3.69,15.58,15.58,0,0,1,4.1,5.38,18.06,18.06,0,0,1,1.49,7.69A28.05,28.05,0,0,1,1078,429a16.49,16.49,0,0,1-1.23,4.36,21.81,21.81,0,0,1-2.76,4.66,17.5,17.5,0,0,1-4.92,4.25,28.64,28.64,0,0,1-7.74,3.08,45.45,45.45,0,0,1-11.07,1.18,46.16,46.16,0,0,1-12-1.49,25.78,25.78,0,0,1-9.42-4.56,20.07,20.07,0,0,1-6-7.89,25.94,25.94,0,0,1-1.79-11.58h7A20.58,20.58,0,0,0,1029.78,430.47Z" transform="translate(-2.36 -5.33)"/><path class="a" d="M1096.79,372v73.16h-7V372Z" transform="translate(-2.36 -5.33)"/><path class="a" d="M1119.74,372l42.63,61.89h.2V372h7v73.16h-7.78l-42.63-61.89h-.21v61.89h-7V372Z" transform="translate(-2.36 -5.33)"/><path class="a" d="M1234.71,372v5.94h-43.55v26.44H1232v5.94h-40.79v28.9h44.06v5.94h-51V372Z" transform="translate(-2.36 -5.33)"/><path class="a" d="M1250,430.47a15.42,15.42,0,0,0,5.07,6,21.06,21.06,0,0,0,7.63,3.23,43.59,43.59,0,0,0,9.43,1,27,27,0,0,0,6.25-.82,21.6,21.6,0,0,0,6.3-2.62,16,16,0,0,0,4.87-4.61,11.68,11.68,0,0,0,2-6.81,9.92,9.92,0,0,0-1.39-5.33,12.56,12.56,0,0,0-3.58-3.79,20.94,20.94,0,0,0-4.87-2.51,47.62,47.62,0,0,0-5.23-1.59l-16.29-4a48.39,48.39,0,0,1-6.2-2.05,17.57,17.57,0,0,1-5.27-3.28,15.28,15.28,0,0,1-3.64-5,17.17,17.17,0,0,1-1.39-7.27,23.33,23.33,0,0,1,1-6.25,17.36,17.36,0,0,1,3.84-6.77,22.52,22.52,0,0,1,7.74-5.38,31.15,31.15,0,0,1,12.6-2.2,36.66,36.66,0,0,1,10.35,1.44,25.41,25.41,0,0,1,8.61,4.3,20.7,20.7,0,0,1,8.09,17h-7a17,17,0,0,0-1.9-7.33,16.52,16.52,0,0,0-4.4-5.22,19.47,19.47,0,0,0-6.26-3.18,25.22,25.22,0,0,0-7.42-1.07,30.77,30.77,0,0,0-6.92.76,17.59,17.59,0,0,0-5.84,2.46,12.8,12.8,0,0,0-4,4.46,14,14,0,0,0-1.54,6.87,10.58,10.58,0,0,0,.87,4.45,9.44,9.44,0,0,0,2.41,3.23,12.65,12.65,0,0,0,3.54,2.15,27.41,27.41,0,0,0,4.25,1.34l17.83,4.4a51.3,51.3,0,0,1,7.33,2.51,24.28,24.28,0,0,1,6,3.69,15.58,15.58,0,0,1,4.1,5.38,18.06,18.06,0,0,1,1.49,7.69,28.05,28.05,0,0,1-.26,3.27,16.49,16.49,0,0,1-1.23,4.36,21.46,21.46,0,0,1-2.77,4.66,17.22,17.22,0,0,1-4.92,4.25,28.44,28.44,0,0,1-7.73,3.08,45.5,45.5,0,0,1-11.07,1.18,46.16,46.16,0,0,1-12-1.49,25.7,25.7,0,0,1-9.42-4.56,20.07,20.07,0,0,1-6-7.89,25.8,25.8,0,0,1-1.79-11.58h7A20.58,20.58,0,0,0,1250,430.47Z" transform="translate(-2.36 -5.33)"/><path class="a" d="M1314.53,430.47a15.36,15.36,0,0,0,5.08,6,21,21,0,0,0,7.63,3.23,43.59,43.59,0,0,0,9.43,1,27.06,27.06,0,0,0,6.25-.82,21.83,21.83,0,0,0,6.3-2.62,16.1,16.1,0,0,0,4.87-4.61,11.75,11.75,0,0,0,1.94-6.81,10,10,0,0,0-1.38-5.33,12.59,12.59,0,0,0-3.59-3.79,21.07,21.07,0,0,0-4.86-2.51,47.62,47.62,0,0,0-5.23-1.59l-16.29-4a47.38,47.38,0,0,1-6.2-2.05,17.5,17.5,0,0,1-5.28-3.28,15.57,15.57,0,0,1-3.64-5,17.18,17.18,0,0,1-1.38-7.27,23.28,23.28,0,0,1,1-6.25,17.51,17.51,0,0,1,3.85-6.77,22.48,22.48,0,0,1,7.73-5.38,31.17,31.17,0,0,1,12.61-2.2,36.66,36.66,0,0,1,10.35,1.44,25.27,25.27,0,0,1,8.6,4.3,20.67,20.67,0,0,1,8.1,17h-7a17.14,17.14,0,0,0-1.89-7.33,16.42,16.42,0,0,0-4.41-5.22,19.31,19.31,0,0,0-6.25-3.18,25.29,25.29,0,0,0-7.43-1.07,30.83,30.83,0,0,0-6.92.76,17.68,17.68,0,0,0-5.84,2.46,12.9,12.9,0,0,0-4,4.46,14,14,0,0,0-1.53,6.87,10.58,10.58,0,0,0,.87,4.45,9.32,9.32,0,0,0,2.41,3.23,12.46,12.46,0,0,0,3.53,2.15,27.19,27.19,0,0,0,4.26,1.34l17.82,4.4a50.88,50.88,0,0,1,7.33,2.51,24.34,24.34,0,0,1,6.05,3.69,15.71,15.71,0,0,1,4.1,5.38,18.22,18.22,0,0,1,1.48,7.69,28.05,28.05,0,0,1-.26,3.27,16.83,16.83,0,0,1-1.22,4.36,21.87,21.87,0,0,1-2.77,4.66,17.5,17.5,0,0,1-4.92,4.25,28.38,28.38,0,0,1-7.74,3.08,45.42,45.42,0,0,1-11.06,1.18,46.11,46.11,0,0,1-12-1.49,25.83,25.83,0,0,1-9.43-4.56,20,20,0,0,1-6-7.89,25.93,25.93,0,0,1-1.8-11.58h7A20.58,20.58,0,0,0,1314.53,430.47Z" transform="translate(-2.36 -5.33)"/><path class="a" d="M2.36,304.84S57-160.28,284.75,68.71C284.75,68.71,103.36-93.5,2.36,304.84Z" transform="translate(-2.36 -5.33)"/></svg>