<?xml version="1.0" encoding="UTF-8"?>
<svg width="200px" height="23px" viewBox="0 0 200 23" version="1.1" xmlns="http://www.w3.org/2000/svg" xmlns:xlink="http://www.w3.org/1999/xlink">
    <!-- Generator: Sketch 51.2 (57519) - http://www.bohemiancoding.com/sketch -->
    <title>Group</title>
    <desc>Created with Sketch.</desc>
    <defs>
        <polygon id="path-1" points="0.000305220884 1.82269076 14.8920321 1.82269076 14.8920321 22.9443574 0.000305220884 22.9443574"></polygon>
        <polygon id="path-3" points="0.224457831 1.82269076 16.2166934 1.82269076 16.2166934 22.9452309 0.224457831 22.9452309"></polygon>
        <polygon id="path-5" points="2.23780455 1.82269076 9.39951807 1.82269076 9.39951807 22.9431928 2.23780455 22.9431928"></polygon>
        <polygon id="path-7" points="0.990131956 0.433704341 19.9918531 0.433704341 19.9918531 20.3480589 0.990131956 20.3480589"></polygon>
        <polygon id="path-9" points="1.52317269 1.82269076 16.5455288 1.82269076 16.5455288 22.9458133 1.52317269 22.9458133"></polygon>
        <polygon id="path-11" points="1.74578313 1.82269076 17.7380187 1.82269076 17.7380187 22.9463956 1.74578313 22.9463956"></polygon>
    </defs>
    <g id="Page-1" stroke="none" stroke-width="1" fill="none" fill-rule="evenodd">
        <g id="Desktop-v2" transform="translate(-990.000000, -25797.000000)">
            <g id="Group-70" transform="translate(0.000000, 24550.000000)">
                <g id="Group-66" transform="translate(250.000000, 1077.000000)">
                    <g id="Group" transform="translate(740.000000, 169.000000)">
                        <g id="Group-3">
                            <mask id="mask-2" fill="white">
                                <use xlink:href="#path-1"></use>
                            </mask>
                            <g id="Clip-2"></g>
                            <path d="M4.81363855,21.6253815 C5.89717269,21.6836145 6.07725301,21.6836145 6.46793574,21.6836145 C10.3503454,21.6836145 12.1847229,19.8463655 12.1847229,15.9709639 C12.1847229,12.4129317 10.4999036,10.4038956 7.52094779,10.4038956 C6.77010442,10.4038956 6.04673092,10.5174498 4.81363855,10.8319076 L4.81363855,21.6253815 Z M4.81363855,1.82036145 L4.81363855,9.85650602 C6.37942169,9.16935743 7.64303614,8.88110442 8.93717269,8.88110442 C12.5479357,8.88110442 14.8920321,11.5219679 14.8920321,15.5982731 C14.8920321,20.3326104 11.7940402,22.9443574 6.16881928,22.9443574 L2.31693173,22.9443574 L2.31693173,3.74204819 L0.000305220884,3.74204819 L0.000305220884,2.85399598 L3.70263454,1.82036145 L4.81363855,1.82036145 Z" id="Fill-1" fill="#FEFEFE" mask="url(#mask-2)"></path>
                        </g>
                        <path d="M30.3856877,4.42845779 C30.3856877,5.24238015 29.7332751,5.88231186 28.9034784,5.88231186 C28.0736816,5.88231186 27.3912039,5.24238015 27.3912039,4.42845779 C27.3912039,3.5850455 28.0436165,2.94511379 28.9034784,2.94511379 C29.7332751,2.94511379 30.3856877,3.61453544 30.3856877,4.42845779 Z M24.8747551,4.42845779 C24.8747551,5.24238015 24.2223425,5.88231186 23.3925458,5.88231186 C22.562749,5.88231186 21.8802713,5.24238015 21.8802713,4.42845779 C21.8802713,3.5850455 22.5326839,2.94511379 23.3925458,2.94511379 C24.2223425,2.94511379 24.8747551,3.61453544 24.8747551,4.42845779 Z M23.0377776,8.76053004 L23.0377776,18.3801486 C23.0377776,20.4739344 23.924698,21.4353064 25.912001,21.4353064 C27.0063706,21.4353064 27.9864929,21.1993869 29.3484418,20.5889452 L29.3484418,10.7363561 L27.2438849,10.7363561 L27.2438849,9.83396387 L30.6833322,8.76053004 L31.8077669,8.76053004 L31.8077669,21.3763266 L32.3429257,21.8393186 L33.7349398,21.9867683 L33.7349398,23.0336612 L29.3484418,23.0336612 L29.3484418,21.4058165 C27.1867612,22.8272316 26.0021963,23.2931727 24.4598568,23.2931727 C21.9704666,23.2931727 20.575446,21.6948179 20.575446,18.8755796 L20.575446,10.7363561 L18.4738956,10.7363561 L18.4738956,9.83396387 L21.9103364,8.76053004 L23.0377776,8.76053004 Z" id="Fill-4" fill="#FEFEFE"></path>
                        <g id="Group-8" transform="translate(33.734940, 0.000000)">
                            <mask id="mask-4" fill="white">
                                <use xlink:href="#path-3"></use>
                            </mask>
                            <g id="Clip-7"></g>
                            <path d="M5.08001339,1.82123494 L5.08001339,10.5765562 C7.62941098,9.28378514 8.84253012,8.88197791 10.1172289,8.88197791 C12.6050469,8.88197791 14.0614056,10.4892068 14.0614056,13.214508 L14.0614056,21.3088855 L14.5786747,21.7689257 L16.2166934,21.9115964 L16.2166934,22.9452309 L9.56917001,22.9452309 L9.56917001,21.9115964 L11.0286078,21.7689257 L11.5427979,21.3088855 L11.5427979,13.7036647 C11.5427979,11.665512 10.6622088,10.7745482 8.63008032,10.7745482 C7.5370415,10.7745482 6.65645248,11.0045683 5.08001339,11.6946285 L5.08001339,21.3088855 L5.62499331,21.7689257 L7.05364123,21.9115964 L7.05364123,22.9452309 L0.406117805,22.9452309 L0.406117805,21.9115964 L2.04413655,21.7689257 L2.56140562,21.3088855 L2.56140562,3.74292169 L0.224457831,3.74292169 L0.224457831,2.85195783 L3.92539491,1.82123494 L5.08001339,1.82123494 Z" id="Fill-6" fill="#FEFEFE" mask="url(#mask-4)"></path>
                        </g>
                        <g id="Group-11" transform="translate(49.263722, 0.000000)">
                            <mask id="mask-6" fill="white">
                                <use xlink:href="#path-5"></use>
                            </mask>
                            <g id="Clip-10"></g>
                            <polygon id="Fill-9" fill="#FEFEFE" mask="url(#mask-6)" points="2.26859438 21.9124699 4.06056225 21.7668876 4.57783133 21.309759 4.57783133 3.74379518 2.23780455 3.74379518 2.23780455 2.85283133 5.94182062 1.82210843 7.09336011 1.82210843 7.09336011 21.309759 7.64141901 21.7668876 9.39951807 21.9124699 9.39951807 22.9431928 2.26859438 22.9431928"></polygon>
                        </g>
                        <path d="M71.2293096,14.1934683 C71.2293096,12.8326275 71.1411432,12.2242171 70.8097592,11.5864148 C70.2716403,10.631181 69.3717353,10.1080067 68.1738887,10.1080067 C66.0457348,10.1080067 64.6381131,11.6158066 64.3067291,14.1934683 L71.2293096,14.1934683 Z M73.8955823,21.5531775 C71.9194395,22.7699985 70.2108359,23.2931727 68.3228594,23.2931727 C64.3067291,23.2931727 61.5796519,20.424532 61.5796519,16.1950506 C61.5796519,11.8773937 64.4556999,8.83534137 68.5022324,8.83534137 C71.8282329,8.83534137 73.8955823,10.9780043 73.8955823,14.4550554 C73.8955823,14.6578589 73.8955823,14.9782296 73.8682204,15.4102893 L64.1577583,15.4102893 C64.1577583,16.7446774 64.2489649,17.3530879 64.5165043,18.2524773 C65.2066342,20.392201 66.9152377,21.641353 69.1619601,21.641353 C70.6607885,21.641353 71.8282329,21.235746 73.8955823,19.9601414 L73.8955823,21.5531775 Z" id="Fill-12" fill="#FEFEFE"></path>
                        <path d="M73.8955823,22.2355012 L75.3157694,22.0861126 L75.7642496,21.6170323 L75.7642496,10.9566599 L73.8955823,10.9566599 L73.8955823,10.0424015 L76.946849,8.97875445 L77.9479207,8.97875445 L77.9479207,11.7484196 C78.8155162,10.7475158 79.659086,9.89301284 80.7642692,8.89210904 C81.0258826,8.83534137 81.1566893,8.83534137 81.394277,8.83534137 C81.9735639,8.83534137 82.3419583,8.92198677 82.9986613,9.21777625 L82.9986613,11.7484196 L82.1577611,11.7484196 C81.7386457,11.2195839 81.394277,11.0433053 80.8416854,11.0433053 C79.9740899,11.0433053 79.1572154,11.6617742 77.9479207,13.1945015 L77.9479207,21.6170323 L78.3964009,22.0861126 L80.2357033,22.2355012 L80.2357033,23.2931727 L73.8955823,23.2931727 L73.8955823,22.2355012 Z" id="Fill-14" fill="#FEFEFE"></path>
                        <g id="Group-18" transform="translate(90.156627, 2.945114)">
                            <mask id="mask-8" fill="white">
                                <use xlink:href="#path-7"></use>
                            </mask>
                            <g id="Clip-17"></g>
                            <path d="M10.6715242,4.93353222 C10.6715242,2.98302544 9.55467585,1.75051444 7.74629948,1.75051444 C6.11845477,1.75051444 4.90981067,2.92779499 4.90981067,4.52947791 C4.90981067,5.93640084 5.57379996,6.93636259 7.7157009,8.82873207 C9.79640467,7.85493211 10.6715242,6.73869574 10.6715242,4.93353222 Z M6.11845477,10.4071601 C4.36821572,11.6106024 3.7654236,12.5844024 3.7654236,14.1599235 C3.7654236,16.764475 5.63499713,18.6306827 8.31849302,18.6306827 C9.76580608,18.6306827 11.0019889,18.1132607 12.3911647,16.9098183 L6.11845477,10.4071601 Z M13.9608721,15.1046548 C14.9553261,13.7587761 15.3163894,12.9855498 15.6468541,11.7239702 L15.1052591,11.1774794 L13.4468158,10.9478371 L13.4468158,9.77637024 L19.5695927,9.77637024 L19.5695927,10.9478371 L17.3970931,11.2356168 C16.7331038,13.241354 16.0997131,14.473865 14.8941289,16.1075234 L17.2471601,18.6859132 L19.9918531,18.8283496 L19.9918531,20.0056301 L14.6829987,20.0056301 L14.6829987,19.316703 L13.3274814,17.8836183 C11.0325875,19.6597131 9.40474278,20.3486403 7.3546376,20.3486403 C3.70422643,20.3486403 0.990131956,17.9417556 0.990131956,14.7035074 C0.990131956,12.3838286 2.07638172,10.9478371 4.97100784,9.57579652 C3.00963855,7.6281966 2.49864219,6.68055842 2.49864219,5.16026774 C2.49864219,2.46851023 4.87921209,0.433704341 8.04922547,0.433704341 C11.0631861,0.433704341 13.205087,2.26793651 13.205087,4.87248805 C13.205087,6.96543125 12.0606999,8.2270109 8.77135207,9.77637024 L13.9608721,15.1046548 Z" id="Fill-16" fill="#7BCB79" mask="url(#mask-8)"></path>
                        </g>
                        <g id="Group-21" transform="translate(113.788487, 0.000000)">
                            <mask id="mask-10" fill="white">
                                <use xlink:href="#path-9"></use>
                            </mask>
                            <g id="Clip-20"></g>
                            <path d="M6.37872825,21.6268373 C7.46868809,21.6850703 7.65342704,21.6850703 8.04753681,21.6850703 C11.9609237,21.6850703 13.8144712,19.8478213 13.8144712,15.9724197 C13.8144712,12.4143876 12.1148728,10.4053514 9.10978581,10.4053514 C8.35235609,10.4053514 7.62263722,10.5189056 6.37872825,10.8333635 L6.37872825,21.6268373 Z M6.37872825,1.82181727 L6.37872825,9.85796185 C7.95516734,9.17081325 9.22986613,8.88256024 10.5353548,8.88256024 C14.1777912,8.88256024 16.5455288,11.5234237 16.5455288,15.5997289 C16.5455288,20.3340663 13.4203614,22.9458133 7.74271754,22.9458133 L3.86012048,22.9458133 L3.86012048,3.74350402 L1.52317269,3.74350402 L1.52317269,2.85545181 L5.2548996,1.82181727 L6.37872825,1.82181727 Z" id="Fill-19" fill="#FEFEFE" mask="url(#mask-10)"></path>
                        </g>
                        <path d="M144.174175,4.42845779 C144.174175,5.24238015 143.521762,5.88231186 142.691966,5.88231186 C141.862169,5.88231186 141.179691,5.24238015 141.179691,4.42845779 C141.179691,3.5850455 141.832104,2.94511379 142.691966,2.94511379 C143.521762,2.94511379 144.174175,3.61453544 144.174175,4.42845779 Z M138.663242,4.42845779 C138.663242,5.24238015 138.01083,5.88231186 137.181033,5.88231186 C136.351236,5.88231186 135.668759,5.24238015 135.668759,4.42845779 C135.668759,3.5850455 136.321171,2.94511379 137.181033,2.94511379 C138.01083,2.94511379 138.663242,3.61453544 138.663242,4.42845779 Z M136.826265,8.76053004 L136.826265,18.3801486 C136.826265,20.4739344 137.713185,21.4353064 139.700488,21.4353064 C140.794858,21.4353064 141.77498,21.1993869 143.136929,20.5889452 L143.136929,10.7363561 L141.032372,10.7363561 L141.032372,9.83396387 L144.47182,8.76053004 L145.596254,8.76053004 L145.596254,21.3763266 L146.131413,21.8393186 L147.523427,21.9867683 L147.523427,23.0336612 L143.136929,23.0336612 L143.136929,21.4058165 C140.975249,22.8272316 139.787677,23.2931727 138.248344,23.2931727 C135.758954,23.2931727 134.363933,21.6948179 134.363933,18.8755796 L134.363933,10.7363561 L132.262383,10.7363561 L132.262383,9.83396387 L135.698824,8.76053004 L136.826265,8.76053004 Z" id="Fill-22" fill="#FEFEFE"></path>
                        <g id="Group-26" transform="translate(147.791165, 0.000000)">
                            <mask id="mask-12" fill="white">
                                <use xlink:href="#path-11"></use>
                            </mask>
                            <g id="Clip-25"></g>
                            <path d="M6.60133869,1.8223996 L6.60133869,10.5777209 C9.15073628,9.2849498 10.3638554,8.88314257 11.6385542,8.88314257 C14.1263722,8.88314257 15.5827309,10.4903715 15.5827309,13.2156727 L15.5827309,21.3100502 L16.1,21.7700904 L17.7380187,21.912761 L17.7380187,22.9463956 L11.0904953,22.9463956 L11.0904953,21.912761 L12.5499331,21.7700904 L13.0672021,21.3100502 L13.0672021,13.7048293 C13.0672021,11.6666767 12.1835341,10.7757129 10.1514056,10.7757129 C9.0583668,10.7757129 8.17777778,11.0057329 6.60133869,11.6957932 L6.60133869,21.3100502 L7.14631861,21.7700904 L8.57496653,21.912761 L8.57496653,22.9463956 L1.92744311,22.9463956 L1.92744311,21.912761 L3.56546185,21.7700904 L4.08273092,21.3100502 L4.08273092,3.74408635 L1.74578313,3.74408635 L1.74578313,2.85312249 L5.44672021,1.8223996 L6.60133869,1.8223996 Z" id="Fill-24" fill="#FEFEFE" mask="url(#mask-12)"></path>
                        </g>
                        <polygon id="Fill-27" fill="#FEFEFE" points="166.291535 22.300174 167.83235 22.1599199 168.274474 21.7195221 168.274474 4.79646737 166.26506 4.79646737 166.26506 3.93811253 169.449941 2.94511379 170.440087 2.94511379 170.440087 21.7195221 170.911332 22.1599199 172.423025 22.300174 172.423025 23.2931727 166.291535 23.2931727"></polygon>
                        <path d="M185.015415,14.1934683 C185.015415,12.8326275 184.927271,12.2242171 184.599008,11.5864148 C184.061022,10.631181 183.161339,10.1080067 181.960749,10.1080067 C179.83312,10.1080067 178.425846,11.6158066 178.097583,14.1934683 L185.015415,14.1934683 Z M187.68407,21.5531775 C185.708414,22.7699985 184.000233,23.2931727 182.112722,23.2931727 C178.097583,23.2931727 175.368139,20.424532 175.368139,16.1950506 C175.368139,11.8773937 178.246517,8.83534137 182.292051,8.83534137 C185.614191,8.83534137 187.68407,10.9780043 187.68407,14.4550554 C187.68407,14.6578589 187.68407,14.9782296 187.653675,15.4102893 L177.945609,15.4102893 C177.945609,16.7446774 178.036793,17.3530879 178.307306,18.2524773 C178.997266,20.392201 180.702408,21.641353 182.948576,21.641353 C184.447035,21.641353 185.614191,21.235746 187.68407,19.9601414 L187.68407,21.5531775 Z" id="Fill-29" fill="#FEFEFE"></path>
                        <path d="M190.896921,22.2355012 L192.316692,22.0861126 L192.76504,21.6170323 L192.76504,10.9566599 L190.896921,10.9566599 L190.896921,10.0424015 L193.949962,8.97875445 L194.95074,8.97875445 L194.95074,11.7484196 C195.815413,10.7475158 196.658735,9.89301284 197.763594,8.89210904 C198.025131,8.83534137 198.155899,8.83534137 198.396086,8.83534137 C198.972534,8.83534137 199.340821,8.92198677 200,9.21777625 L200,11.7484196 L199.156678,11.7484196 C198.735016,11.2195839 198.396086,11.0433053 197.843656,11.0433053 C196.970978,11.0433053 196.15968,11.6617742 194.95074,13.1945015 L194.95074,21.6170323 L195.39642,22.0861126 L197.237852,22.2355012 L197.237852,23.2931727 L190.896921,23.2931727 L190.896921,22.2355012 Z" id="Fill-31" fill="#FEFEFE"></path>
                    </g>
                </g>
            </g>
        </g>
    </g>
</svg>