<?xml version="1.0" encoding="UTF-8"?>
<svg width="243px" height="88px" viewBox="0 0 243 88" version="1.1" xmlns="http://www.w3.org/2000/svg" xmlns:xlink="http://www.w3.org/1999/xlink">
    <!-- Generator: Sketch 51.2 (57519) - http://www.bohemiancoding.com/sketch -->
    <title>FIM_D_A4_CMYK</title>
    <desc>Created with Sketch.</desc>
    <defs></defs>
    <g id="Page-1" stroke="none" stroke-width="1" fill="none" fill-rule="evenodd">
        <g id="Desktop-v2" transform="translate(-965.000000, -25439.000000)">
            <g id="Group-70" transform="translate(0.000000, 24550.000000)">
                <g id="Group-67" transform="translate(250.000000, 629.000000)">
                    <g id="FIM_D_A4_CMYK" transform="translate(715.000000, 260.000000)">
                        <path d="M17.469,48.67 C17.747,48.684 17.869,48.715 18.16,48.673 C18.286,48.782 18.452,48.854 18.617,48.897 C18.646,48.935 18.617,48.929 18.713,48.901 C18.796,48.958 18.887,48.962 18.984,49.005 C19.108,49.074 19.118,49.238 19.237,49.331 C19.319,49.387 19.306,49.396 19.393,49.49 C19.503,49.511 19.463,49.613 19.463,49.613 C19.469,49.632 19.536,49.962 19.41,50.074 C19.218,50.351 19.179,50.454 19.014,50.732 C18.861,50.883 18.775,51.116 18.707,51.337 C18.733,51.35 18.733,51.393 18.733,51.422 C18.582,51.476 18.623,51.669 18.498,51.752 C18.483,51.945 18.415,52.111 18.429,52.32 C18.304,52.417 18.374,52.567 18.275,52.664 C18.182,52.956 18.182,53.356 18.347,53.58 C18.443,53.772 18.429,53.978 18.565,54.173 C18.623,54.353 18.802,54.447 18.914,54.587 C18.927,54.739 19.23,55.002 19.23,55.002 L19.502,55.128 L19.542,55.085 C19.612,55.139 19.782,55.197 19.824,55.308 C20.016,55.418 20.288,55.489 20.426,55.658 C20.536,55.755 20.536,55.935 20.568,56.087 C20.76,56.156 20.711,56.339 20.838,56.489 C20.892,56.738 20.272,57.174 20.065,57.327 C19.8,57.464 19.592,57.657 19.343,57.839 L19.274,58.019 C18.955,58.086 18.749,58.378 18.486,58.53 C18.362,58.684 18.152,58.668 18.003,58.777 C17.919,58.751 17.851,58.654 17.739,58.684 C17.491,58.767 17.504,59.029 17.326,59.18 C17.31,59.276 17.214,59.319 17.132,59.375 C17.06,59.359 16.992,59.418 16.948,59.47 C16.798,59.458 16.646,59.458 16.55,59.566 C16.426,59.805 16.189,59.858 15.968,59.955 C15.912,60.052 15.787,59.955 15.72,60.013 C15.595,60.052 15.457,60.107 15.33,60.135 C15.208,60.204 15.055,60.22 14.929,60.26 C14.807,60.33 14.71,60.523 14.544,60.507 C14.504,60.633 14.334,60.622 14.28,60.731 C14.13,60.799 13.933,60.844 13.796,60.952 C13.671,60.992 13.546,61.089 13.424,61.089 C13.285,61.185 13.147,61.282 12.981,61.296 C12.896,61.394 12.855,61.534 12.704,61.547 C12.467,61.56 12.343,61.783 12.149,61.837 C11.983,61.92 11.818,62.003 11.722,62.169 C11.597,62.196 11.569,62.307 11.488,62.362 C11.139,62.775 10.757,62.972 10.369,63.357 C10.259,63.427 10.188,63.539 10.094,63.62 C10.008,63.636 10.021,63.732 9.955,63.76 C9.802,63.843 9.691,63.971 9.553,64.038 C9.524,64.162 9.372,64.162 9.346,64.272 C9.192,64.37 9.081,64.508 8.998,64.658 L8.972,64.617 C8.944,64.698 8.868,64.75 8.832,64.727 C8.75,64.743 8.667,64.809 8.626,64.881 C8.529,64.935 8.364,65.004 8.39,65.141 C8.293,65.267 8.168,65.406 8.016,65.406 C7.907,65.529 7.753,65.615 7.671,65.752 C7.352,65.849 7.148,66.032 6.912,66.241 C6.857,66.394 6.661,66.45 6.539,66.533 C6.428,66.533 6.318,66.56 6.248,66.657 C6.136,66.657 6.034,66.697 5.962,66.808 C5.714,66.861 5.512,67.098 5.263,67.041 C4.959,67.124 4.667,66.958 4.475,66.738 C4.445,66.585 4.403,66.514 4.293,66.388 C4.196,66.098 4.224,65.781 4.278,65.489 C4.196,65.31 4.375,65.141 4.293,64.977 C4.321,64.824 4.293,64.672 4.278,64.519 C4.196,64.451 4.278,64.285 4.209,64.186 C4.127,64.065 4.196,63.886 4.196,63.76 C4.111,63.58 4.265,63.344 4.1,63.193 C3.932,63.122 3.945,62.944 3.821,62.848 C3.835,62.735 3.71,62.722 3.726,62.625 C3.655,62.461 3.545,62.307 3.545,62.127 C3.478,61.877 3.545,61.614 3.394,61.41 C3.408,61.325 3.325,61.255 3.366,61.185 C3.27,60.786 3.129,60.368 3.062,59.955 C2.992,59.805 2.923,59.651 2.895,59.47 C2.744,59.276 2.659,59.014 2.648,58.751 C2.454,58.558 2.355,58.295 2.245,58.032 C2.177,57.908 2.204,57.756 2.122,57.646 C2.093,57.385 2.038,57.174 1.873,56.97 C1.885,56.871 1.773,56.871 1.773,56.776 C1.622,56.522 1.553,56.235 1.444,55.973 C1.25,55.694 1.14,55.377 1,55.071 C0.708,54.782 0.89,54.326 0.765,53.993 C0.641,53.688 0.765,53.385 0.736,53.066 C0.736,52.72 0.723,52.345 0.668,51.985 C0.599,51.849 0.654,51.626 0.473,51.545 C0.447,51.363 0.293,51.211 0.268,51.033 C0.184,50.961 0.227,50.824 0.169,50.727 C0.087,50.508 0.211,50.315 0.239,50.092 C0.293,49.995 0.184,49.872 0.293,49.773 C0.335,49.717 0.378,49.609 0.447,49.566 C0.599,49.219 0.75,48.877 0.973,48.599 C1.013,48.516 1.083,48.433 1.096,48.322 C1.472,47.797 2.093,48.347 2.51,47.987 C2.604,47.961 2.689,47.961 2.757,47.866 C3.42,47.781 4.111,48.353 4.749,48.52 C5.109,48.644 5.427,48.935 5.843,48.882 C5.979,48.839 6.133,48.85 6.242,48.767 C6.631,48.728 6.975,48.794 7.378,48.794 C7.57,48.81 7.764,48.67 7.958,48.751 L8,48.727 C8.581,48.751 9.136,48.946 9.688,48.78 C9.797,48.767 9.923,48.81 10.02,48.74 C10.573,48.751 11.071,48.477 11.624,48.477 C11.722,48.504 11.844,48.504 11.958,48.49 C12.232,48.614 12.537,48.794 12.814,48.81 C13.048,48.767 13.311,48.603 13.562,48.727 C13.741,48.767 13.921,48.715 14.102,48.684 C14.31,48.657 14.459,48.794 14.668,48.767 L14.71,48.81 C15.002,48.837 15.275,48.715 15.565,48.699 C15.941,48.684 16.285,48.614 16.658,48.531 C16.965,48.545 17.164,48.587 17.469,48.67" id="Fill-1" fill="#007D3F"></path>
                        <path d="M45.353,57.976 C45.116,58.086 44.909,57.937 44.659,57.965 L44.024,58.102 L43.968,58.086 C43.648,58.335 43.221,58.226 42.861,58.364 C42.75,58.488 42.598,58.378 42.487,58.488 C42.252,58.544 42.017,58.544 41.781,58.641 C41.326,58.518 40.898,58.724 40.455,58.777 L40.026,59.014 C39.776,59.029 39.54,59.099 39.318,59.14 C39.085,59.057 38.852,59.153 38.628,59.223 C38.131,59.359 37.827,58.863 37.37,58.903 C37.284,58.807 37.135,58.848 37.039,58.807 C36.995,58.807 36.939,58.877 36.927,58.807 C36.801,58.807 36.68,58.807 36.555,58.767 C36.443,58.697 36.36,58.558 36.224,58.587 C36.109,58.601 36.139,58.432 36.029,58.488 C35.889,58.394 35.694,58.432 35.555,58.364 L34.852,58.407 L34.825,58.385 C34.814,58.369 34.683,58.378 34.683,58.378 C34.479,58.394 34.27,58.461 34.062,58.421 C33.731,58.488 33.441,58.641 33.095,58.697 C32.845,58.807 32.65,59.014 32.377,59.069 C32.152,59.014 31.904,59.112 31.683,59.153 C31.462,59.223 31.213,59.249 30.979,59.249 C30.84,59.249 30.741,59.346 30.618,59.346 C30.273,59.555 29.801,59.391 29.54,59.721 C29.346,59.805 29.191,59.928 29,60.024 C28.876,60.135 28.696,59.993 28.584,60.116 C28.419,60.116 28.308,60.182 28.142,60.154 C27.982,60.184 27.936,60.233 27.836,60.204 C27.721,60.166 27.718,60.251 27.574,60.22 C27.368,60.078 27.119,60.19 26.965,60.315 C26.843,60.301 26.911,60.453 26.8,60.467 C26.498,60.606 26.386,60.939 26.219,61.215 C26.026,61.325 26.162,61.572 26.066,61.725 L26.095,62.21 C25.845,62.612 26.398,62.792 26.329,63.205 C26.412,63.288 26.371,63.443 26.454,63.494 L26.592,63.827 C26.66,63.993 26.606,64.186 26.719,64.354 C26.785,64.532 26.981,64.658 27.023,64.852 L27.535,65.004 L27.727,65.251 C27.977,65.296 28.224,65.363 28.486,65.379 C28.529,65.406 28.559,65.462 28.624,65.446 C28.832,65.516 29.043,65.586 29.248,65.638 C29.346,65.683 29.442,65.736 29.54,65.709 C29.925,65.849 30.343,65.902 30.73,66.042 L30.771,66.098 C30.952,66.151 31.089,66.248 31.269,66.291 C31.395,66.428 31.601,66.414 31.725,66.538 C31.878,66.538 31.974,66.68 32.125,66.693 C32.377,66.693 32.485,66.953 32.736,66.953 C32.916,67.039 33.065,67.147 33.274,67.191 C33.357,67.315 33.523,67.272 33.636,67.385 C33.843,67.481 33.955,67.647 34.175,67.73 C34.244,67.841 34.355,67.924 34.49,67.964 C34.56,68.06 34.714,68.117 34.756,68.254 L34.768,68.228 L34.852,68.283 C34.991,68.364 35.142,68.394 35.253,68.477 C35.584,68.558 35.917,68.67 36.249,68.737 L36.277,68.782 C36.415,68.795 36.579,68.782 36.665,68.89 C37.481,69.209 38.337,69.584 39.265,69.721 C39.762,69.831 40.343,69.873 40.828,70.053 C41.257,70.206 41.657,70.386 42.101,70.524 C42.311,70.554 42.503,70.659 42.724,70.691 C42.791,70.828 43,70.745 43.139,70.772 C43.166,70.772 43.194,70.815 43.179,70.857 C43.469,70.992 43.802,71.077 44.094,71.23 C44.175,71.187 44.216,71.327 44.3,71.257 C44.382,71.31 44.496,71.41 44.647,71.369 C44.647,71.381 44.686,71.41 44.717,71.381 C44.783,71.507 44.976,71.493 45.088,71.562 L45.672,71.728 C45.856,71.785 46.041,71.832 46.229,71.872 L46.229,57.744 C45.922,57.78 45.617,57.78 45.353,57.976" id="Fill-2" fill="#007D3F"></path>
                        <path d="M13.708,80.583 C13.805,80.417 13.764,80.267 13.817,80.084 C13.861,79.961 13.942,79.851 13.972,79.711 C14.081,79.588 14.081,79.394 14.207,79.272 C14.221,79.231 14.194,79.132 14.276,79.145 C14.306,78.912 14.443,78.772 14.539,78.564 C14.553,78.523 14.524,78.467 14.58,78.467 C14.635,78.204 14.815,78.014 14.926,77.805 L14.966,77.82 C15.036,77.692 15.077,77.555 15.19,77.47 C15.272,77.276 15.438,77.153 15.438,76.944 C15.495,76.863 15.577,76.796 15.561,76.697 C15.454,76.394 15.729,76.201 15.771,75.909 L15.771,75.852 C15.881,75.702 15.923,75.522 16.02,75.37 C16.074,75.3 16.074,75.19 16.142,75.147 C16.254,74.925 16.394,74.745 16.489,74.512 C16.544,74.498 16.532,74.442 16.559,74.415 C16.641,74.346 16.712,74.233 16.738,74.123 C16.986,73.874 17.016,73.487 17.276,73.252 C17.374,72.978 17.596,72.796 17.761,72.549 C17.846,72.466 17.902,72.326 17.981,72.257 C18.039,72.103 18.149,71.98 18.259,71.841 C18.37,71.428 18.799,71.108 18.979,70.707 C19.075,70.707 19.037,70.567 19.118,70.543 C19.258,70.277 19.492,70.071 19.584,69.777 C19.671,69.647 19.786,69.617 19.855,69.451 C19.881,69.435 19.943,69.431 19.949,69.366 C20.033,69.299 20.066,69.283 20.135,69.199 C20.239,69.175 20.213,69.13 20.294,69.106 L20.354,69.069 C20.366,69.06 20.377,69.052 20.389,69.042 C20.389,69.042 20.39,69.042 20.392,69.042 C20.392,69.042 20.708,68.897 20.764,68.755 C20.999,68.591 21.041,68.315 21.179,68.108 C21.236,67.926 21.387,67.816 21.471,67.649 C21.552,67.483 21.656,67.266 21.706,67.138 C21.677,67.019 21.669,66.992 21.642,66.895 C21.839,66.559 21.731,66.104 21.606,65.743 C21.564,65.467 21.398,65.177 21.12,65.038 C20.928,64.941 20.923,64.75 20.743,64.653 C20.726,64.631 20.764,64.606 20.735,64.598 C20.711,64.575 20.681,64.57 20.647,64.557 C20.636,64.548 20.625,64.539 20.616,64.525 C20.596,64.525 20.578,64.519 20.564,64.51 C20.558,64.505 20.555,64.501 20.549,64.496 C20.542,64.496 20.534,64.494 20.527,64.489 C20.457,64.437 20.473,64.325 20.392,64.274 C20.334,64.04 20.112,63.901 20.016,63.665 C19.942,63.366 19.702,63.07 19.396,62.935 C19.285,62.879 19.166,62.839 19.041,62.832 C18.831,62.808 18.625,62.647 18.406,62.641 C18.388,62.637 18.371,62.635 18.357,62.63 L18.349,62.612 C18.098,62.542 17.96,62.585 17.711,62.542 C17.585,62.596 17.435,62.542 17.297,62.569 C17.241,62.625 17.132,62.542 17.102,62.625 L17.088,62.612 C16.948,62.682 16.826,62.654 16.686,62.695 C16.55,62.751 16.41,62.722 16.302,62.832 C15.817,62.901 15.346,63.095 14.929,63.288 C14.749,63.288 14.587,63.387 14.422,63.456 C14.378,63.483 14.378,63.566 14.31,63.511 C13.823,63.789 13.271,63.926 12.842,64.312 C12.69,64.339 12.58,64.425 12.439,64.451 C12.232,64.589 12.023,64.739 11.818,64.881 C11.722,64.907 11.692,65.031 11.609,65.047 C11.542,65.224 11.363,65.32 11.209,65.42 C11.127,65.61 10.905,65.543 10.78,65.669 C10.474,65.781 10.255,66.042 9.923,66.111 C9.216,66.623 8.414,66.98 7.737,67.549 C7.668,67.578 7.709,67.675 7.626,67.659 C7.394,67.946 7.142,68.259 6.857,68.515 C6.567,68.741 6.263,68.957 6.02,69.128 C5.887,69.209 5.717,69.303 5.549,69.303 C5.425,69.339 5.338,69.446 5.242,69.53 C5.012,69.6 5.043,69.734 4.853,69.842 C4.699,70.075 4.472,70.296 4.315,70.489 C4.333,70.574 4.419,70.669 4.356,70.783 C4.371,71.075 4.432,71.156 4.459,71.445 C4.403,71.5 4.377,71.597 4.403,71.668 C4.516,71.735 4.389,71.931 4.526,71.998 C4.568,72.29 4.74,72.456 4.754,72.76 C4.868,72.969 4.853,73.216 5.02,73.382 C5.433,73.964 5.537,74.635 5.994,75.177 C6.118,75.327 6.105,75.507 6.105,75.702 L6.189,76.214 C6.408,76.689 6.665,77.086 6.882,77.528 C6.935,77.699 6.986,77.874 7.047,78.049 C7.129,78.492 7.184,78.907 7.349,79.32 C7.28,79.393 7.31,79.514 7.336,79.599 C7.31,79.776 7.418,79.958 7.418,80.138 C7.433,80.192 7.516,80.222 7.472,80.289 C7.28,81.053 7.612,81.728 8.07,82.308 C8.222,82.629 8.07,83 8.14,83.318 C8.07,83.667 8.248,83.894 8.319,84.226 C8.504,84.412 8.834,84.282 9.05,84.441 C9.095,84.457 9.126,84.489 9.153,84.522 L9.19,84.522 L9.176,84.522 C9.188,84.531 9.198,84.543 9.207,84.554 C9.342,84.607 9.623,84.7 9.74,84.59 C9.912,84.576 10.058,84.63 10.246,84.567 C10.474,84.823 10.833,84.671 11.135,84.702 C11.135,84.702 11.517,84.514 11.527,84.514 C11.554,84.374 11.764,84.356 11.844,84.262 C11.832,84.096 12.052,84.123 12.081,83.97 C12.158,83.844 12.19,83.93 12.23,83.866 C12.297,83.754 12.343,83.764 12.439,83.667 C12.434,83.595 12.46,83.541 12.491,83.491 C12.583,83.424 12.685,83.363 12.699,83.28 C12.782,83.144 12.81,82.977 12.92,82.853 C12.905,82.701 13.017,82.604 13.073,82.465 C13.114,82.425 13.087,82.339 13.156,82.299 C13.196,82.176 13.309,82.065 13.278,81.924 C13.294,81.912 13.309,81.912 13.321,81.912 L13.433,81.623 C13.502,81.36 13.6,81.095 13.652,80.875 C13.75,80.806 13.708,80.668 13.708,80.583" id="Fill-3" fill="#007D3F"></path>
                        <path d="M14.48,84.403 L14.717,84.486 C15.13,84.545 15.656,84.244 16.039,84.19 C16.173,84.287 16.398,84.318 16.544,84.305 C16.82,84.358 17.036,84.206 17.307,84.307 C17.547,84.293 17.818,84.226 18.024,84.363 C18.247,84.341 18.511,84.602 18.744,84.605 C19.744,84.576 20.581,84.011 21.534,84.41 C22.419,84.415 23.155,85.053 24.04,85.06 C24.055,85.115 24.185,85.06 24.171,85.127 C24.643,85.163 25.16,85.16 25.603,85.38 C26.491,85.506 27.344,85.933 28.23,86.107 C28.549,86.211 28.879,86.126 29.203,86.088 C29.773,85.941 30.319,86.313 30.895,86.242 L31.03,86.296 C31.721,86.359 32.44,86.341 33.193,86.148 C33.545,86.148 33.874,86.408 34.247,86.37 C34.683,86.13 35.217,86.539 35.716,86.476 L36.308,86.759 C36.491,86.812 36.69,86.819 36.865,86.797 C37.254,86.817 37.639,87.227 38.065,87.172 C38.337,87.272 39.05,87.446 39.306,87.444 C39.513,87.413 39.71,87.522 39.892,87.403 C40.114,87.213 40.351,87.464 40.599,87.356 C40.914,87.46 41.23,87.595 41.531,87.642 L42.575,87.662 C43.333,87.429 43.915,88.248 44.639,87.828 C45.258,87.733 45.876,87.541 46.224,87.581 L46.226,80.844 C46.204,80.837 46.121,80.773 46.121,80.773 C46.077,80.758 46.018,80.749 45.974,80.74 C45.737,80.654 45.655,80.607 45.42,80.594 C45.323,80.538 45.198,80.511 45.088,80.497 C44.847,80.369 44.604,80.338 44.367,80.226 C44.345,80.21 44.319,80.201 44.296,80.183 C44.187,80.143 44.17,80.003 44.048,79.977 C44.045,79.977 44.042,79.972 44.042,79.972 C43.917,79.864 43.756,79.806 43.661,79.698 C43.645,79.695 43.634,79.693 43.623,79.689 C43.611,79.683 43.602,79.676 43.595,79.666 C43.523,79.657 43.456,79.64 43.396,79.608 C43.278,79.55 43.177,79.467 43.078,79.394 C43.068,79.397 43.061,79.394 43.054,79.394 C43.041,79.384 43.029,79.372 43.014,79.363 C42.991,79.365 42.966,79.363 42.941,79.354 C42.92,79.343 42.899,79.325 42.885,79.311 C42.87,79.31 42.858,79.303 42.843,79.301 C42.835,79.294 42.825,79.284 42.817,79.28 C42.8,79.275 42.779,79.272 42.764,79.265 C42.687,79.222 42.625,79.161 42.543,79.132 C42.516,79.114 42.485,79.101 42.454,79.094 C42.354,79.013 42.238,78.95 42.118,78.892 C41.936,78.802 41.737,78.732 41.556,78.647 C41.547,78.591 41.499,78.565 41.447,78.548 C41.421,78.53 41.385,78.517 41.347,78.503 C41.333,78.444 41.294,78.422 41.244,78.408 C41.197,78.368 41.123,78.368 41.054,78.357 C41.034,78.276 40.958,78.283 40.92,78.204 C40.902,78.202 40.884,78.193 40.863,78.186 C40.862,78.182 40.857,78.18 40.857,78.175 C40.761,78.15 40.667,78.099 40.583,78.067 C39.981,77.604 39.353,77.191 38.816,76.616 C38.57,76.367 38.361,76.046 38.126,75.799 C37.946,75.562 37.67,75.453 37.502,75.23 C37.349,75.161 37.199,75.065 37.13,74.9 C37.108,74.898 37.09,74.892 37.072,74.882 C37.072,74.878 37.067,74.873 37.065,74.866 C37.056,74.864 37.047,74.862 37.035,74.859 C36.968,74.812 36.915,74.734 36.833,74.714 C36.814,74.698 36.794,74.69 36.773,74.683 C36.743,74.626 36.722,74.564 36.657,74.561 C36.643,74.543 36.623,74.529 36.596,74.527 C36.581,74.503 36.553,74.484 36.523,74.484 C36.512,74.474 36.5,74.465 36.486,74.46 C36.418,74.401 36.362,74.31 36.273,74.282 C36.25,74.267 36.227,74.256 36.201,74.251 C36.075,74.173 35.986,74.045 35.845,73.988 C35.82,73.977 35.792,73.966 35.764,73.955 C35.614,73.826 35.419,73.746 35.248,73.624 C35.244,73.624 35.239,73.624 35.235,73.624 C35.218,73.615 35.2,73.606 35.184,73.596 C35.106,73.606 35.028,73.589 34.953,73.557 C34.88,73.517 34.813,73.467 34.749,73.418 C34.734,73.413 34.719,73.406 34.701,73.402 C34.696,73.396 34.69,73.394 34.683,73.387 C34.189,73.193 33.743,73.097 33.259,72.879 C33.232,72.863 33.202,72.852 33.172,72.848 C33.167,72.843 33.164,72.841 33.158,72.838 L33.173,72.822 C33.158,72.796 33.146,72.769 33.133,72.755 C33.11,72.748 33.089,72.737 33.069,72.728 C33.067,72.728 33.067,72.724 33.065,72.724 C33.061,72.722 33.055,72.717 33.047,72.715 C32.899,72.632 32.792,72.483 32.66,72.369 C32.648,72.366 32.633,72.362 32.622,72.36 C32.611,72.351 32.607,72.344 32.598,72.338 C32.582,72.335 32.569,72.331 32.556,72.326 C32.481,72.274 32.436,72.183 32.356,72.133 C32.238,72.079 32.211,71.956 32.102,71.931 C32.093,71.922 32.08,71.915 32.068,71.911 C31.842,71.65 31.742,71.353 31.472,71.136 C31.43,71.122 31.457,71.039 31.39,71.039 C31.403,70.958 31.35,70.902 31.277,70.871 C31.308,70.774 31.138,70.79 31.154,70.68 C31.103,70.617 31.05,70.545 30.969,70.522 C30.957,70.514 30.945,70.505 30.932,70.5 C30.621,70.184 30.401,69.86 30.048,69.629 C29.913,69.55 29.777,69.418 29.627,69.354 C29.572,69.325 29.517,69.303 29.456,69.292 C29.452,69.292 29.449,69.289 29.444,69.289 C29.413,69.265 29.39,69.233 29.396,69.186 C29.365,69.164 29.357,69.199 29.351,69.231 C29.335,69.209 29.328,69.184 29.332,69.154 C29.29,69.128 29.29,69.195 29.278,69.225 C29.241,69.222 29.211,69.209 29.181,69.195 C29.063,69.13 28.972,69.024 28.85,68.978 C28.832,68.969 28.818,68.959 28.802,68.955 C28.797,68.95 28.793,68.95 28.789,68.948 C28.776,68.943 28.764,68.936 28.752,68.935 C28.734,68.91 28.706,68.914 28.685,68.921 L28.626,68.903 C28.626,68.898 28.624,68.897 28.624,68.89 L28.383,68.811 C28.351,68.777 28.308,68.753 28.263,68.737 C28.186,68.692 28.091,68.677 28.007,68.641 C27.931,68.582 27.843,68.535 27.753,68.497 C27.661,68.447 27.565,68.413 27.479,68.378 C27.271,68.378 27.1,68.259 26.92,68.198 C26.855,68.148 26.793,68.076 26.719,68.054 C26.675,68.027 26.331,68.095 26.28,68.108 C25.91,68.225 25.929,68.261 25.626,68.499 C25.581,68.542 25.496,68.494 25.496,68.573 C25.384,68.674 25.384,68.66 25.168,68.694 C25.135,68.715 25.102,68.76 25.072,68.753 C25.033,68.726 24.993,68.85 24.949,68.838 C24.904,68.809 24.855,68.862 24.794,68.89 C24.629,68.986 24.56,69.168 24.38,69.24 C24.297,69.276 24.226,69.404 24.144,69.46 C23.979,69.777 23.644,69.97 23.423,70.232 C23.316,70.455 23.01,70.538 22.954,70.815 C22.885,70.799 22.869,70.882 22.817,70.897 C22.789,70.981 22.705,70.992 22.68,71.091 C22.441,71.27 22.206,71.464 22.041,71.699 C21.791,72.032 21.543,72.338 21.321,72.708 C21.295,72.737 21.31,72.82 21.239,72.834 C20.769,73.555 20.341,74.327 19.786,75.033 L19.523,75.408 C19.481,75.448 19.497,75.531 19.426,75.545 C19.386,75.682 19.288,75.78 19.206,75.877 C19.164,76.057 19.026,76.196 18.943,76.336 C18.887,76.54 18.778,76.695 18.691,76.872 C18.498,77.385 18.196,77.8 17.975,78.299 C17.877,78.521 17.751,78.728 17.695,78.975 C17.585,79.197 17.616,79.5 17.464,79.695 C17.241,79.972 17.074,80.234 16.881,80.524 C16.855,80.623 16.715,80.65 16.73,80.758 C16.467,80.994 16.285,81.283 16.092,81.562 C16.121,81.699 15.968,81.769 15.968,81.881 C15.845,81.991 15.747,82.157 15.595,82.283 C15.608,82.364 15.513,82.394 15.496,82.463 C15.275,83.071 14.861,83.581 14.558,84.161" id="Fill-4" fill="#007D3F"></path>
                        <path d="M46.217,46.476 L46.217,35.281 C46.006,35.262 45.852,35.191 45.638,35.204 C45.291,35.247 45.166,35.302 44.889,35.429 C44.641,35.413 44.642,35.567 44.42,35.499 C44.296,35.445 44.087,35.591 43.977,35.523 C43.729,35.508 43.494,35.551 43.257,35.648 C43.159,35.688 43.077,35.743 43.009,35.77 C42.912,35.798 42.786,35.814 42.704,35.868 C42.455,35.952 42.524,36.256 42.275,36.299 C41.874,36.451 41.517,36.658 41.169,36.932 C40.863,37.044 40.641,37.364 40.421,37.54 C39.964,37.958 39.37,38.053 38.914,38.456 C38.679,38.535 38.473,38.704 38.291,38.843 C38.181,38.869 38.112,38.967 38.016,39.01 C37.931,39.12 37.805,39.16 37.737,39.269 C37.502,39.382 37.254,39.466 37.047,39.616 C36.756,39.838 36.423,39.935 36.132,40.101 C35.829,40.337 35.455,40.504 35.095,40.586 C34.93,40.64 34.776,40.778 34.61,40.795 C34.35,40.903 34.1,41.083 33.892,41.276 C33.658,41.568 33.353,41.885 33.103,42.163 C32.881,42.246 32.688,42.397 32.493,42.536 C32.385,42.577 32.286,42.662 32.191,42.702 C32.023,42.895 31.761,42.939 31.597,43.116 C31.472,43.104 31.402,43.255 31.277,43.241 C31.083,43.296 30.931,43.379 30.766,43.464 C30.517,43.657 30.185,43.697 29.894,43.74 C29.714,43.74 29.534,43.866 29.368,43.796 C29.189,43.935 28.939,43.808 28.761,43.96 C28.634,44.046 28.495,44.113 28.372,44.167 C28.11,44.307 27.916,44.459 27.679,44.596 C27.153,44.735 26.643,44.931 26.075,44.96 C25.802,44.978 25.806,44.903 25.59,44.941 C25.496,44.888 25.318,44.91 25.25,44.953 L25.249,44.955 C24.958,44.929 24.958,45.166 24.71,45.238 C24.295,45.319 23.973,45.724 23.585,45.919 C23.338,46.154 22.954,46.114 22.692,46.321 C22.358,46.418 21.884,46.653 21.821,46.653 C21.663,46.593 21.447,46.817 21.281,46.817 C21.198,46.873 21.07,47.035 20.984,47.075 C20.915,47.02 20.861,47.116 20.793,47.092 C20.667,47.172 20.476,47.165 20.392,47.305 C20.185,47.469 20.023,47.365 20.065,47.628 C19.951,47.711 20.009,47.861 19.981,47.942 C20.204,48.149 20.187,48.452 20.436,48.605 C20.436,48.718 20.561,48.702 20.616,48.756 C20.852,48.769 20.96,48.978 21.184,48.991 C21.281,49.103 21.476,49.077 21.558,49.227 C21.642,49.338 21.754,49.483 21.863,49.551 C22.113,49.513 22.234,49.618 22.428,49.717 C22.485,49.771 22.58,49.73 22.638,49.814 C22.76,49.8 22.882,49.899 23.017,49.856 C23.115,50.038 23.338,50.029 23.407,50.225 C23.531,50.225 23.563,50.373 23.658,50.44 C23.769,50.427 23.787,50.523 23.87,50.593 C24.082,50.8 24.27,50.888 24.312,51.137 C24.352,51.26 24.426,51.305 24.439,51.442 C24.383,51.536 24.623,51.622 24.596,51.691 C24.623,51.842 24.765,51.981 24.739,52.134 C24.781,52.255 24.721,52.394 24.791,52.521 C24.945,52.72 24.709,52.825 24.794,52.977 C24.807,53.048 24.728,52.982 24.764,53.1 C24.918,53.324 24.784,53.571 24.882,53.805 L24.762,54.259 C24.611,54.394 24.653,54.526 24.486,54.649 C24.397,54.852 24.04,54.995 24.069,55.19 C24.109,55.397 23.992,55.534 24.105,55.674 C24.338,55.729 24.21,55.979 24.39,56.089 C24.682,56.213 25.46,56.602 25.804,56.615 C25.9,56.531 25.984,56.657 26.095,56.628 C26.179,56.797 26.329,56.644 26.466,56.671 L26.498,56.628 C26.689,56.615 26.898,56.56 27.105,56.588 C27.342,56.657 27.616,56.588 27.796,56.531 L27.961,56.505 C28.224,56.408 28.463,56.284 28.667,56.132 C28.778,56.144 28.821,56.047 28.901,55.992 C29.081,55.936 29.262,55.826 29.456,55.8 C29.596,55.714 29.733,55.593 29.899,55.604 C30.023,55.521 30.19,55.55 30.328,55.482 C30.909,55.15 31.297,54.596 31.989,54.526 C32.515,54.25 33.026,54.153 33.551,53.875 C33.58,53.901 33.661,53.875 33.676,53.917 C33.965,53.791 34.27,53.628 34.602,53.611 C35.169,53.405 35.598,53.003 36.179,52.825 C36.401,52.783 36.567,52.63 36.747,52.505 C37.036,52.246 37.481,52.282 37.798,52.066 L37.896,52.049 C38.321,51.869 38.793,51.664 39.111,51.26 C39.318,51.152 39.513,51.04 39.721,50.903 C39.901,50.624 40.247,50.515 40.523,50.321 L40.801,50 C40.923,49.973 41.009,49.852 41.105,49.782 C41.34,49.67 41.534,49.49 41.768,49.324 C41.96,49.299 42.101,49.077 42.252,48.991 C42.363,48.908 42.516,48.908 42.584,48.785 C42.652,48.605 42.874,48.675 42.986,48.535 C43.207,48.495 43.331,48.288 43.526,48.217 L44.148,47.9 C44.523,47.524 45.061,47.688 45.353,47.22 C45.69,46.97 45.797,46.712 46.182,46.525" id="Fill-5" fill="#007D3F"></path>
                        <path d="M114.759,73.853 C113.793,73.853 112.804,74.612 111.768,76.428 L111.722,76.428 L111.722,74.06 L109.675,74.06 L109.675,84.388 L111.722,84.388 L111.722,78.983 C111.722,77.212 112.827,75.808 114.228,75.808 C114.659,75.808 115.348,76.138 115.932,76.634 L117.015,74.864 C116.242,74.184 115.52,73.853 114.759,73.853" id="Fill-6" fill="#FFFFFF"></path>
                        <path d="M70.158,78.205 C70.158,82.046 67.858,84.576 63.189,84.576 C59.877,84.576 56.657,82.713 56.657,78.435 L56.657,68.683 L58.911,68.683 L58.911,77.953 C58.911,79.724 59.142,80.459 59.854,81.173 C60.751,82.069 61.878,82.507 63.235,82.507 C64.96,82.507 66.202,81.954 66.916,81.242 C67.721,80.436 67.904,79.287 67.904,77.815 L67.904,68.683 L70.158,68.683 L70.158,78.205" id="Fill-7" fill="#FFFFFF"></path>
                        <path d="M74.644,75.398 L74.69,75.398 C75.472,74.41 76.621,73.836 77.772,73.836 C79.727,73.836 81.291,75.17 81.291,77.999 L81.291,84.37 L79.244,84.37 L79.244,77.976 C79.244,76.458 78.462,75.469 77.22,75.469 C76.323,75.469 75.609,75.883 74.644,76.963 L74.644,84.37 L72.597,84.37 L72.597,74.042 L74.644,74.042 L74.644,75.398" id="Fill-8" fill="#FFFFFF"></path>
                        <path d="M83.959,84.37 L86.006,84.37 L86.006,74.042 L83.959,74.042 L83.959,84.37 Z M84.994,72.133 C84.327,72.133 83.774,71.582 83.774,70.915 C83.774,70.247 84.327,69.695 84.994,69.695 C85.661,69.695 86.213,70.247 86.213,70.915 C86.213,71.582 85.661,72.133 84.994,72.133 Z" id="Fill-9" fill="#FFFFFF"></path>
                        <polyline id="Fill-10" fill="#FFFFFF" points="87.455 74.042 89.686 74.042 92.47 80.391 95.184 74.042 97.369 74.042 92.815 84.576 92.124 84.576 87.455 74.042"></polyline>
                        <path d="M99.921,78.159 C100.197,76.526 101.141,75.606 102.704,75.606 C104.153,75.606 105.051,76.595 105.119,78.159 L99.921,78.159 Z M106.96,81.379 C105.764,82.162 104.591,82.621 103.349,82.621 C101.37,82.621 100.197,81.564 99.875,79.518 L107.144,79.518 C107.144,75.699 105.396,73.836 102.658,73.836 C99.807,73.836 97.828,75.951 97.828,79.079 C97.828,81.932 99.622,84.576 102.843,84.576 C104.591,84.576 105.718,84.185 106.96,83.358 L106.96,81.379 Z" id="Fill-11" fill="#FFFFFF"></path>
                        <path d="M123.819,76.711 C122.669,75.951 121.588,75.629 120.83,75.629 C120.001,75.629 119.472,76.019 119.472,76.572 C119.472,77.033 120.162,77.584 121.98,78.643 C123.681,79.769 124.302,80.483 124.302,81.541 C124.302,83.358 122.853,84.576 120.898,84.576 C119.633,84.576 118.644,84.324 117.31,83.634 L117.31,81.425 C118.644,82.346 119.862,82.783 120.69,82.783 C121.52,82.737 122.209,82.346 122.209,81.609 C122.209,80.183 117.379,79.425 117.379,76.641 C117.379,74.894 118.713,73.836 120.782,73.836 C121.748,73.836 122.739,74.11 123.819,74.686 L123.819,76.711" id="Fill-12" fill="#FFFFFF"></path>
                        <path d="M126.603,84.37 L128.649,84.37 L128.649,74.042 L126.603,74.042 L126.603,84.37 Z M127.638,72.133 C126.971,72.133 126.418,71.582 126.418,70.915 C126.418,70.247 126.971,69.695 127.638,69.695 C128.305,69.695 128.856,70.247 128.856,70.915 C128.856,71.582 128.305,72.133 127.638,72.133 Z" id="Fill-13" fill="#FFFFFF"></path>
                        <path d="M134.215,74.042 L137.482,74.042 L137.482,75.883 L134.215,75.883 L134.215,81.173 C134.215,82.393 135.09,82.737 135.688,82.737 C136.423,82.737 137.183,82.484 138.01,81.978 L138.01,83.887 C137.298,84.277 136.193,84.576 135.525,84.576 C133.296,84.576 132.168,83.196 132.168,81.333 L132.168,75.883 L130.373,75.883 L130.373,75.652 L134.215,71.903 L134.215,74.042" id="Fill-14" fill="#FFFFFF"></path>
                        <path d="M144.543,82.276 C143.991,82.806 143.392,83.128 142.749,83.128 C141.898,83.128 141.275,82.53 141.275,81.679 C141.275,80.459 142.794,79.862 144.543,79.264 L144.543,82.276 Z M140.933,69.925 C140.334,69.925 139.85,70.386 139.85,70.983 C139.85,71.582 140.334,72.065 140.933,72.065 C141.529,72.065 141.99,71.582 141.99,70.983 C141.99,70.386 141.529,69.925 140.933,69.925 Z M145.209,69.925 C144.611,69.925 144.128,70.386 144.128,70.983 C144.128,71.582 144.611,72.065 145.209,72.065 C145.809,72.065 146.268,71.582 146.268,70.983 C146.268,70.386 145.809,69.925 145.209,69.925 Z M148.061,82.53 C147.602,82.875 147.188,83.082 146.98,83.082 C146.728,83.082 146.59,82.943 146.59,82.553 L146.59,77.239 C146.59,74.894 144.934,73.836 142.84,73.836 C141.346,73.836 140.218,74.295 139.414,75.238 L139.414,77.47 C140.402,76.296 141.552,75.768 142.68,75.768 C143.922,75.768 144.543,76.296 144.543,77.584 L144.543,78.137 L142.726,78.78 C141.069,79.379 139.206,80 139.206,82.046 C139.206,83.381 140.218,84.576 141.736,84.576 C142.68,84.576 143.623,84.231 144.52,83.519 C144.703,84.255 145.187,84.576 146.084,84.576 C146.728,84.576 147.118,84.393 148.061,83.772 L148.061,82.53 Z" id="Fill-15" fill="#FFFFFF"></path>
                        <path d="M152.156,74.042 L155.421,74.042 L155.421,75.883 L152.156,75.883 L152.156,81.173 C152.156,82.393 153.029,82.737 153.627,82.737 C154.363,82.737 155.122,82.484 155.951,81.978 L155.951,83.887 C155.237,84.277 154.134,84.576 153.467,84.576 C151.235,84.576 150.108,83.196 150.108,81.333 L150.108,75.883 L148.315,75.883 L148.315,75.652 L152.156,71.903 L152.156,74.042" id="Fill-16" fill="#FFFFFF"></path>
                        <path d="M171.546,72.133 C170.212,70.868 168.923,70.5 167.864,70.5 C166.416,70.5 165.381,71.26 165.381,72.363 C165.381,75.376 172.166,75.33 172.166,80.321 C172.166,82.783 170.304,84.576 167.772,84.576 C166.07,84.576 164.69,84.117 163.379,83.128 L163.379,80.275 C164.529,81.747 165.978,82.553 167.521,82.553 C169.269,82.553 170.072,81.449 170.072,80.575 C170.072,77.332 163.287,76.963 163.287,72.662 C163.287,70.109 165.174,68.477 168.049,68.477 C169.246,68.477 170.44,68.844 171.546,69.58 L171.546,72.133" id="Fill-17" fill="#FFFFFF"></path>
                        <path d="M176.743,74.042 L180.009,74.042 L180.009,75.883 L176.743,75.883 L176.743,81.173 C176.743,82.393 177.617,82.737 178.215,82.737 C178.951,82.737 179.711,82.484 180.539,81.978 L180.539,83.887 C179.825,84.277 178.723,84.576 178.055,84.576 C175.822,84.576 174.695,83.196 174.695,81.333 L174.695,75.883 L172.902,75.883 L172.902,75.652 L176.743,71.903 L176.743,74.042" id="Fill-18" fill="#FFFFFF"></path>
                        <path d="M184.562,83.196 C184.562,83.955 183.942,84.576 183.183,84.576 C182.424,84.576 181.804,83.955 181.804,83.196 C181.804,82.439 182.424,81.817 183.183,81.817 C183.942,81.817 184.562,82.439 184.562,83.196" id="Fill-19" fill="#FFFFFF"></path>
                        <path d="M201.192,83.288 C199.099,84.209 197.398,84.576 195.213,84.576 C190.404,84.576 186.862,81.219 186.862,76.618 C186.862,71.995 190.496,68.477 195.28,68.477 C197.122,68.477 198.409,68.775 200.871,69.81 L200.871,72.087 C199.031,71.075 197.122,70.546 195.235,70.546 C191.83,70.546 189.186,73.144 189.186,76.549 C189.186,80.046 191.808,82.507 195.534,82.507 C196.754,82.507 197.856,82.231 198.94,81.886 L198.94,78.666 L195.925,78.666 L195.925,76.641 L201.192,76.641 L201.192,83.288" id="Fill-20" fill="#FFFFFF"></path>
                        <path d="M208.781,82.276 C208.231,82.806 207.632,83.128 206.989,83.128 C206.138,83.128 205.516,82.53 205.516,81.679 C205.516,80.459 207.034,79.862 208.781,79.264 L208.781,82.276 Z M212.301,82.53 C211.841,82.875 211.428,83.082 211.221,83.082 C210.967,83.082 210.83,82.943 210.83,82.553 L210.83,77.239 C210.83,74.894 209.175,73.836 207.081,73.836 C205.585,73.836 204.458,74.295 203.653,75.238 L203.653,77.47 C204.642,76.296 205.792,75.768 206.92,75.768 C208.162,75.768 208.781,76.296 208.781,77.584 L208.781,78.137 L206.965,78.78 C205.31,79.379 203.447,80 203.447,82.046 C203.447,83.381 204.458,84.576 205.977,84.576 C206.92,84.576 207.863,84.231 208.759,83.519 C208.943,84.255 209.426,84.576 210.324,84.576 C210.967,84.576 211.357,84.393 212.301,83.772 L212.301,82.53 Z" id="Fill-21" fill="#FFFFFF"></path>
                        <polygon id="Fill-22" fill="#FFFFFF" points="213.935 84.371 215.983 84.371 215.983 68.683 213.935 68.683"></polygon>
                        <polygon id="Fill-23" fill="#FFFFFF" points="218.741 84.371 220.789 84.371 220.789 68.683 218.741 68.683"></polygon>
                        <path d="M224.859,78.159 C225.136,76.526 226.079,75.606 227.642,75.606 C229.093,75.606 229.989,76.595 230.059,78.159 L224.859,78.159 Z M231.898,81.379 C230.701,82.162 229.528,82.621 228.287,82.621 C226.308,82.621 225.136,81.564 224.815,79.518 L232.083,79.518 C232.083,75.699 230.335,73.836 227.597,73.836 C224.744,73.836 222.766,75.951 222.766,79.079 C222.766,81.932 224.561,84.576 227.781,84.576 C229.528,84.576 230.656,84.185 231.898,83.358 L231.898,81.379 Z" id="Fill-24" fill="#FFFFFF"></path>
                        <path d="M236.292,75.398 L236.337,75.398 C237.118,74.41 238.269,73.836 239.418,73.836 C241.375,73.836 242.937,75.17 242.937,77.999 L242.937,84.37 L240.892,84.37 L240.892,77.976 C240.892,76.458 240.11,75.469 238.868,75.469 C237.97,75.469 237.258,75.883 236.292,76.963 L236.292,84.37 L234.243,84.37 L234.243,74.042 L236.292,74.042 L236.292,75.398" id="Fill-25" fill="#FFFFFF"></path>
                        <polyline id="Fill-26" fill="#FFFFFF" points="61.761 1.426 57.648 1.426 57.648 5.001 61.36 5.001 61.36 5.607 57.648 5.607 57.648 10.231 56.917 10.231 56.917 0.819 61.761 0.819 61.761 1.426"></polyline>
                        <path d="M68.095,7.14 C68.095,8.616 67.046,9.706 65.652,9.706 C64.244,9.706 63.196,8.616 63.196,7.14 C63.196,5.649 64.244,4.559 65.652,4.559 C67.046,4.559 68.095,5.663 68.095,7.14 Z M68.799,7.14 C68.799,5.29 67.46,3.91 65.652,3.91 C63.845,3.91 62.492,5.29 62.492,7.14 C62.492,8.976 63.845,10.354 65.652,10.354 C67.46,10.354 68.799,8.976 68.799,7.14 Z" id="Fill-27" fill="#FFFFFF"></path>
                        <path d="M74.181,5.263 C73.587,4.725 73.284,4.559 72.939,4.559 C72.331,4.559 71.627,5.194 70.951,6.339 L70.951,10.231 L70.289,10.231 L70.289,4.034 L70.951,4.034 L70.951,5.663 L70.979,5.663 C71.71,4.504 72.455,3.91 73.146,3.91 C73.573,3.91 73.96,4.103 74.566,4.642 L74.181,5.263" id="Fill-28" fill="#FFFFFF"></path>
                        <path d="M78.307,5.152 C77.616,4.697 77.161,4.518 76.609,4.518 C75.864,4.518 75.284,4.973 75.284,5.566 C75.284,7.057 78.5,6.491 78.5,8.644 C78.5,9.609 77.616,10.354 76.471,10.354 C75.837,10.354 75.243,10.176 74.608,9.789 L74.608,9.141 C75.423,9.555 75.961,9.706 76.554,9.706 C77.314,9.706 77.865,9.265 77.865,8.63 C77.865,7.153 74.649,7.595 74.649,5.607 C74.649,4.655 75.532,3.91 76.65,3.91 C77.189,3.91 77.686,4.076 78.307,4.435 L78.307,5.152" id="Fill-29" fill="#FFFFFF"></path>
                        <path d="M84.185,4.945 C83.468,4.642 83.096,4.559 82.571,4.559 C81.19,4.559 80.238,5.607 80.238,7.153 C80.238,8.713 81.163,9.706 82.626,9.706 C83.191,9.706 83.605,9.624 84.296,9.348 L84.296,10.037 C83.592,10.272 83.15,10.354 82.571,10.354 C80.749,10.354 79.535,9.1 79.535,7.222 C79.535,5.276 80.776,3.91 82.543,3.91 C83.081,3.91 83.495,3.993 84.185,4.214 L84.185,4.945" id="Fill-30" fill="#FFFFFF"></path>
                        <path d="M86.255,5.11 L86.283,5.11 C86.862,4.241 87.428,3.91 88.325,3.91 C89.65,3.91 90.63,4.779 90.63,6.435 L90.63,10.231 L89.967,10.231 L89.967,6.698 C89.967,5.359 89.471,4.559 88.284,4.559 C87.373,4.559 86.821,5.001 86.255,5.884 L86.255,10.231 L85.593,10.231 L85.593,0.819 L86.255,0.819 L86.255,5.11" id="Fill-31" fill="#FFFFFF"></path>
                        <path d="M96.757,9.209 L96.729,9.209 C96.164,10.01 95.652,10.354 94.687,10.354 C93.624,10.354 92.383,9.721 92.383,7.871 L92.383,4.034 L93.045,4.034 L93.045,7.857 C93.045,9.112 93.831,9.706 94.742,9.706 C95.722,9.706 96.219,9.224 96.757,8.382 L96.757,4.034 L97.419,4.034 L97.419,10.231 L96.757,10.231 L96.757,9.209" id="Fill-32" fill="#FFFFFF"></path>
                        <path d="M99.834,5.11 L99.862,5.11 C100.441,4.241 101.008,3.91 101.904,3.91 C103.228,3.91 104.209,4.779 104.209,6.449 L104.209,10.231 L103.547,10.231 L103.547,6.698 C103.547,5.304 102.953,4.559 101.862,4.559 C100.966,4.559 100.387,4.986 99.834,5.884 L99.834,10.231 L99.172,10.231 L99.172,4.034 L99.834,4.034 L99.834,5.11" id="Fill-33" fill="#FFFFFF"></path>
                        <path d="M109.673,6.228 C109.673,7.14 108.928,7.885 108.018,7.885 C107.079,7.885 106.375,7.126 106.375,6.201 C106.375,5.304 107.079,4.586 108.003,4.586 C108.928,4.586 109.673,5.318 109.673,6.228 Z M110.86,4.034 L108.376,4.034 C106.389,4.034 105.74,5.207 105.74,6.242 C105.74,6.988 106.154,7.94 107.397,8.299 L107.397,8.326 C106.665,8.547 106.154,8.781 106.154,9.334 C106.154,9.762 106.5,10.065 107.162,10.217 L107.162,10.245 C106.003,10.424 105.354,10.963 105.354,11.749 C105.354,12.632 106.168,13.405 108.072,13.405 C109.811,13.405 110.847,12.728 110.847,11.597 C110.847,8.976 106.789,10.631 106.789,9.278 C106.789,8.078 110.309,8.988 110.309,6.215 C110.309,5.594 110.046,5.125 109.453,4.573 L110.86,4.573 L110.86,4.034 Z M110.212,11.652 C110.212,12.384 109.384,12.853 108.114,12.853 C106.748,12.853 105.988,12.438 105.988,11.708 C105.988,10.672 107.466,10.562 108.238,10.562 C109.356,10.562 110.212,10.783 110.212,11.652 Z" id="Fill-34" fill="#FFFFFF"></path>
                        <path d="M115.29,5.152 C114.6,4.697 114.145,4.518 113.592,4.518 C112.847,4.518 112.268,4.973 112.268,5.566 C112.268,7.057 115.482,6.491 115.482,8.644 C115.482,9.609 114.6,10.354 113.455,10.354 C112.819,10.354 112.226,10.176 111.592,9.789 L111.592,9.141 C112.405,9.555 112.943,9.706 113.537,9.706 C114.296,9.706 114.849,9.265 114.849,8.63 C114.849,7.153 111.633,7.595 111.633,5.607 C111.633,4.655 112.516,3.91 113.634,3.91 C114.172,3.91 114.669,4.076 115.29,4.435 L115.29,5.152" id="Fill-35" fill="#FFFFFF"></path>
                        <path d="M120.202,5.152 C119.513,4.697 119.057,4.518 118.505,4.518 C117.76,4.518 117.181,4.973 117.181,5.566 C117.181,7.057 120.396,6.491 120.396,8.644 C120.396,9.609 119.513,10.354 118.367,10.354 C117.732,10.354 117.139,10.176 116.504,9.789 L116.504,9.141 C117.318,9.555 117.856,9.706 118.45,9.706 C119.209,9.706 119.761,9.265 119.761,8.63 C119.761,7.153 116.545,7.595 116.545,5.607 C116.545,4.655 117.429,3.91 118.547,3.91 C119.084,3.91 119.581,4.076 120.202,4.435 L120.202,5.152" id="Fill-36" fill="#FFFFFF"></path>
                        <path d="M122.921,4.034 L124.66,4.034 L124.66,4.573 L122.921,4.573 L122.921,8.258 C122.921,9.32 122.935,9.706 123.846,9.706 C124.218,9.706 124.425,9.651 124.978,9.402 L124.978,10.037 C124.853,10.106 124.646,10.176 124.411,10.245 C124.177,10.3 123.915,10.354 123.693,10.354 C123.004,10.354 122.259,9.969 122.259,9.03 L122.259,4.573 L120.589,4.573 L120.589,4.034 L122.259,4.034 L122.259,2.558 L122.714,1.978 L122.921,1.978 L122.921,4.034" id="Fill-37" fill="#FFFFFF"></path>
                        <path d="M126.384,6.367 C126.619,5.235 127.42,4.559 128.44,4.559 C129.504,4.559 130.166,5.152 130.4,6.367 L126.384,6.367 Z M131.186,6.905 C131.186,4.835 129.766,3.91 128.44,3.91 C126.799,3.91 125.598,5.235 125.598,7.057 C125.598,8.976 126.896,10.354 128.69,10.354 C129.586,10.354 130.346,10.093 131.076,9.527 L131.076,8.781 C130.276,9.431 129.601,9.706 128.772,9.706 C127.364,9.706 126.108,8.492 126.302,6.905 L131.186,6.905 Z" id="Fill-38" fill="#FFFFFF"></path>
                        <polygon id="Fill-39" fill="#FFFFFF" points="132.649 10.23 133.311 10.23 133.311 0.819 132.649 0.819"></polygon>
                        <polygon id="Fill-40" fill="#FFFFFF" points="135.272 10.23 135.934 10.23 135.934 0.819 135.272 0.819"></polygon>
                        <path d="M138.266,6.367 C138.5,5.235 139.301,4.559 140.322,4.559 C141.385,4.559 142.047,5.152 142.281,6.367 L138.266,6.367 Z M143.068,6.905 C143.068,4.835 141.647,3.91 140.322,3.91 C138.68,3.91 137.479,5.235 137.479,7.057 C137.479,8.976 138.776,10.354 140.57,10.354 C141.468,10.354 142.227,10.093 142.958,9.527 L142.958,8.781 C142.157,9.431 141.481,9.706 140.653,9.706 C139.245,9.706 137.99,8.492 138.183,6.905 L143.068,6.905 Z" id="Fill-41" fill="#FFFFFF"></path>
                        <path d="M60.422,17.679 C59.898,17.499 59.649,17.443 59.305,17.443 C58.27,17.443 57.801,18.051 57.801,19.361 L57.801,20.135 L59.001,20.135 L59.001,20.673 L57.801,20.673 L57.801,26.331 L57.138,26.331 L57.138,20.673 L55.992,20.673 L55.992,20.135 L57.138,20.135 L57.138,19.113 C57.138,17.513 58.256,16.795 59.291,16.795 C59.663,16.795 59.94,16.864 60.422,17.058 L60.422,17.679" id="Fill-42" fill="#FFFFFF"></path>
                        <path d="M64.396,18.161 C64.396,18.492 64.12,18.769 63.79,18.769 C63.458,18.769 63.182,18.492 63.182,18.161 C63.182,17.83 63.458,17.554 63.79,17.554 C64.12,17.554 64.396,17.83 64.396,18.161 Z M61.954,18.161 C61.954,18.492 61.678,18.769 61.347,18.769 C61.016,18.769 60.739,18.492 60.739,18.161 C60.739,17.83 61.016,17.554 61.347,17.554 C61.678,17.554 61.954,17.83 61.954,18.161 Z M64.41,25.31 L64.383,25.31 C63.817,26.11 63.306,26.455 62.34,26.455 C61.278,26.455 60.036,25.82 60.036,23.971 L60.036,20.135 L60.698,20.135 L60.698,23.957 C60.698,25.213 61.484,25.807 62.395,25.807 C63.375,25.807 63.872,25.323 64.41,24.481 L64.41,20.135 L65.072,20.135 L65.072,26.331 L64.41,26.331 L64.41,25.31 Z" id="Fill-43" fill="#FFFFFF"></path>
                        <path d="M70.731,21.363 C70.137,20.824 69.834,20.659 69.488,20.659 C68.882,20.659 68.178,21.294 67.501,22.439 L67.501,26.331 L66.839,26.331 L66.839,20.135 L67.501,20.135 L67.501,21.763 L67.528,21.763 C68.261,20.603 69.006,20.01 69.695,20.01 C70.124,20.01 70.51,20.203 71.117,20.742 L70.731,21.363" id="Fill-44" fill="#FFFFFF"></path>
                        <polygon id="Fill-45" fill="#FFFFFF" points="75.532 26.331 76.264 26.331 76.264 16.919 75.532 16.919"></polygon>
                        <path d="M78.872,21.211 L78.9,21.211 C79.479,20.342 80.045,20.01 80.942,20.01 C82.267,20.01 83.247,20.88 83.247,22.55 L83.247,26.331 L82.584,26.331 L82.584,22.798 C82.584,21.404 81.991,20.659 80.9,20.659 C80.004,20.659 79.425,21.087 78.872,21.984 L78.872,26.331 L78.21,26.331 L78.21,20.135 L78.872,20.135 L78.872,21.211" id="Fill-46" fill="#FFFFFF"></path>
                        <path d="M86.214,20.135 L87.952,20.135 L87.952,20.673 L86.214,20.673 L86.214,24.357 C86.214,25.42 86.228,25.807 87.139,25.807 C87.511,25.807 87.719,25.751 88.271,25.503 L88.271,26.138 C88.146,26.207 87.94,26.275 87.704,26.345 C87.47,26.399 87.207,26.455 86.986,26.455 C86.297,26.455 85.552,26.068 85.552,25.13 L85.552,20.673 L83.882,20.673 L83.882,20.135 L85.552,20.135 L85.552,18.658 L86.007,18.078 L86.214,18.078 L86.214,20.135" id="Fill-47" fill="#FFFFFF"></path>
                        <path d="M89.678,22.467 C89.912,21.335 90.712,20.659 91.733,20.659 C92.796,20.659 93.459,21.252 93.693,22.467 L89.678,22.467 Z M94.479,23.005 C94.479,20.935 93.059,20.01 91.733,20.01 C90.092,20.01 88.891,21.335 88.891,23.156 C88.891,25.075 90.188,26.455 91.982,26.455 C92.879,26.455 93.638,26.192 94.369,25.627 L94.369,24.882 C93.568,25.53 92.893,25.807 92.065,25.807 C90.657,25.807 89.401,24.592 89.595,23.005 L94.479,23.005 Z" id="Fill-48" fill="#FFFFFF"></path>
                        <path d="M99.737,21.363 C99.145,20.824 98.841,20.659 98.496,20.659 C97.888,20.659 97.185,21.294 96.509,22.439 L96.509,26.331 L95.846,26.331 L95.846,20.135 L96.509,20.135 L96.509,21.763 L96.536,21.763 C97.267,20.603 98.013,20.01 98.702,20.01 C99.13,20.01 99.517,20.203 100.124,20.742 L99.737,21.363" id="Fill-49" fill="#FFFFFF"></path>
                        <path d="M101.117,21.211 L101.145,21.211 C101.725,20.342 102.29,20.01 103.188,20.01 C104.513,20.01 105.492,20.88 105.492,22.55 L105.492,26.331 L104.83,26.331 L104.83,22.798 C104.83,21.404 104.236,20.659 103.147,20.659 C102.249,20.659 101.669,21.087 101.117,21.984 L101.117,26.331 L100.455,26.331 L100.455,20.135 L101.117,20.135 L101.117,21.211" id="Fill-50" fill="#FFFFFF"></path>
                        <path d="M110.501,25.103 C109.853,25.683 109.369,25.903 108.776,25.903 C108.072,25.903 107.548,25.462 107.548,24.882 C107.548,23.806 108.887,23.102 110.501,23.171 L110.501,25.103 Z M112.198,25.254 C111.867,25.517 111.468,25.807 111.315,25.807 C111.205,25.807 111.164,25.737 111.164,25.489 L111.164,21.625 C111.164,20.327 110.005,20.01 109.231,20.01 C108.556,20.01 107.99,20.203 107.23,20.673 L107.23,21.349 C107.962,20.797 108.459,20.562 109.121,20.562 C110.046,20.562 110.501,21.004 110.501,21.832 L110.501,22.618 C108.693,22.701 106.886,23.267 106.886,24.882 C106.886,25.751 107.617,26.455 108.556,26.455 C109.218,26.455 109.811,26.22 110.501,25.683 C110.557,26.304 110.639,26.455 110.943,26.455 C111.205,26.455 111.468,26.358 112.089,25.89 L112.198,25.807 L112.198,25.254 Z" id="Fill-51" fill="#FFFFFF"></path>
                        <path d="M114.379,20.135 L116.118,20.135 L116.118,20.673 L114.379,20.673 L114.379,24.357 C114.379,25.42 114.393,25.807 115.304,25.807 C115.676,25.807 115.883,25.751 116.435,25.503 L116.435,26.138 C116.312,26.207 116.103,26.275 115.869,26.345 C115.635,26.399 115.372,26.455 115.151,26.455 C114.462,26.455 113.716,26.068 113.716,25.13 L113.716,20.673 L112.047,20.673 L112.047,20.135 L113.716,20.135 L113.716,18.658 L114.172,18.078 L114.379,18.078 L114.379,20.135" id="Fill-52" fill="#FFFFFF"></path>
                        <path d="M117.47,26.331 L118.132,26.331 L118.132,20.135 L117.47,20.135 L117.47,26.331 Z M117.47,18.051 L118.132,18.051 L118.132,16.919 L117.47,16.919 L117.47,18.051 Z" id="Fill-53" fill="#FFFFFF"></path>
                        <path d="M125.309,23.239 C125.309,24.717 124.26,25.807 122.866,25.807 C121.458,25.807 120.409,24.717 120.409,23.239 C120.409,21.749 121.458,20.659 122.866,20.659 C124.26,20.659 125.309,21.763 125.309,23.239 Z M126.012,23.239 C126.012,21.391 124.673,20.01 122.866,20.01 C121.058,20.01 119.705,21.391 119.705,23.239 C119.705,25.075 121.058,26.455 122.866,26.455 C124.673,26.455 126.012,25.075 126.012,23.239 Z" id="Fill-54" fill="#FFFFFF"></path>
                        <path d="M128.15,21.211 L128.179,21.211 C128.758,20.342 129.324,20.01 130.221,20.01 C131.546,20.01 132.525,20.88 132.525,22.55 L132.525,26.331 L131.863,26.331 L131.863,22.798 C131.863,21.404 131.27,20.659 130.18,20.659 C129.282,20.659 128.703,21.087 128.15,21.984 L128.15,26.331 L127.488,26.331 L127.488,20.135 L128.15,20.135 L128.15,21.211" id="Fill-55" fill="#FFFFFF"></path>
                        <path d="M137.534,25.103 C136.886,25.683 136.403,25.903 135.81,25.903 C135.105,25.903 134.581,25.462 134.581,24.882 C134.581,23.806 135.92,23.102 137.534,23.171 L137.534,25.103 Z M139.231,25.254 C138.9,25.517 138.501,25.807 138.349,25.807 C138.238,25.807 138.197,25.737 138.197,25.489 L138.197,21.625 C138.197,20.327 137.038,20.01 136.265,20.01 C135.589,20.01 135.023,20.203 134.264,20.673 L134.264,21.349 C134.995,20.797 135.492,20.562 136.154,20.562 C137.079,20.562 137.534,21.004 137.534,21.832 L137.534,22.618 C135.727,22.701 133.919,23.267 133.919,24.882 C133.919,25.751 134.65,26.455 135.589,26.455 C136.251,26.455 136.845,26.22 137.534,25.683 C137.59,26.304 137.673,26.455 137.977,26.455 C138.238,26.455 138.501,26.358 139.122,25.89 L139.231,25.807 L139.231,25.254 Z" id="Fill-56" fill="#FFFFFF"></path>
                        <polygon id="Fill-57" fill="#FFFFFF" points="140.309 26.331 140.971 26.331 140.971 16.919 140.309 16.919"></polygon>
                        <path d="M143.303,22.467 C143.537,21.335 144.338,20.659 145.358,20.659 C146.422,20.659 147.084,21.252 147.318,22.467 L143.303,22.467 Z M148.105,23.005 C148.105,20.935 146.684,20.01 145.358,20.01 C143.717,20.01 142.517,21.335 142.517,23.156 C142.517,25.075 143.814,26.455 145.607,26.455 C146.504,26.455 147.264,26.192 147.994,25.627 L147.994,24.882 C147.194,25.53 146.519,25.807 145.69,25.807 C144.282,25.807 143.026,24.592 143.22,23.005 L148.105,23.005 Z" id="Fill-58" fill="#FFFFFF"></path>
                        <path d="M152.866,21.252 C152.176,20.797 151.721,20.617 151.169,20.617 C150.424,20.617 149.844,21.072 149.844,21.666 C149.844,23.156 153.06,22.591 153.06,24.744 C153.06,25.71 152.176,26.455 151.03,26.455 C150.396,26.455 149.803,26.275 149.168,25.89 L149.168,25.24 C149.981,25.654 150.521,25.807 151.113,25.807 C151.872,25.807 152.425,25.365 152.425,24.729 C152.425,23.253 149.209,23.695 149.209,21.708 C149.209,20.756 150.093,20.01 151.21,20.01 C151.748,20.01 152.245,20.176 152.866,20.535 L152.866,21.252" id="Fill-59" fill="#FFFFFF"></path>
                        <polyline id="Fill-60" fill="#FFFFFF" points="166.349 16.919 167.08 16.919 167.08 26.331 166.349 26.331 166.349 17.981 166.321 17.981 162.761 22.384 159.2 17.981 159.172 17.981 159.172 26.331 158.441 26.331 158.441 16.919 159.172 16.919 162.761 21.294 166.349 16.919"></polyline>
                        <path d="M172.296,25.103 C171.647,25.683 171.165,25.903 170.571,25.903 C169.867,25.903 169.343,25.462 169.343,24.882 C169.343,23.806 170.682,23.102 172.296,23.171 L172.296,25.103 Z M173.993,25.254 C173.662,25.517 173.262,25.807 173.11,25.807 C173,25.807 172.959,25.737 172.959,25.489 L172.959,21.625 C172.959,20.327 171.799,20.01 171.026,20.01 C170.351,20.01 169.784,20.203 169.025,20.673 L169.025,21.349 C169.757,20.797 170.254,20.562 170.916,20.562 C171.841,20.562 172.296,21.004 172.296,21.832 L172.296,22.618 C170.488,22.701 168.681,23.267 168.681,24.882 C168.681,25.751 169.412,26.455 170.351,26.455 C171.013,26.455 171.606,26.22 172.296,25.683 C172.352,26.304 172.435,26.455 172.737,26.455 C173,26.455 173.262,26.358 173.883,25.89 L173.993,25.807 L173.993,25.254 Z" id="Fill-61" fill="#FFFFFF"></path>
                        <path d="M175.621,21.211 L175.649,21.211 C176.23,20.342 176.795,20.01 177.691,20.01 C179.017,20.01 179.996,20.88 179.996,22.55 L179.996,26.331 L179.334,26.331 L179.334,22.798 C179.334,21.404 178.74,20.659 177.65,20.659 C176.754,20.659 176.174,21.087 175.621,21.984 L175.621,26.331 L174.959,26.331 L174.959,20.135 L175.621,20.135 L175.621,21.211" id="Fill-62" fill="#FFFFFF"></path>
                        <path d="M185.006,25.103 C184.356,25.683 183.874,25.903 183.28,25.903 C182.577,25.903 182.053,25.462 182.053,24.882 C182.053,23.806 183.392,23.102 185.006,23.171 L185.006,25.103 Z M186.702,25.254 C186.371,25.517 185.972,25.807 185.819,25.807 C185.71,25.807 185.668,25.737 185.668,25.489 L185.668,21.625 C185.668,20.327 184.509,20.01 183.736,20.01 C183.06,20.01 182.494,20.203 181.734,20.673 L181.734,21.349 C182.467,20.797 182.963,20.562 183.625,20.562 C184.55,20.562 185.006,21.004 185.006,21.832 L185.006,22.618 C183.197,22.701 181.39,23.267 181.39,24.882 C181.39,25.751 182.122,26.455 183.06,26.455 C183.722,26.455 184.316,26.22 185.006,25.683 C185.06,26.304 185.144,26.455 185.447,26.455 C185.71,26.455 185.972,26.358 186.593,25.89 L186.702,25.807 L186.702,25.254 Z" id="Fill-63" fill="#FFFFFF"></path>
                        <path d="M191.381,22.329 C191.381,23.239 190.636,23.984 189.725,23.984 C188.787,23.984 188.083,23.226 188.083,22.301 C188.083,21.404 188.787,20.687 189.711,20.687 C190.636,20.687 191.381,21.418 191.381,22.329 Z M192.568,20.135 L190.084,20.135 C188.097,20.135 187.448,21.308 187.448,22.342 C187.448,23.088 187.861,24.04 189.103,24.398 L189.103,24.426 C188.372,24.647 187.861,24.882 187.861,25.434 C187.861,25.861 188.207,26.165 188.869,26.316 L188.869,26.345 C187.71,26.523 187.061,27.063 187.061,27.849 C187.061,28.731 187.876,29.505 189.779,29.505 C191.52,29.505 192.554,28.828 192.554,27.697 C192.554,25.075 188.497,26.731 188.497,25.378 C188.497,24.178 192.016,25.089 192.016,22.314 C192.016,21.693 191.754,21.225 191.16,20.673 L192.568,20.673 L192.568,20.135 Z M191.919,27.752 C191.919,28.483 191.092,28.952 189.821,28.952 C188.456,28.952 187.696,28.539 187.696,27.808 C187.696,26.772 189.173,26.662 189.946,26.662 C191.064,26.662 191.919,26.883 191.919,27.752 Z" id="Fill-64" fill="#FFFFFF"></path>
                        <path d="M194.072,22.467 C194.307,21.335 195.106,20.659 196.128,20.659 C197.19,20.659 197.854,21.252 198.088,22.467 L194.072,22.467 Z M198.874,23.005 C198.874,20.935 197.452,20.01 196.128,20.01 C194.485,20.01 193.285,21.335 193.285,23.156 C193.285,25.075 194.582,26.455 196.376,26.455 C197.273,26.455 198.033,26.192 198.764,25.627 L198.764,24.882 C197.963,25.53 197.287,25.807 196.46,25.807 C195.051,25.807 193.796,24.592 193.989,23.005 L198.874,23.005 Z" id="Fill-65" fill="#FFFFFF"></path>
                        <path d="M200.86,21.225 L200.889,21.225 C201.441,20.356 202.021,20.01 202.862,20.01 C203.828,20.01 204.464,20.493 204.863,21.501 C205.484,20.466 206.119,20.01 207.017,20.01 C208.314,20.01 209.169,21.004 209.169,22.522 L209.169,26.331 L208.507,26.331 L208.507,22.811 C208.507,21.569 207.982,20.659 206.892,20.659 C206.133,20.659 205.636,21.072 205.015,22.108 L205.015,26.331 L204.353,26.331 L204.353,22.798 C204.353,21.267 203.593,20.659 202.724,20.659 C201.965,20.659 201.441,21.031 200.86,21.984 L200.86,26.331 L200.199,26.331 L200.199,20.135 L200.86,20.135 L200.86,21.225" id="Fill-66" fill="#FFFFFF"></path>
                        <path d="M211.377,22.467 C211.611,21.335 212.411,20.659 213.434,20.659 C214.496,20.659 215.158,21.252 215.393,22.467 L211.377,22.467 Z M216.179,23.005 C216.179,20.935 214.758,20.01 213.434,20.01 C211.79,20.01 210.59,21.335 210.59,23.156 C210.59,25.075 211.887,26.455 213.682,26.455 C214.579,26.455 215.338,26.192 216.069,25.627 L216.069,24.882 C215.269,25.53 214.592,25.807 213.765,25.807 C212.356,25.807 211.101,24.592 211.294,23.005 L216.179,23.005 Z" id="Fill-67" fill="#FFFFFF"></path>
                        <path d="M218.194,21.211 L218.222,21.211 C218.802,20.342 219.366,20.01 220.264,20.01 C221.589,20.01 222.568,20.88 222.568,22.55 L222.568,26.331 L221.905,26.331 L221.905,22.798 C221.905,21.404 221.312,20.659 220.222,20.659 C219.326,20.659 218.745,21.087 218.194,21.984 L218.194,26.331 L217.531,26.331 L217.531,20.135 L218.194,20.135 L218.194,21.211" id="Fill-68" fill="#FFFFFF"></path>
                        <path d="M225.535,20.135 L227.273,20.135 L227.273,20.673 L225.535,20.673 L225.535,24.357 C225.535,25.42 225.549,25.807 226.46,25.807 C226.832,25.807 227.039,25.751 227.592,25.503 L227.592,26.138 C227.467,26.207 227.26,26.275 227.025,26.345 C226.791,26.399 226.529,26.455 226.308,26.455 C225.618,26.455 224.873,26.068 224.873,25.13 L224.873,20.673 L223.203,20.673 L223.203,20.135 L224.873,20.135 L224.873,18.658 L225.328,18.078 L225.535,18.078 L225.535,20.135" id="Fill-69" fill="#FFFFFF"></path>
                    </g>
                </g>
            </g>
        </g>
    </g>
</svg>