<?xml version="1.0" encoding="UTF-8"?>
<svg width="185px" height="65px" viewBox="0 0 185 65" version="1.1" xmlns="http://www.w3.org/2000/svg" xmlns:xlink="http://www.w3.org/1999/xlink">
    <!-- Generator: Sketch 51.2 (57519) - http://www.bohemiancoding.com/sketch -->
    <title>logo</title>
    <desc>Created with Sketch.</desc>
    <defs></defs>
    <g id="Page-1" stroke="none" stroke-width="1" fill="none" fill-rule="evenodd">
        <g id="Desktop-v2" transform="translate(-508.000000, -543.000000)" fill="#FFFFFF" fill-rule="nonzero">
            <g id="Group-41" transform="translate(250.000000, 484.000000)">
                <g id="logo" transform="translate(258.000000, 59.000000)">
                    <g id="Group-38" transform="translate(0.000000, 25.113636)">
                        <path d="M13.875,10.2670455 C14.102459,10.2670455 14.1782787,10.2670455 14.4057377,10.2670455 C14.4815574,10.3409091 14.6331967,10.4147727 14.7848361,10.4147727 C14.7848361,10.4147727 14.7848361,10.4147727 14.8606557,10.4147727 C14.9364754,10.4886364 15.0122951,10.4886364 15.0881148,10.4886364 C15.1639344,10.5625 15.1639344,10.6363636 15.3155738,10.7102273 C15.3913934,10.7840909 15.3913934,10.7840909 15.4672131,10.8579545 C15.5430328,10.8579545 15.5430328,10.9318182 15.5430328,10.9318182 C15.5430328,10.9318182 15.6188525,11.1534091 15.4672131,11.3011364 C15.3155738,11.5227273 15.3155738,11.5965909 15.1639344,11.8181818 C15.0122951,11.9659091 15.0122951,12.1136364 14.9364754,12.2613636 C14.9364754,12.2613636 14.9364754,12.3352273 14.9364754,12.3352273 C14.7848361,12.4090909 14.8606557,12.4829545 14.7848361,12.5568182 C14.7848361,12.7045455 14.7090164,12.8522727 14.7090164,13 C14.6331967,13.0738636 14.6331967,13.1477273 14.557377,13.2215909 C14.4815574,13.4431818 14.4815574,13.7386364 14.6331967,13.8863636 C14.7090164,14.0340909 14.7090164,14.1818182 14.7848361,14.3295455 C14.8606557,14.4772727 14.9364754,14.5511364 15.0122951,14.625 C15.0122951,14.7727273 15.2397541,14.9204545 15.2397541,14.9204545 L15.4672131,14.9943182 C15.5430328,15.0681818 15.6188525,15.0681818 15.6946721,15.1420455 C15.8463115,15.2159091 16.0737705,15.2897727 16.1495902,15.4375 C16.2254098,15.5113636 16.2254098,15.6590909 16.2254098,15.7329545 C16.3770492,15.8068182 16.3012295,15.9545455 16.4528689,16.0284091 C16.5286885,16.1761364 15.9979508,16.5454545 15.8463115,16.6193182 C15.6188525,16.6931818 15.4672131,16.8409091 15.3155738,16.9886364 L15.2397541,17.1363636 C15.0122951,17.2102273 14.8606557,17.4318182 14.6331967,17.5056818 C14.557377,17.6534091 14.4057377,17.5795455 14.2540984,17.6534091 C14.1782787,17.6534091 14.102459,17.5795455 14.0266393,17.5795455 C13.875,17.6534091 13.875,17.8011364 13.7233607,17.9488636 C13.7233607,18.0227273 13.647541,18.0227273 13.5717213,18.0965909 C13.4959016,18.0965909 13.4959016,18.0965909 13.420082,18.1704545 C13.2684426,18.1704545 13.192623,18.1704545 13.1168033,18.2443182 C13.1168033,18.4659091 12.8893443,18.4659091 12.7377049,18.5397727 C12.6618852,18.6136364 12.5860656,18.5397727 12.5860656,18.6136364 C12.5102459,18.6136364 12.3586066,18.6875 12.2827869,18.6875 C12.2069672,18.7613636 12.0553279,18.7613636 11.9795082,18.7613636 C11.9036885,18.8352273 11.8278689,18.9829545 11.6762295,18.9090909 C11.6762295,18.9829545 11.5245902,18.9829545 11.4487705,19.0568182 C11.3729508,19.2045455 11.2213115,19.2045455 11.1454918,19.2784091 C11.0696721,19.2784091 10.9938525,19.3522727 10.8422131,19.3522727 C10.7663934,19.4261364 10.6147541,19.5 10.5389344,19.5 C10.4631148,19.5738636 10.4631148,19.6477273 10.3114754,19.7215909 C10.1598361,19.7215909 10.0081967,19.8693182 9.85655738,19.9431818 C9.70491803,20.0170455 9.62909836,20.0909091 9.55327869,20.1647727 C9.47745902,20.1647727 9.40163934,20.2386364 9.40163934,20.3125 C9.17418033,20.6079545 8.87090164,20.7556818 8.56762295,21.0511364 C8.49180328,21.125 8.41598361,21.1988636 8.34016393,21.2727273 C8.26434426,21.2727273 8.26434426,21.3465909 8.26434426,21.3465909 C8.11270492,21.4204545 8.03688525,21.4943182 7.96106557,21.5681818 C7.96106557,21.6420455 7.80942623,21.6420455 7.80942623,21.7159091 C7.65778689,21.7897727 7.58196721,21.8636364 7.58196721,22.0113636 C7.58196721,22.0852273 7.50614754,22.0852273 7.50614754,22.0852273 C7.43032787,22.0852273 7.3545082,22.1590909 7.3545082,22.2329545 C7.27868852,22.3068182 7.12704918,22.3068182 7.20286885,22.4545455 C7.12704918,22.5284091 7.05122951,22.6761364 6.89959016,22.6761364 C6.82377049,22.75 6.67213115,22.8238636 6.67213115,22.8977273 C6.21721311,22.8977273 6.06557377,23.0454545 5.91393443,23.1931818 C5.83811475,23.3409091 5.68647541,23.3409091 5.61065574,23.4147727 C5.53483607,23.4147727 5.45901639,23.4147727 5.38319672,23.4886364 C5.30737705,23.4886364 5.23155738,23.4886364 5.1557377,23.6363636 C5.00409836,23.7102273 4.77663934,23.8579545 4.625,23.7840909 C4.39754098,23.8579545 4.17008197,23.7102273 4.01844262,23.5625 C4.01844262,23.4147727 3.94262295,23.4147727 3.86680328,23.2670455 C3.79098361,23.0454545 3.79098361,22.8238636 3.86680328,22.6022727 C3.79098361,22.4545455 3.94262295,22.3806818 3.86680328,22.2329545 C3.86680328,22.0852273 3.86680328,22.0113636 3.86680328,21.8636364 C3.79098361,21.7897727 3.86680328,21.7159091 3.79098361,21.6420455 C3.71516393,21.5681818 3.79098361,21.4204545 3.79098361,21.3465909 C3.79098361,21.2727273 3.86680328,21.0511364 3.79098361,20.9772727 C3.63934426,20.9034091 3.63934426,20.8295455 3.56352459,20.7556818 C3.56352459,20.6818182 3.48770492,20.6818182 3.48770492,20.6079545 C3.41188525,20.4602273 3.33606557,20.3863636 3.33606557,20.2386364 C3.2602459,20.0909091 3.33606557,19.8693182 3.18442623,19.7215909 C3.18442623,19.6477273 3.10860656,19.5738636 3.18442623,19.5738636 C3.10860656,19.2045455 3.03278689,18.8352273 2.95696721,18.5397727 C2.88114754,18.3920455 2.88114754,18.3181818 2.80532787,18.1704545 C2.65368852,18.0227273 2.65368852,17.8011364 2.65368852,17.6534091 C2.50204918,17.5056818 2.42622951,17.2840909 2.35040984,17.1363636 C2.27459016,17.0625 2.35040984,16.9147727 2.27459016,16.8409091 C2.27459016,16.6193182 2.19877049,16.4715909 2.12295082,16.3238636 C2.12295082,16.25 2.04713115,16.25 2.04713115,16.1761364 C1.8954918,15.9545455 1.8954918,15.8068182 1.81967213,15.5852273 C1.66803279,15.3636364 1.59221311,15.1420455 1.51639344,14.9204545 C1.28893443,14.6988636 1.44057377,14.4034091 1.3647541,14.1079545 C1.28893443,13.8863636 1.3647541,13.6647727 1.3647541,13.4431818 C1.3647541,13.2215909 1.3647541,12.9261364 1.28893443,12.6306818 C1.21311475,12.5568182 1.28893443,12.3352273 1.13729508,12.3352273 C1.13729508,12.1875 0.985655738,12.1136364 0.985655738,11.9659091 C0.758196721,11.8920455 0.834016393,11.8181818 0.758196721,11.7443182 C0.682377049,11.5965909 0.758196721,11.4488636 0.834016393,11.3011364 C0.909836066,11.2272727 0.758196721,11.1534091 0.909836066,11.0795455 C0.909836066,11.0056818 0.985655738,10.9318182 1.06147541,10.9318182 C1.21311475,10.7102273 1.28893443,10.4147727 1.44057377,10.1931818 C1.44057377,10.1193182 1.51639344,10.0454545 1.51639344,9.97159091 C1.81967213,9.60227273 2.27459016,9.97159091 2.57786885,9.75 C2.65368852,9.75 2.7295082,9.75 2.7295082,9.67613636 C3.2602459,9.60227273 3.79098361,10.0454545 4.24590164,10.1931818 C4.54918033,10.2670455 4.77663934,10.4886364 5.07991803,10.4886364 C5.1557377,10.4886364 5.30737705,10.4886364 5.38319672,10.4147727 C5.68647541,10.4147727 5.91393443,10.4147727 6.21721311,10.4147727 C6.36885246,10.4147727 6.5204918,10.3409091 6.67213115,10.4147727 C7.12704918,10.4147727 7.50614754,10.5625 7.96106557,10.4886364 C8.03688525,10.4886364 8.11270492,10.4886364 8.18852459,10.4886364 C8.64344262,10.4886364 9.02254098,10.2670455 9.40163934,10.2670455 C9.47745902,10.2670455 9.55327869,10.2670455 9.62909836,10.2670455 C9.85655738,10.3409091 10.0840164,10.4886364 10.3114754,10.4886364 C10.4631148,10.4886364 10.6905738,10.3409091 10.8422131,10.4147727 C10.9938525,10.4147727 11.1454918,10.4147727 11.2213115,10.4147727 C11.3729508,10.4147727 11.5245902,10.4886364 11.6762295,10.4886364 C11.9036885,10.4886364 12.1311475,10.4147727 12.3586066,10.4147727 C12.6618852,10.4147727 12.8893443,10.3409091 13.192623,10.2670455 C13.4959016,10.1193182 13.647541,10.1931818 13.875,10.2670455 Z" id="Shape"></path>
                        <path d="M35.0286885,17.1363636 C34.8770492,17.2102273 34.7254098,17.1363636 34.4979508,17.1363636 L34.0430328,17.2102273 L33.9672131,17.2102273 C33.7397541,17.3579545 33.4364754,17.2840909 33.1331967,17.4318182 C33.057377,17.5056818 32.9057377,17.4318182 32.829918,17.5056818 C32.6782787,17.5795455 32.4508197,17.5795455 32.2991803,17.6534091 C31.920082,17.5795455 31.6168033,17.7272727 31.3135246,17.7272727 L31.0102459,17.875 C30.8586066,17.875 30.6311475,17.9488636 30.4795082,17.9488636 C30.3278689,17.875 30.1004098,17.9488636 29.9487705,18.0227273 C29.5696721,18.0965909 29.3422131,17.7272727 28.9631148,17.8011364 C28.8872951,17.7272727 28.8114754,17.7272727 28.7356557,17.7272727 C28.7356557,17.7272727 28.6598361,17.8011364 28.6598361,17.7272727 C28.5840164,17.7272727 28.5081967,17.7272727 28.3565574,17.7272727 C28.2807377,17.6534091 28.204918,17.5795455 28.1290984,17.5795455 C28.0532787,17.5795455 28.0532787,17.4318182 27.977459,17.5056818 C27.9016393,17.4318182 27.75,17.4318182 27.5983607,17.4318182 L27.067623,17.4318182 C27.067623,17.4318182 26.9918033,17.4318182 26.9918033,17.4318182 C26.8401639,17.4318182 26.6885246,17.5056818 26.5368852,17.4318182 C26.3094262,17.5056818 26.0819672,17.5795455 25.7786885,17.6534091 C25.6270492,17.7272727 25.4754098,17.875 25.2479508,17.9488636 C25.0963115,17.875 24.8688525,17.9488636 24.7172131,18.0227273 C24.5655738,18.0965909 24.3381148,18.0965909 24.1864754,18.0965909 C24.1106557,18.0965909 24.0348361,18.1704545 23.8831967,18.1704545 C23.6557377,18.3181818 23.2766393,18.1704545 23.0491803,18.4659091 C22.897541,18.5397727 22.8217213,18.6136364 22.670082,18.6875 C22.5942623,18.7613636 22.442623,18.6875 22.3668033,18.7613636 C22.2151639,18.7613636 22.1393443,18.8352273 22.0635246,18.7613636 C21.9118852,18.7613636 21.9118852,18.8352273 21.8360656,18.7613636 C21.7602459,18.7613636 21.7602459,18.7613636 21.6086066,18.7613636 C21.4569672,18.6875 21.2295082,18.7613636 21.1536885,18.8352273 C21.0778689,18.8352273 21.0778689,18.9090909 21.0020492,18.9829545 C20.7745902,19.0568182 20.6987705,19.3522727 20.5471311,19.5 C20.3954918,19.5738636 20.4713115,19.7954545 20.3954918,19.8693182 L20.3954918,20.2386364 C20.2438525,20.5340909 20.6229508,20.6818182 20.5471311,20.9772727 C20.6229508,21.0511364 20.5471311,21.125 20.6229508,21.1988636 L20.6987705,21.4204545 C20.7745902,21.5681818 20.6987705,21.7159091 20.7745902,21.7897727 C20.8504098,21.9375 21.0020492,22.0113636 21.0020492,22.1590909 L21.3811475,22.3068182 L21.5327869,22.4545455 C21.6844262,22.4545455 21.9118852,22.5284091 22.1393443,22.5284091 C22.1393443,22.5284091 22.2151639,22.6022727 22.2151639,22.6022727 C22.3668033,22.6761364 22.5184426,22.6761364 22.670082,22.75 C22.7459016,22.75 22.8217213,22.8238636 22.897541,22.8238636 C23.2008197,22.8977273 23.5040984,22.9715909 23.807377,23.0454545 L23.807377,23.1193182 C23.9590164,23.1931818 24.0348361,23.2670455 24.1864754,23.2670455 C24.2622951,23.3409091 24.4139344,23.3409091 24.5655738,23.4147727 C24.7172131,23.4147727 24.7172131,23.4886364 24.8688525,23.5625 C25.0963115,23.5625 25.1721311,23.7840909 25.3237705,23.7840909 C25.4754098,23.8579545 25.5512295,23.9318182 25.7028689,23.9318182 C25.7786885,24.0056818 25.8545082,24.0056818 26.0061475,24.0795455 C26.1577869,24.1534091 26.2336066,24.3011364 26.3852459,24.3011364 C26.4610656,24.375 26.5368852,24.4488636 26.6127049,24.4488636 C26.6885246,24.5227273 26.7643443,24.5965909 26.8401639,24.6704545 L26.9159836,24.7443182 C26.9918033,24.8181818 27.1434426,24.8181818 27.2192623,24.8920455 C27.4467213,24.9659091 27.75,25.0397727 27.977459,25.1136364 C28.0532787,25.1136364 28.204918,25.1136364 28.2807377,25.1875 C28.8872951,25.4090909 29.5696721,25.7045455 30.2520492,25.7784091 C30.6311475,25.8522727 31.0860656,25.9261364 31.4651639,26 C31.7684426,26.1477273 32.0717213,26.2215909 32.4508197,26.3693182 C32.602459,26.3693182 32.7540984,26.4431818 32.9057377,26.5170455 C32.9815574,26.5909091 33.1331967,26.5909091 33.2090164,26.5909091 C33.2090164,26.5909091 33.2848361,26.5909091 33.2090164,26.6647727 C33.4364754,26.7386364 33.6639344,26.8125 33.8913934,26.9602273 C33.9672131,26.9602273 33.9672131,27.0340909 34.0430328,26.9602273 C34.1188525,27.0340909 34.1946721,27.1079545 34.2704918,27.0340909 C34.2704918,27.0340909 34.2704918,27.0340909 34.3463115,27.0340909 C34.4221311,27.1079545 34.5737705,27.1079545 34.6495902,27.1818182 L35.1045082,27.3295455 C35.2561475,27.4034091 35.4077869,27.4034091 35.5594262,27.4034091 L35.5594262,16.9147727 C35.4836066,16.9886364 35.2561475,16.9886364 35.0286885,17.1363636 Z" id="Shape"></path>
                        <path d="M11.0696721,33.8295455 C11.1454918,33.6818182 11.1454918,33.6079545 11.1454918,33.4602273 C11.1454918,33.3863636 11.2213115,33.3125 11.2971311,33.1647727 C11.3729508,33.0909091 11.3729508,32.9431818 11.4487705,32.8693182 C11.4487705,32.8693182 11.4487705,32.7954545 11.5245902,32.7954545 C11.5245902,32.6477273 11.6762295,32.5 11.7520492,32.3522727 C11.7520492,32.3522727 11.7520492,32.2784091 11.7520492,32.2784091 C11.8278689,32.0568182 11.9036885,31.9090909 11.9795082,31.7613636 C12.0553279,31.6875 12.0553279,31.5397727 12.1311475,31.4659091 C12.2069672,31.3181818 12.2827869,31.2443182 12.2827869,31.0965909 C12.3586066,31.0227273 12.3586066,31.0227273 12.3586066,30.9488636 C12.2827869,30.7272727 12.5102459,30.5795455 12.5102459,30.3579545 L12.5102459,30.2840909 C12.5860656,30.1363636 12.6618852,30.0625 12.6618852,29.9147727 C12.7377049,29.8409091 12.7377049,29.7670455 12.7377049,29.7670455 C12.8135246,29.6193182 12.9651639,29.4715909 12.9651639,29.3238636 C13.0409836,29.3238636 12.9651639,29.25 13.0409836,29.25 C13.1168033,29.1761364 13.192623,29.1022727 13.192623,29.0284091 C13.3442623,28.8806818 13.420082,28.5852273 13.5717213,28.3636364 C13.647541,28.1420455 13.7991803,27.9943182 13.9508197,27.8465909 C14.0266393,27.7727273 14.0266393,27.6988636 14.102459,27.625 C14.1782787,27.4772727 14.2540984,27.4034091 14.329918,27.3295455 C14.4057377,27.0340909 14.7090164,26.8125 14.8606557,26.5170455 C14.9364754,26.5170455 14.9364754,26.4431818 14.9364754,26.3693182 C15.0122951,26.1477273 15.2397541,26 15.3155738,25.7784091 C15.3913934,25.7045455 15.4672131,25.6306818 15.5430328,25.5568182 C15.5430328,25.5568182 15.6188525,25.5568182 15.6188525,25.4829545 C15.6946721,25.4090909 15.6946721,25.4090909 15.7704918,25.3352273 C15.8463115,25.3352273 15.8463115,25.2613636 15.9221311,25.2613636 L15.9979508,25.2613636 C15.9979508,25.2613636 15.9979508,25.2613636 15.9979508,25.2613636 C15.9979508,25.2613636 15.9979508,25.2613636 15.9979508,25.2613636 C15.9979508,25.2613636 16.2254098,25.1875 16.3012295,25.0397727 C16.4528689,24.8920455 16.5286885,24.7443182 16.6045082,24.5965909 C16.6803279,24.4488636 16.7561475,24.375 16.8319672,24.2272727 C16.9077869,24.0795455 16.9836066,23.9318182 16.9836066,23.8579545 C16.9836066,23.7840909 16.9836066,23.7840909 16.9077869,23.7102273 C17.0594262,23.4886364 16.9836066,23.1193182 16.9077869,22.8238636 C16.9077869,22.6022727 16.7561475,22.3806818 16.5286885,22.3068182 C16.3770492,22.2329545 16.3770492,22.0852273 16.2254098,22.0113636 C16.2254098,22.0113636 16.2254098,22.0113636 16.2254098,21.9375 C16.2254098,21.9375 16.1495902,21.9375 16.1495902,21.9375 C16.1495902,21.9375 16.1495902,21.9375 16.1495902,21.9375 C16.1495902,21.9375 16.1495902,21.9375 16.0737705,21.9375 C16.0737705,21.9375 16.0737705,21.9375 16.0737705,21.9375 C16.0737705,21.9375 16.0737705,21.9375 16.0737705,21.9375 C15.9979508,21.8636364 15.9979508,21.7897727 15.9979508,21.7897727 C15.9221311,21.6420455 15.7704918,21.4943182 15.6946721,21.3465909 C15.6188525,21.125 15.4672131,20.9034091 15.2397541,20.8295455 C15.2397541,20.7556818 15.1639344,20.6818182 15.0881148,20.6818182 C14.9364754,20.6818182 14.7848361,20.5340909 14.6331967,20.5340909 C14.6331967,20.5340909 14.6331967,20.5340909 14.6331967,20.5340909 C14.4057377,20.4602273 14.329918,20.5340909 14.1782787,20.4602273 C14.102459,20.5340909 13.9508197,20.4602273 13.875,20.4602273 C13.7991803,20.5340909 13.7233607,20.4602273 13.7233607,20.5340909 C13.647541,20.6079545 13.4959016,20.5340909 13.420082,20.6079545 C13.3442623,20.6818182 13.192623,20.6079545 13.1168033,20.6818182 C12.7377049,20.7556818 12.3586066,20.9034091 12.0553279,21.0511364 C11.9036885,21.0511364 11.8278689,21.125 11.6762295,21.1988636 C11.6762295,21.1988636 11.6762295,21.2727273 11.6004098,21.2727273 C11.2213115,21.4943182 10.8422131,21.5681818 10.4631148,21.8636364 C10.3114754,21.8636364 10.2356557,21.9375 10.1598361,21.9375 C10.0081967,22.0113636 9.85655738,22.1590909 9.70491803,22.2329545 C9.62909836,22.2329545 9.62909836,22.3806818 9.55327869,22.3806818 C9.47745902,22.5284091 9.40163934,22.6022727 9.25,22.6761364 C9.17418033,22.8238636 9.02254098,22.75 8.94672131,22.8238636 C8.7192623,22.8977273 8.56762295,23.1193182 8.26434426,23.1193182 C7.73360656,23.4886364 7.12704918,23.7840909 6.59631148,24.1534091 C6.5204918,24.1534091 6.59631148,24.2272727 6.5204918,24.2272727 C6.36885246,24.4488636 6.14139344,24.6704545 5.91393443,24.8920455 C5.68647541,25.0397727 5.45901639,25.1875 5.30737705,25.3352273 C5.23155738,25.4090909 5.07991803,25.4829545 4.92827869,25.4829545 C4.85245902,25.4829545 4.77663934,25.5568182 4.70081967,25.6306818 C4.54918033,25.7045455 4.54918033,25.7784091 4.39754098,25.8522727 C4.24590164,26 4.0942623,26.2215909 4.01844262,26.2954545 C4.01844262,26.3693182 4.0942623,26.4431818 4.01844262,26.5170455 C4.01844262,26.7386364 4.0942623,26.8125 4.0942623,27.0340909 C4.01844262,27.1079545 4.01844262,27.1818182 4.01844262,27.1818182 C4.0942623,27.2556818 4.01844262,27.4034091 4.0942623,27.4034091 C4.0942623,27.625 4.24590164,27.7727273 4.24590164,27.9943182 C4.32172131,28.1420455 4.32172131,28.3636364 4.47336066,28.4375 C4.77663934,28.8806818 4.85245902,29.3977273 5.23155738,29.7670455 C5.30737705,29.9147727 5.30737705,30.0625 5.30737705,30.2102273 L5.30737705,30.5795455 C5.45901639,30.9488636 5.68647541,31.2443182 5.83811475,31.5397727 C5.91393443,31.6875 5.91393443,31.7613636 5.9897541,31.9090909 C6.06557377,32.2784091 6.06557377,32.5738636 6.21721311,32.8693182 C6.14139344,32.9431818 6.21721311,33.0170455 6.21721311,33.0909091 C6.21721311,33.2386364 6.29303279,33.3863636 6.29303279,33.4602273 C6.29303279,33.5340909 6.36885246,33.5340909 6.36885246,33.6079545 C6.21721311,34.1988636 6.44467213,34.6420455 6.82377049,35.0852273 C6.97540984,35.3068182 6.82377049,35.6022727 6.89959016,35.8238636 C6.82377049,36.0454545 6.97540984,36.2670455 7.05122951,36.4886364 C7.20286885,36.6363636 7.43032787,36.5625 7.58196721,36.6363636 C7.58196721,36.6363636 7.65778689,36.6363636 7.65778689,36.7102273 C7.65778689,36.7102273 7.65778689,36.7102273 7.65778689,36.7102273 C7.73360656,36.7840909 7.96106557,36.7840909 8.03688525,36.7102273 C8.18852459,36.7102273 8.26434426,36.7102273 8.41598361,36.7102273 C8.56762295,36.9318182 8.87090164,36.7840909 9.09836066,36.7840909 C9.09836066,36.7840909 9.40163934,36.6363636 9.40163934,36.6363636 C9.40163934,36.5625 9.55327869,36.4886364 9.62909836,36.4147727 C9.62909836,36.2670455 9.7807377,36.3409091 9.7807377,36.1931818 C9.85655738,36.1193182 9.85655738,36.1931818 9.85655738,36.1193182 C9.93237705,36.0454545 9.93237705,36.0454545 10.0081967,35.9715909 C10.0081967,35.8977273 10.0081967,35.8977273 10.0840164,35.8238636 C10.1598361,35.75 10.2356557,35.75 10.2356557,35.6761364 C10.3114754,35.6022727 10.3114754,35.4545455 10.3872951,35.3806818 C10.3872951,35.2329545 10.4631148,35.2329545 10.5389344,35.0852273 C10.5389344,35.0852273 10.5389344,35.0113636 10.6147541,34.9375 C10.6147541,34.8636364 10.7663934,34.7897727 10.6905738,34.6420455 C10.6905738,34.6420455 10.6905738,34.6420455 10.6905738,34.6420455 L10.7663934,34.4204545 C10.8422131,34.1988636 10.9180328,34.0511364 10.9180328,33.9034091 C11.0696721,33.9772727 11.0696721,33.8295455 11.0696721,33.8295455 Z" id="Shape"></path>
                        <path d="M11.6004098,36.6363636 L11.7520492,36.7102273 C12.0553279,36.7840909 12.4344262,36.5625 12.7377049,36.4886364 C12.8135246,36.5625 13.0409836,36.5625 13.1168033,36.5625 C13.3442623,36.6363636 13.4959016,36.4886364 13.7233607,36.5625 C13.875,36.5625 14.102459,36.4886364 14.2540984,36.6363636 C14.4057377,36.6363636 14.6331967,36.7840909 14.7848361,36.7840909 C15.5430328,36.7840909 16.1495902,36.3409091 16.9077869,36.6363636 C17.5901639,36.6363636 18.1209016,37.0795455 18.8032787,37.0795455 C18.8032787,37.1534091 18.8790984,37.0795455 18.8790984,37.1534091 C19.2581967,37.1534091 19.6372951,37.1534091 19.9405738,37.375 C20.6229508,37.4488636 21.2295082,37.8181818 21.9118852,37.8920455 C22.1393443,37.9659091 22.3668033,37.8920455 22.670082,37.8920455 C23.125,37.8181818 23.5040984,38.0397727 23.9590164,38.0397727 L24.0348361,38.1136364 C24.5655738,38.1875 25.0963115,38.1136364 25.7028689,38.0397727 C26.0061475,38.0397727 26.2336066,38.2613636 26.5368852,38.1875 C26.8401639,38.0397727 27.295082,38.3352273 27.6741803,38.2613636 L28.1290984,38.4829545 C28.2807377,38.5568182 28.432377,38.5568182 28.5840164,38.4829545 C28.8872951,38.4829545 29.1905738,38.7784091 29.4938525,38.7784091 C29.7213115,38.8522727 30.2520492,39 30.4036885,39 C30.5553279,39 30.7069672,39.0738636 30.8586066,39 C31.0102459,38.8522727 31.2377049,39.0738636 31.3893443,39 C31.6168033,39.0738636 31.8442623,39.1477273 32.0717213,39.2215909 L32.829918,39.2215909 C33.4364754,39.0738636 33.8155738,39.6647727 34.4221311,39.3693182 C34.8770492,39.2954545 35.3319672,39.1477273 35.6352459,39.2215909 L35.6352459,34.2727273 C35.6352459,34.2727273 35.5594262,34.1988636 35.5594262,34.1988636 C35.5594262,34.1988636 35.4836066,34.1988636 35.4836066,34.1988636 C35.3319672,34.125 35.2561475,34.125 35.0286885,34.125 C34.9528689,34.0511364 34.8770492,34.0511364 34.8012295,34.0511364 C34.6495902,33.9772727 34.4221311,33.9034091 34.2704918,33.8295455 C34.2704918,33.8295455 34.2704918,33.8295455 34.1946721,33.8295455 C34.1188525,33.8295455 34.1188525,33.6818182 34.0430328,33.6818182 C34.0430328,33.6818182 34.0430328,33.6818182 34.0430328,33.6818182 C33.9672131,33.6079545 33.8155738,33.5340909 33.7397541,33.4602273 C33.7397541,33.4602273 33.7397541,33.4602273 33.7397541,33.4602273 C33.7397541,33.4602273 33.7397541,33.4602273 33.7397541,33.4602273 C33.6639344,33.4602273 33.6639344,33.4602273 33.5881148,33.3863636 C33.5122951,33.3125 33.4364754,33.3125 33.3606557,33.2386364 C33.3606557,33.2386364 33.3606557,33.2386364 33.3606557,33.2386364 C33.3606557,33.2386364 33.3606557,33.2386364 33.3606557,33.2386364 C33.3606557,33.2386364 33.3606557,33.2386364 33.2848361,33.2386364 C33.2848361,33.2386364 33.2848361,33.2386364 33.2090164,33.2386364 C33.2090164,33.2386364 33.2090164,33.2386364 33.2090164,33.2386364 C33.2090164,33.2386364 33.2090164,33.2386364 33.2090164,33.2386364 C33.2090164,33.2386364 33.2090164,33.2386364 33.1331967,33.2386364 C33.057377,33.2386364 33.057377,33.1647727 32.9815574,33.1647727 C32.9815574,33.1647727 32.9057377,33.1647727 32.9057377,33.1647727 C32.829918,33.0909091 32.7540984,33.0909091 32.6782787,33.0170455 C32.5266393,32.9431818 32.375,32.8693182 32.2233607,32.8693182 C32.2233607,32.7954545 32.147541,32.7954545 32.147541,32.7954545 C32.147541,32.7954545 32.0717213,32.7954545 32.0717213,32.7954545 C32.0717213,32.7215909 31.9959016,32.7215909 31.9959016,32.7215909 C31.9959016,32.7215909 31.920082,32.7215909 31.8442623,32.6477273 C31.8442623,32.5738636 31.7684426,32.5738636 31.7684426,32.5 C31.7684426,32.5 31.7684426,32.5 31.692623,32.5 C31.692623,32.5 31.692623,32.5 31.692623,32.5 C31.6168033,32.5 31.5409836,32.4261364 31.4651639,32.4261364 C31.0102459,32.0568182 30.5553279,31.7613636 30.1004098,31.3181818 C29.9487705,31.1704545 29.7213115,30.875 29.5696721,30.7272727 C29.4180328,30.5795455 29.1905738,30.5056818 29.1147541,30.2840909 C28.9631148,30.2102273 28.8872951,30.1363636 28.8114754,30.0625 C28.8114754,30.0625 28.8114754,30.0625 28.7356557,30.0625 C28.7356557,30.0625 28.7356557,30.0625 28.7356557,30.0625 C28.7356557,30.0625 28.7356557,30.0625 28.7356557,30.0625 C28.6598361,30.0625 28.6598361,29.9886364 28.5840164,29.9886364 C28.5840164,29.9886364 28.5840164,29.9886364 28.5081967,29.9886364 C28.5081967,29.9147727 28.432377,29.9147727 28.432377,29.9147727 C28.432377,29.9147727 28.432377,29.9147727 28.3565574,29.9147727 C28.3565574,29.9147727 28.3565574,29.9147727 28.2807377,29.9147727 C28.2807377,29.9147727 28.2807377,29.9147727 28.2807377,29.9147727 C28.204918,29.8409091 28.204918,29.7670455 28.1290984,29.7670455 C28.1290984,29.7670455 28.1290984,29.7670455 28.0532787,29.7670455 C27.977459,29.6931818 27.9016393,29.6193182 27.75,29.5454545 C27.75,29.5454545 27.6741803,29.5454545 27.6741803,29.5454545 C27.5983607,29.4715909 27.4467213,29.3977273 27.295082,29.3238636 C27.295082,29.3238636 27.295082,29.3238636 27.295082,29.3238636 C27.295082,29.3238636 27.295082,29.3238636 27.2192623,29.3238636 C27.1434426,29.3238636 27.067623,29.3238636 27.067623,29.3238636 C26.9918033,29.3238636 26.9918033,29.25 26.9159836,29.25 C26.9159836,29.25 26.9159836,29.25 26.9159836,29.25 C26.9159836,29.25 26.9159836,29.25 26.9159836,29.25 C26.5368852,29.1022727 26.2336066,29.0284091 25.8545082,28.8806818 C25.8545082,28.8806818 25.7786885,28.8806818 25.7786885,28.8806818 C25.7786885,28.8806818 25.7786885,28.8806818 25.7786885,28.8806818 C25.7786885,28.8806818 25.7786885,28.8068182 25.7786885,28.8068182 C25.7786885,28.8068182 25.7786885,28.8068182 25.7028689,28.8068182 C25.7028689,28.8068182 25.7028689,28.8068182 25.7028689,28.8068182 C25.7028689,28.8068182 25.7028689,28.8068182 25.7028689,28.8068182 C25.6270492,28.7329545 25.4754098,28.6590909 25.3995902,28.5852273 C25.3995902,28.5852273 25.3995902,28.5852273 25.3995902,28.5852273 C25.3995902,28.5852273 25.3995902,28.5852273 25.3995902,28.5852273 C25.3995902,28.5852273 25.3995902,28.5852273 25.3995902,28.5852273 C25.3237705,28.5113636 25.3237705,28.5113636 25.2479508,28.4375 C25.1721311,28.3636364 25.1721311,28.2897727 25.0204918,28.2897727 C25.0204918,28.2897727 25.0204918,28.2897727 25.0204918,28.2897727 C24.8688525,28.0681818 24.7930328,27.8465909 24.5655738,27.6988636 C24.5655738,27.6988636 24.5655738,27.625 24.4897541,27.625 C24.4897541,27.5511364 24.4897541,27.5511364 24.4139344,27.4772727 C24.4139344,27.4034091 24.3381148,27.4034091 24.3381148,27.3295455 C24.2622951,27.2556818 24.2622951,27.2556818 24.1864754,27.1818182 C24.1864754,27.1818182 24.1864754,27.1818182 24.1864754,27.1818182 C23.9590164,26.9602273 23.807377,26.7386364 23.5040984,26.5170455 C23.4282787,26.4431818 23.2766393,26.3693182 23.2008197,26.2954545 C23.125,26.2954545 23.125,26.2215909 23.0491803,26.2215909 C23.0491803,26.2215909 23.0491803,26.2215909 23.0491803,26.2215909 C23.0491803,26.2215909 22.9733607,26.1477273 23.0491803,26.1477273 C23.0491803,26.1477273 23.0491803,26.1477273 23.0491803,26.1477273 C23.0491803,26.1477273 23.0491803,26.1477273 23.0491803,26.0738636 C23.0491803,26.0738636 23.0491803,26.0738636 22.9733607,26.1477273 C22.9733607,26.1477273 22.897541,26.1477273 22.897541,26.1477273 C22.8217213,26.0738636 22.7459016,26 22.670082,26 C22.670082,26 22.670082,26 22.670082,26 C22.670082,26 22.670082,26 22.670082,26 C22.670082,26 22.670082,26 22.670082,26 C22.670082,26 22.670082,26 22.5942623,26 L22.5184426,26 C22.5184426,26 22.5184426,26 22.5184426,26 L22.1393443,25.1136364 C22.1393443,25.1136364 22.0635246,25.0397727 22.0635246,25.0397727 C21.9877049,25.0397727 21.9118852,24.9659091 21.8360656,24.9659091 C21.7602459,24.8920455 21.6844262,24.8920455 21.6086066,24.8920455 C21.5327869,24.8920455 21.4569672,24.8181818 21.3811475,24.8181818 C21.2295082,24.8181818 21.0778689,24.7443182 20.9262295,24.6704545 C20.8504098,24.6704545 20.8504098,24.5965909 20.7745902,24.5965909 C20.7745902,24.5965909 20.4713115,24.5965909 20.4713115,24.6704545 C20.1680328,24.7443182 20.1680328,24.8181818 19.9405738,24.9659091 C19.9405738,24.9659091 19.8647541,24.9659091 19.8647541,25.0397727 C19.7889344,25.1136364 19.7889344,25.1136364 19.6372951,25.1136364 C19.6372951,25.1136364 19.5614754,25.1875 19.5614754,25.1875 C19.5614754,25.1875 19.4856557,25.2613636 19.4856557,25.2613636 C19.4856557,25.2613636 19.4098361,25.2613636 19.3340164,25.3352273 C19.182377,25.4090909 19.182377,25.5568182 19.0307377,25.6306818 C18.954918,25.6306818 18.8790984,25.7784091 18.8790984,25.7784091 C18.727459,26 18.5,26.1477273 18.3483607,26.3693182 C18.272541,26.5170455 18.045082,26.5909091 17.9692623,26.8125 C17.8934426,26.8125 17.8934426,26.8863636 17.8934426,26.8863636 C17.8934426,26.9602273 17.817623,26.9602273 17.817623,27.0340909 C17.6659836,27.1818182 17.4385246,27.3295455 17.3627049,27.4772727 C17.2110656,27.6988636 16.9836066,27.9204545 16.8319672,28.2159091 C16.8319672,28.2159091 16.8319672,28.2897727 16.7561475,28.2897727 C16.3770492,28.8068182 16.0737705,29.3977273 15.6188525,29.9147727 L15.3913934,30.2102273 C15.3913934,30.2102273 15.3913934,30.2840909 15.3155738,30.2840909 C15.3155738,30.3579545 15.2397541,30.4318182 15.1639344,30.5056818 C15.1639344,30.6534091 15.0122951,30.7272727 14.9364754,30.875 C14.8606557,31.0227273 14.7848361,31.1704545 14.7090164,31.2443182 C14.557377,31.6136364 14.329918,31.9090909 14.1782787,32.2784091 C14.102459,32.4261364 14.0266393,32.5738636 13.9508197,32.7954545 C13.875,32.9431818 13.875,33.1647727 13.7991803,33.3125 C13.647541,33.5340909 13.4959016,33.6818182 13.3442623,33.9034091 C13.3442623,33.9772727 13.192623,33.9772727 13.192623,34.0511364 C12.9651639,34.1988636 12.8893443,34.4204545 12.7377049,34.6420455 C12.7377049,34.7159091 12.6618852,34.7897727 12.6618852,34.8636364 C12.5860656,34.9375 12.5102459,35.0852273 12.3586066,35.1590909 C12.3586066,35.2329545 12.2827869,35.2329545 12.2827869,35.3068182 C12.1311475,35.75 11.8278689,36.1193182 11.6004098,36.5625" id="Shape"></path>
                        <path d="M35.7110656,8.64204545 L35.7110656,0.369318182 C35.5594262,0.369318182 35.4077869,0.295454545 35.2561475,0.295454545 C35.0286885,0.295454545 34.8770492,0.369318182 34.7254098,0.443181818 C34.5737705,0.443181818 34.5737705,0.517045455 34.3463115,0.517045455 C34.2704918,0.443181818 34.1188525,0.590909091 34.0430328,0.517045455 C33.8913934,0.517045455 33.6639344,0.517045455 33.5122951,0.590909091 C33.4364754,0.590909091 33.3606557,0.664772727 33.3606557,0.664772727 C33.2848361,0.664772727 33.2090164,0.664772727 33.1331967,0.738636364 C32.9815574,0.8125 32.9815574,1.03409091 32.829918,1.03409091 C32.5266393,1.18181818 32.2233607,1.32954545 31.9959016,1.47727273 C31.7684426,1.55113636 31.6168033,1.77272727 31.4651639,1.92045455 C31.0860656,2.21590909 30.6311475,2.28977273 30.3278689,2.58522727 C30.1762295,2.65909091 30.0245902,2.73295455 29.8729508,2.88068182 C29.7971311,2.88068182 29.7213115,2.95454545 29.6454918,3.02840909 C29.5696721,3.10227273 29.4938525,3.17613636 29.4180328,3.25 C29.2663934,3.32386364 29.0389344,3.39772727 28.8872951,3.47159091 C28.6598361,3.61931818 28.432377,3.69318182 28.204918,3.84090909 C27.977459,3.98863636 27.6741803,4.13636364 27.4467213,4.21022727 C27.295082,4.28409091 27.2192623,4.35795455 27.067623,4.35795455 C26.8401639,4.43181818 26.6885246,4.57954545 26.5368852,4.72727273 C26.3852459,4.94886364 26.1577869,5.17045455 25.9303279,5.39204545 C25.7786885,5.46590909 25.6270492,5.53977273 25.4754098,5.6875 C25.3995902,5.6875 25.3237705,5.76136364 25.2479508,5.83522727 C25.0963115,5.98295455 24.9446721,5.98295455 24.7930328,6.13068182 C24.7172131,6.13068182 24.6413934,6.20454545 24.5655738,6.20454545 C24.4139344,6.27840909 24.3381148,6.27840909 24.1864754,6.35227273 C24.0348361,6.5 23.7315574,6.5 23.5040984,6.57386364 C23.352459,6.57386364 23.2008197,6.64772727 23.125,6.64772727 C22.9733607,6.72159091 22.8217213,6.64772727 22.670082,6.79545455 C22.5942623,6.86931818 22.442623,6.94318182 22.3668033,6.94318182 C22.1393443,7.01704545 21.9877049,7.16477273 21.8360656,7.23863636 C21.4569672,7.3125 21.0778689,7.46022727 20.6229508,7.53409091 C20.3954918,7.53409091 20.3954918,7.46022727 20.2438525,7.53409091 C20.1680328,7.46022727 20.0163934,7.53409091 20.0163934,7.53409091 C19.7889344,7.53409091 19.7889344,7.68181818 19.6372951,7.75568182 C19.3340164,7.82954545 19.1065574,8.125 18.8032787,8.27272727 C18.6516393,8.42045455 18.3483607,8.42045455 18.1209016,8.56818182 C17.8934426,8.64204545 17.5143443,8.78977273 17.4385246,8.78977273 C17.2868852,8.71590909 17.1352459,8.9375 17.0594262,8.9375 C16.9836066,9.01136364 16.9077869,9.08522727 16.8319672,9.15909091 C16.7561475,9.08522727 16.7561475,9.15909091 16.6803279,9.15909091 C16.6045082,9.23295455 16.4528689,9.23295455 16.3770492,9.30681818 C16.2254098,9.45454545 16.0737705,9.38068182 16.1495902,9.52840909 C16.0737705,9.60227273 16.0737705,9.67613636 16.0737705,9.75 C16.2254098,9.89772727 16.2254098,10.1193182 16.4528689,10.2670455 C16.4528689,10.3409091 16.5286885,10.3409091 16.6045082,10.4147727 C16.7561475,10.4147727 16.8319672,10.5625 17.0594262,10.5625 C17.1352459,10.6363636 17.2868852,10.6363636 17.3627049,10.7102273 C17.4385246,10.7840909 17.5143443,10.9318182 17.5901639,10.9318182 C17.7418033,10.9318182 17.8934426,11.0056818 18.045082,11.0795455 C18.1209016,11.1534091 18.1967213,11.0795455 18.1967213,11.1534091 C18.272541,11.1534091 18.3483607,11.2272727 18.5,11.1534091 C18.5758197,11.3011364 18.727459,11.3011364 18.8032787,11.4488636 C18.8790984,11.4488636 18.954918,11.5227273 19.0307377,11.5965909 C19.1065574,11.5965909 19.1065574,11.6704545 19.182377,11.7443182 C19.3340164,11.8920455 19.4856557,11.9659091 19.4856557,12.1136364 C19.4856557,12.1875 19.5614754,12.2613636 19.5614754,12.3352273 C19.4856557,12.4090909 19.7131148,12.4829545 19.7131148,12.4829545 C19.7131148,12.6306818 19.8647541,12.7045455 19.7889344,12.7784091 C19.7889344,12.8522727 19.7889344,13 19.8647541,13.0738636 C20.0163934,13.2215909 19.7889344,13.2954545 19.8647541,13.4431818 C19.8647541,13.5170455 19.7889344,13.4431818 19.8647541,13.5170455 C20.0163934,13.6647727 19.8647541,13.8863636 19.9405738,14.0340909 L19.8647541,14.4034091 C19.7131148,14.4772727 19.7889344,14.625 19.6372951,14.6988636 C19.5614754,14.8465909 19.3340164,14.9204545 19.3340164,15.0681818 C19.3340164,15.2159091 19.2581967,15.2897727 19.3340164,15.4375 C19.4856557,15.5113636 19.4098361,15.6590909 19.5614754,15.7329545 C19.7889344,15.8068182 20.3954918,16.1022727 20.6229508,16.1022727 C20.6987705,16.0284091 20.7745902,16.1022727 20.8504098,16.1022727 C20.9262295,16.25 21.0020492,16.1022727 21.1536885,16.1022727 C21.3053279,16.1022727 21.4569672,16.0284091 21.6086066,16.1022727 C21.7602459,16.1761364 21.9877049,16.1022727 22.1393443,16.0284091 L22.2909836,16.0284091 C22.5184426,15.9545455 22.670082,15.8806818 22.8217213,15.7329545 C22.897541,15.7329545 22.9733607,15.6590909 22.9733607,15.6590909 C23.125,15.5852273 23.2766393,15.5113636 23.4282787,15.5113636 C23.5040984,15.4375 23.6557377,15.3636364 23.7315574,15.3636364 C23.807377,15.2897727 23.9590164,15.2897727 24.0348361,15.2897727 C24.4897541,15.0681818 24.7930328,14.625 25.3237705,14.5511364 C25.7028689,14.3295455 26.0819672,14.2556818 26.5368852,14.0340909 C26.5368852,14.0340909 26.6127049,14.0340909 26.6127049,14.0340909 C26.8401639,13.9602273 27.067623,13.8125 27.295082,13.8125 C27.75,13.6647727 28.0532787,13.3693182 28.5081967,13.2215909 C28.6598361,13.2215909 28.8114754,13.0738636 28.9631148,13 C29.1905738,12.7784091 29.4938525,12.8522727 29.7971311,12.7045455 L29.8729508,12.7045455 C30.1762295,12.5568182 30.5553279,12.4090909 30.7827869,12.1136364 C30.9344262,12.0397727 31.0860656,11.9659091 31.2377049,11.8181818 C31.3893443,11.5965909 31.6168033,11.5227273 31.8442623,11.375 L32.0717213,11.1534091 C32.147541,11.1534091 32.2233607,11.0795455 32.2991803,11.0056818 C32.4508197,10.9318182 32.602459,10.7840909 32.829918,10.6363636 C32.9815574,10.6363636 33.057377,10.4886364 33.2090164,10.4147727 C33.2848361,10.3409091 33.4364754,10.3409091 33.4364754,10.2670455 C33.5122951,10.1193182 33.6639344,10.1931818 33.7397541,10.1193182 C33.8913934,10.1193182 33.9672131,9.97159091 34.1188525,9.89772727 L34.5737705,9.67613636 C34.8770492,9.38068182 35.2561475,9.52840909 35.4836066,9.15909091 C35.2561475,9.01136364 35.4077869,8.78977273 35.7110656,8.64204545" id="Shape"></path>
                    </g>
                    <path d="M87.647541,53.9204545 C86.8893443,53.9204545 86.1311475,54.5113636 85.3729508,55.8409091 L85.3729508,54.0681818 L83.8565574,54.0681818 L83.8565574,61.6761364 L85.3729508,61.6761364 L85.3729508,57.6875 C85.3729508,56.3579545 86.2069672,55.3238636 87.2684426,55.3238636 C87.5717213,55.3238636 88.102459,55.5454545 88.557377,55.9147727 L89.3913934,54.5852273 C88.7848361,54.2159091 88.2540984,53.9204545 87.647541,53.9204545 Z" id="Shape"></path>
                    <path d="M53.8319672,57.1704545 C53.8319672,59.9772727 52.0881148,61.8977273 48.5245902,61.8977273 C46.022541,61.8977273 43.5963115,60.4943182 43.5963115,57.3920455 L43.5963115,50.1534091 L45.3401639,50.1534091 L45.3401639,57.0227273 C45.3401639,58.3522727 45.4918033,58.8693182 46.022541,59.3863636 C46.704918,60.0511364 47.5389344,60.3465909 48.6004098,60.3465909 C49.8893443,60.3465909 50.875,59.9034091 51.4057377,59.3863636 C52.0122951,58.7954545 52.1639344,57.9090909 52.1639344,56.875 L52.1639344,50.1534091 L53.8319672,50.1534091 L53.8319672,57.1704545 Z" id="Shape"></path>
                    <path d="M57.2438525,55.1022727 C57.8504098,54.3636364 58.7602459,53.9204545 59.5942623,53.9204545 C61.1106557,53.9204545 62.2479508,54.8806818 62.2479508,57.0227273 L62.2479508,61.75 L60.7315574,61.75 L60.7315574,57.0227273 C60.7315574,55.9147727 60.125,55.1761364 59.2151639,55.1761364 C58.5327869,55.1761364 58.0020492,55.4715909 57.2438525,56.2840909 L57.2438525,61.75 L55.727459,61.75 L55.727459,54.0681818 L57.2438525,54.0681818 L57.2438525,55.1022727 Z" id="Shape"></path>
                    <path d="M65.8872951,61.75 L64.3709016,61.75 L64.3709016,54.0681818 L65.8872951,54.0681818 L65.8872951,61.75 Z M65.1290984,52.6647727 C64.5983607,52.6647727 64.2192623,52.2215909 64.2192623,51.7784091 C64.2192623,51.2613636 64.6741803,50.8920455 65.1290984,50.8920455 C65.5840164,50.8920455 66.0389344,51.3352273 66.0389344,51.7784091 C66.0389344,52.2954545 65.5840164,52.6647727 65.1290984,52.6647727 Z" id="Shape"></path>
                    <polygon id="Shape" points="66.9487705 54.0681818 68.6168033 54.0681818 70.7397541 58.7215909 72.7868852 54.0681818 74.454918 54.0681818 70.9672131 61.8238636 70.5122951 61.8238636"></polygon>
                    <path d="M76.4262295,57.0965909 C76.6536885,55.9147727 77.3360656,55.1761364 78.5491803,55.1761364 C79.6106557,55.1761364 80.2930328,55.9147727 80.3688525,57.0965909 L76.4262295,57.0965909 Z M81.7336066,59.5340909 C80.8237705,60.125 79.9139344,60.4204545 79.0040984,60.4204545 C77.4877049,60.4204545 76.5778689,59.6079545 76.3504098,58.1306818 L81.8852459,58.1306818 C81.8852459,55.3238636 80.5963115,53.9204545 78.4733607,53.9204545 C76.2745902,53.9204545 74.8340164,55.4715909 74.8340164,57.7613636 C74.8340164,59.9034091 76.1987705,61.8238636 78.625,61.8238636 C79.9139344,61.8238636 80.8237705,61.5284091 81.7336066,60.9375 L81.7336066,59.5340909 Z" id="Shape"></path>
                    <path d="M94.5471311,56.0625 C93.6372951,55.4715909 92.8790984,55.25 92.272541,55.25 C91.6659836,55.25 91.2110656,55.5454545 91.2110656,55.9147727 C91.2110656,56.2840909 91.7418033,56.6534091 93.1065574,57.4659091 C94.3954918,58.2784091 94.8504098,58.7954545 94.8504098,59.6079545 C94.8504098,60.9375 93.7889344,61.8238636 92.272541,61.8238636 C91.2868852,61.8238636 90.5286885,61.6022727 89.5430328,61.1590909 L89.5430328,59.5340909 C90.5286885,60.1988636 91.5143443,60.5681818 92.1209016,60.5681818 C92.727459,60.5681818 93.2581967,60.2727273 93.2581967,59.6818182 C93.2581967,58.6477273 89.6188525,58.0568182 89.6188525,55.9886364 C89.6188525,54.7329545 90.6045082,53.9204545 92.1967213,53.9204545 C92.954918,53.9204545 93.7131148,54.1420455 94.4713115,54.5852273 L94.4713115,56.0625 L94.5471311,56.0625 Z" id="Shape"></path>
                    <path d="M98.1864754,61.75 L96.670082,61.75 L96.670082,54.0681818 L98.1864754,54.0681818 L98.1864754,61.75 Z M97.4282787,52.6647727 C96.897541,52.6647727 96.5184426,52.2215909 96.5184426,51.7784091 C96.5184426,51.2613636 96.9733607,50.8920455 97.4282787,50.8920455 C97.9590164,50.8920455 98.3381148,51.3352273 98.3381148,51.7784091 C98.3381148,52.2954545 97.9590164,52.6647727 97.4282787,52.6647727 Z" id="Shape"></path>
                    <path d="M102.432377,54.0681818 L104.934426,54.0681818 L104.934426,55.3977273 L102.432377,55.3977273 L102.432377,59.3125 C102.432377,60.1988636 103.114754,60.4943182 103.569672,60.4943182 C104.10041,60.4943182 104.706967,60.2727273 105.313525,59.9034091 L105.313525,61.3068182 C104.782787,61.6022727 103.94877,61.8238636 103.418033,61.8238636 C101.75,61.8238636 100.840164,60.7897727 100.840164,59.4602273 L100.840164,55.3977273 L99.4754098,55.3977273 L99.4754098,55.25 L102.356557,52.5170455 L102.356557,54.0681818 L102.432377,54.0681818 Z" id="Shape"></path>
                    <path d="M110.241803,60.1988636 C109.786885,60.5681818 109.331967,60.8636364 108.877049,60.8636364 C108.194672,60.8636364 107.739754,60.4204545 107.739754,59.8295455 C107.739754,58.9431818 108.877049,58.5 110.241803,58.0568182 L110.241803,60.1988636 Z M107.512295,51.0397727 C107.057377,51.0397727 106.678279,51.4090909 106.678279,51.8522727 C106.678279,52.2954545 107.057377,52.6647727 107.512295,52.6647727 C107.967213,52.6647727 108.346311,52.2954545 108.346311,51.8522727 C108.270492,51.4090909 107.967213,51.0397727 107.512295,51.0397727 Z M110.772541,51.0397727 C110.317623,51.0397727 109.938525,51.4090909 109.938525,51.8522727 C109.938525,52.2954545 110.317623,52.6647727 110.772541,52.6647727 C111.227459,52.6647727 111.606557,52.2954545 111.606557,51.8522727 C111.530738,51.4090909 111.227459,51.0397727 110.772541,51.0397727 Z M112.895492,60.3465909 C112.516393,60.5681818 112.213115,60.7897727 112.061475,60.7897727 C111.834016,60.7897727 111.758197,60.7159091 111.758197,60.4204545 L111.758197,56.5056818 C111.758197,54.8068182 110.469262,53.9943182 108.877049,53.9943182 C107.739754,53.9943182 106.905738,54.3636364 106.29918,55.0284091 L106.29918,56.6534091 C107.057377,55.7670455 107.891393,55.3977273 108.80123,55.3977273 C109.711066,55.3977273 110.241803,55.7670455 110.241803,56.7272727 L110.241803,57.1704545 L108.877049,57.6136364 C107.588115,58.0568182 106.223361,58.5 106.223361,60.0511364 C106.223361,61.0113636 106.981557,61.8977273 108.118852,61.8977273 C108.80123,61.8977273 109.559426,61.6761364 110.241803,61.0852273 C110.393443,61.6022727 110.772541,61.8977273 111.454918,61.8977273 C111.909836,61.8977273 112.213115,61.75 112.971311,61.3068182 L112.971311,60.3465909 L112.895492,60.3465909 Z" id="Shape"></path>
                    <path d="M116.004098,54.0681818 L118.506148,54.0681818 L118.506148,55.3977273 L116.004098,55.3977273 L116.004098,59.3125 C116.004098,60.1988636 116.686475,60.4943182 117.141393,60.4943182 C117.672131,60.4943182 118.278689,60.2727273 118.885246,59.9034091 L118.885246,61.3068182 C118.354508,61.6022727 117.520492,61.8238636 116.989754,61.8238636 C115.321721,61.8238636 114.411885,60.7897727 114.411885,59.4602273 L114.411885,55.3977273 L113.047131,55.3977273 L113.047131,55.25 L115.928279,52.5170455 L115.928279,54.0681818 L116.004098,54.0681818 Z" id="Shape"></path>
                    <path d="M130.713115,52.6647727 C129.727459,51.7045455 128.741803,51.4829545 127.907787,51.4829545 C126.846311,51.4829545 126.012295,52.0738636 126.012295,52.8863636 C126.012295,55.1022727 131.168033,55.1022727 131.168033,58.7954545 C131.168033,60.6420455 129.727459,61.9715909 127.831967,61.9715909 C126.543033,61.9715909 125.481557,61.6022727 124.495902,60.9375 L124.495902,58.7954545 C125.405738,59.9034091 126.467213,60.4943182 127.604508,60.4943182 C128.893443,60.4943182 129.57582,59.6818182 129.57582,59.0170455 C129.57582,56.6534091 124.420082,56.3579545 124.420082,53.1818182 C124.420082,51.2613636 125.860656,50.0795455 128.059426,50.0795455 C128.969262,50.0795455 129.879098,50.375 130.713115,50.8920455 L130.713115,52.6647727 Z" id="Shape"></path>
                    <path d="M134.655738,54.0681818 L137.157787,54.0681818 L137.157787,55.3977273 L134.655738,55.3977273 L134.655738,59.3125 C134.655738,60.1988636 135.338115,60.4943182 135.793033,60.4943182 C136.32377,60.4943182 136.930328,60.2727273 137.536885,59.9034091 L137.536885,61.3068182 C137.006148,61.6022727 136.172131,61.8238636 135.641393,61.8238636 C133.973361,61.8238636 133.063525,60.7897727 133.063525,59.4602273 L133.063525,55.3977273 L131.69877,55.3977273 L131.69877,55.25 L134.579918,52.5170455 L134.579918,54.0681818 L134.655738,54.0681818 Z" id="Shape"></path>
                    <path d="M140.569672,60.8636364 C140.569672,61.4545455 140.114754,61.8977273 139.508197,61.8977273 C138.901639,61.8977273 138.446721,61.4545455 138.446721,60.8636364 C138.446721,60.2727273 138.901639,59.8295455 139.508197,59.8295455 C140.114754,59.8295455 140.569672,60.2727273 140.569672,60.8636364 Z" id="Shape"></path>
                    <path d="M153.231557,60.9375 C151.639344,61.6022727 150.35041,61.8977273 148.682377,61.8977273 C145.043033,61.8977273 142.313525,59.3863636 142.313525,55.9886364 C142.313525,52.5909091 145.043033,50.0056818 148.682377,50.0056818 C150.047131,50.0056818 151.032787,50.2272727 152.928279,50.9659091 L152.928279,52.6647727 C151.563525,51.9261364 150.122951,51.5568182 148.682377,51.5568182 C146.104508,51.5568182 144.133197,53.4772727 144.133197,55.9886364 C144.133197,58.5738636 146.104508,60.4204545 148.909836,60.4204545 C149.819672,60.4204545 150.653689,60.1988636 151.487705,59.9772727 L151.487705,57.6136364 L149.213115,57.6136364 L149.213115,56.1363636 L153.231557,56.1363636 L153.231557,60.9375 Z" id="Shape"></path>
                    <path d="M158.918033,60.1988636 C158.538934,60.5681818 158.084016,60.8636364 157.553279,60.8636364 C156.870902,60.8636364 156.415984,60.4204545 156.415984,59.8295455 C156.415984,58.9431818 157.553279,58.5 158.918033,58.0568182 L158.918033,60.1988636 Z M161.647541,60.3465909 C161.268443,60.5681818 160.965164,60.7897727 160.813525,60.7897727 C160.586066,60.7897727 160.510246,60.7159091 160.510246,60.4204545 L160.510246,56.5056818 C160.510246,54.8068182 159.221311,53.9943182 157.704918,53.9943182 C156.567623,53.9943182 155.733607,54.3636364 155.127049,55.0284091 L155.127049,56.6534091 C155.885246,55.7670455 156.719262,55.3977273 157.629098,55.3977273 C158.538934,55.3977273 159.069672,55.7670455 159.069672,56.7272727 L159.069672,57.1704545 L157.704918,57.6136364 C156.415984,58.0568182 155.05123,58.5 155.05123,60.0511364 C155.05123,61.0113636 155.809426,61.8977273 156.946721,61.8977273 C157.629098,61.8977273 158.387295,61.6761364 159.069672,61.0852273 C159.221311,61.6022727 159.60041,61.8977273 160.282787,61.8977273 C160.737705,61.8977273 161.040984,61.75 161.79918,61.3068182 L161.79918,60.3465909 L161.647541,60.3465909 Z" id="Shape"></path>
                    <polygon id="Shape" points="164.377049 61.75 162.860656 61.75 162.860656 50.1534091 164.377049 50.1534091"></polygon>
                    <polygon id="Shape" points="168.016393 61.75 166.5 61.75 166.5 50.1534091 168.016393 50.1534091"></polygon>
                    <path d="M171.125,57.0965909 C171.352459,55.9147727 172.034836,55.1761364 173.247951,55.1761364 C174.385246,55.1761364 174.991803,55.9147727 175.067623,57.0965909 L171.125,57.0965909 Z M176.508197,59.5340909 C175.598361,60.125 174.688525,60.4204545 173.778689,60.4204545 C172.262295,60.4204545 171.352459,59.6079545 171.125,58.1306818 L176.659836,58.1306818 C176.659836,55.3238636 175.370902,53.9204545 173.247951,53.9204545 C171.04918,53.9204545 169.608607,55.4715909 169.608607,57.7613636 C169.608607,59.9034091 170.973361,61.8238636 173.39959,61.8238636 C174.688525,61.8238636 175.598361,61.5284091 176.508197,60.9375 L176.508197,59.5340909 Z" id="Shape"></path>
                    <path d="M179.844262,55.1022727 C180.45082,54.3636364 181.360656,53.9204545 182.194672,53.9204545 C183.711066,53.9204545 184.848361,54.8806818 184.848361,57.0227273 L184.848361,61.75 L183.331967,61.75 L183.331967,57.0227273 C183.331967,55.9147727 182.72541,55.1761364 181.815574,55.1761364 C181.133197,55.1761364 180.602459,55.4715909 179.844262,56.2840909 L179.844262,61.75 L178.327869,61.75 L178.327869,54.0681818 L179.844262,54.0681818 L179.844262,55.1022727 Z" id="Shape"></path>
                    <polygon id="Shape" points="47.4631148 0.443181818 44.3545082 0.443181818 44.3545082 3.10227273 47.1598361 3.10227273 47.1598361 3.54545455 44.3545082 3.54545455 44.3545082 6.94318182 43.8237705 6.94318182 43.8237705 0 47.4631148 0 47.4631148 0.443181818"></polygon>
                    <path d="M52.3155738,4.65340909 C52.3155738,5.76136364 51.557377,6.57386364 50.4959016,6.57386364 C49.4344262,6.57386364 48.6004098,5.76136364 48.6004098,4.65340909 C48.6004098,3.54545455 49.3586066,2.73295455 50.4959016,2.73295455 C51.4815574,2.73295455 52.3155738,3.54545455 52.3155738,4.65340909 Z M52.8463115,4.65340909 C52.8463115,3.32386364 51.8606557,2.28977273 50.4959016,2.28977273 C49.1311475,2.28977273 48.0696721,3.32386364 48.0696721,4.65340909 C48.0696721,5.98295455 49.1311475,7.01704545 50.4959016,7.01704545 C51.7848361,7.01704545 52.8463115,6.05681818 52.8463115,4.65340909 Z" id="Shape"></path>
                    <path d="M56.8647541,3.25 C56.4098361,2.88068182 56.182377,2.73295455 55.954918,2.73295455 C55.5,2.73295455 54.9692623,3.17613636 54.4385246,4.0625 L54.4385246,6.94318182 L53.9077869,6.94318182 L53.9077869,2.36363636 L54.4385246,2.36363636 L54.4385246,3.54545455 C54.9692623,2.65909091 55.5758197,2.21590909 56.1065574,2.21590909 C56.4098361,2.21590909 56.7131148,2.36363636 57.1680328,2.73295455 L56.8647541,3.25 Z" id="Shape"></path>
                    <path d="M60.0491803,3.17613636 C59.5184426,2.80681818 59.2151639,2.73295455 58.7602459,2.73295455 C58.2295082,2.73295455 57.7745902,3.10227273 57.7745902,3.47159091 C57.7745902,4.57954545 60.2008197,4.13636364 60.2008197,5.76136364 C60.2008197,6.5 59.5184426,7.01704545 58.6844262,7.01704545 C58.2295082,7.01704545 57.7745902,6.86931818 57.2438525,6.57386364 L57.2438525,6.13068182 C57.8504098,6.42613636 58.3053279,6.57386364 58.6844262,6.57386364 C59.2909836,6.57386364 59.670082,6.27840909 59.670082,5.76136364 C59.670082,4.65340909 57.2438525,5.02272727 57.2438525,3.54545455 C57.2438525,2.80681818 57.9262295,2.28977273 58.7602459,2.28977273 C59.1393443,2.28977273 59.5184426,2.4375 60.0491803,2.65909091 L60.0491803,3.17613636 Z" id="Shape"></path>
                    <path d="M64.4467213,3.02840909 C63.9159836,2.80681818 63.6127049,2.73295455 63.2336066,2.73295455 C62.1721311,2.73295455 61.4897541,3.47159091 61.4897541,4.65340909 C61.4897541,5.83522727 62.1721311,6.57386364 63.3094262,6.57386364 C63.7643443,6.57386364 64.067623,6.5 64.5983607,6.27840909 L64.5983607,6.79545455 C64.067623,6.94318182 63.7643443,7.01704545 63.3094262,7.01704545 C61.9446721,7.01704545 61.0348361,6.05681818 61.0348361,4.72727273 C61.0348361,3.32386364 61.9446721,2.28977273 63.3094262,2.28977273 C63.6885246,2.28977273 64.067623,2.36363636 64.522541,2.51136364 L64.522541,3.02840909 L64.4467213,3.02840909 Z" id="Shape"></path>
                    <path d="M66.0389344,3.17613636 C66.4938525,2.51136364 66.9487705,2.28977273 67.6311475,2.28977273 C68.6168033,2.28977273 69.375,2.95454545 69.375,4.13636364 L69.375,6.94318182 L68.8442623,6.94318182 L68.8442623,4.35795455 C68.8442623,3.39772727 68.4651639,2.80681818 67.5553279,2.80681818 C66.8729508,2.80681818 66.4180328,3.10227273 66.0389344,3.76704545 L66.0389344,6.94318182 L65.5081967,6.94318182 L65.5081967,0 L66.0389344,0 L66.0389344,3.17613636 Z" id="Shape"></path>
                    <path d="M74,6.20454545 C73.545082,6.79545455 73.1659836,7.01704545 72.4077869,7.01704545 C71.5737705,7.01704545 70.6639344,6.57386364 70.6639344,5.17045455 L70.6639344,2.36363636 L71.1946721,2.36363636 L71.1946721,5.17045455 C71.1946721,6.13068182 71.8012295,6.5 72.4836066,6.5 C73.2418033,6.5 73.6209016,6.13068182 74,5.53977273 L74,2.36363636 L74.5307377,2.36363636 L74.5307377,6.94318182 L74,6.94318182 L74,6.20454545 Z" id="Shape"></path>
                    <path d="M76.3504098,3.17613636 C76.8053279,2.51136364 77.2602459,2.28977273 77.942623,2.28977273 C78.9282787,2.28977273 79.6864754,2.95454545 79.6864754,4.13636364 L79.6864754,6.94318182 L79.1557377,6.94318182 L79.1557377,4.35795455 C79.1557377,3.32386364 78.7008197,2.80681818 77.8668033,2.80681818 C77.1844262,2.80681818 76.7295082,3.10227273 76.3504098,3.76704545 L76.3504098,6.94318182 L75.8196721,6.94318182 L75.8196721,2.36363636 L76.3504098,2.36363636 L76.3504098,3.17613636 Z" id="Shape"></path>
                    <path d="M83.7807377,3.98863636 C83.7807377,4.65340909 83.25,5.24431818 82.4918033,5.24431818 C81.8094262,5.24431818 81.2786885,4.65340909 81.2786885,3.98863636 C81.2786885,3.32386364 81.8094262,2.80681818 82.4918033,2.80681818 C83.25,2.80681818 83.7807377,3.32386364 83.7807377,3.98863636 Z M84.6905738,2.36363636 L82.795082,2.36363636 C81.2786885,2.36363636 80.8237705,3.25 80.8237705,3.98863636 C80.8237705,4.50568182 81.1270492,5.24431818 82.1127049,5.53977273 C81.5819672,5.6875 81.2028689,5.90909091 81.2028689,6.27840909 C81.2028689,6.57386364 81.4303279,6.79545455 81.9610656,6.94318182 C81.0512295,7.09090909 80.5963115,7.46022727 80.5963115,8.05113636 C80.5963115,8.71590909 81.2028689,9.30681818 82.6434426,9.30681818 C83.932377,9.30681818 84.7663934,8.78977273 84.7663934,7.97727273 C84.7663934,6.05681818 81.6577869,7.23863636 81.6577869,6.27840909 C81.6577869,5.39204545 84.3114754,6.05681818 84.3114754,3.98863636 C84.3114754,3.54545455 84.0840164,3.17613636 83.6290984,2.80681818 L84.6905738,2.80681818 L84.6905738,2.36363636 Z M84.2356557,7.97727273 C84.2356557,8.49431818 83.6290984,8.86363636 82.6434426,8.86363636 C81.5819672,8.86363636 81.0512295,8.56818182 81.0512295,8.05113636 C81.0512295,7.3125 82.1885246,7.23863636 82.7192623,7.23863636 C83.5532787,7.16477273 84.2356557,7.38636364 84.2356557,7.97727273 Z" id="Shape"></path>
                    <path d="M88.0266393,3.17613636 C87.4959016,2.80681818 87.192623,2.73295455 86.7377049,2.73295455 C86.2069672,2.73295455 85.7520492,3.10227273 85.7520492,3.47159091 C85.7520492,4.57954545 88.1782787,4.13636364 88.1782787,5.76136364 C88.1782787,6.5 87.4959016,7.01704545 86.6618852,7.01704545 C86.2069672,7.01704545 85.7520492,6.86931818 85.2213115,6.57386364 L85.2213115,6.13068182 C85.8278689,6.42613636 86.2827869,6.57386364 86.6618852,6.57386364 C87.2684426,6.57386364 87.647541,6.27840909 87.647541,5.76136364 C87.647541,4.65340909 85.2213115,5.02272727 85.2213115,3.54545455 C85.2213115,2.80681818 85.9036885,2.28977273 86.7377049,2.28977273 C87.1168033,2.28977273 87.4959016,2.4375 88.0266393,2.65909091 L88.0266393,3.17613636 Z" id="Shape"></path>
                    <path d="M91.817623,3.17613636 C91.2868852,2.80681818 90.9836066,2.73295455 90.5286885,2.73295455 C89.9979508,2.73295455 89.5430328,3.10227273 89.5430328,3.47159091 C89.5430328,4.57954545 91.9692623,4.13636364 91.9692623,5.76136364 C91.9692623,6.5 91.2868852,7.01704545 90.4528689,7.01704545 C89.9979508,7.01704545 89.5430328,6.86931818 89.0122951,6.57386364 L89.0122951,6.13068182 C89.6188525,6.42613636 90.0737705,6.57386364 90.4528689,6.57386364 C91.0594262,6.57386364 91.4385246,6.27840909 91.4385246,5.76136364 C91.4385246,4.65340909 89.0122951,5.02272727 89.0122951,3.54545455 C89.0122951,2.80681818 89.6946721,2.28977273 90.5286885,2.28977273 C90.9077869,2.28977273 91.2868852,2.4375 91.817623,2.65909091 L91.817623,3.17613636 Z" id="Shape"></path>
                    <path d="M93.8647541,2.36363636 L95.1536885,2.36363636 L95.1536885,2.73295455 L93.8647541,2.73295455 L93.8647541,5.46590909 C93.8647541,6.27840909 93.8647541,6.5 94.5471311,6.5 C94.8504098,6.5 95.0020492,6.42613636 95.3811475,6.27840909 L95.3811475,6.72159091 C95.3053279,6.79545455 95.1536885,6.79545455 94.9262295,6.86931818 C94.7745902,6.94318182 94.5471311,6.94318182 94.3954918,6.94318182 C93.8647541,6.94318182 93.3340164,6.64772727 93.3340164,5.98295455 L93.3340164,2.80681818 L92.045082,2.80681818 L92.045082,2.36363636 L93.3340164,2.36363636 L93.3340164,1.25568182 L93.7131148,0.8125 L93.8647541,0.8125 L93.8647541,2.36363636 Z" id="Shape"></path>
                    <path d="M96.442623,4.0625 C96.5942623,3.25 97.2008197,2.73295455 98.0348361,2.73295455 C98.8688525,2.73295455 99.3237705,3.17613636 99.5512295,4.0625 L96.442623,4.0625 Z M100.081967,4.50568182 C100.081967,2.95454545 99.0204918,2.28977273 98.0348361,2.28977273 C96.8217213,2.28977273 95.9118852,3.25 95.9118852,4.57954545 C95.9118852,5.98295455 96.897541,7.01704545 98.2622951,7.01704545 C98.9446721,7.01704545 99.5512295,6.79545455 100.081967,6.42613636 L100.081967,5.90909091 C99.4754098,6.35227273 98.9446721,6.57386364 98.3381148,6.57386364 C97.2766393,6.57386364 96.2909836,5.6875 96.442623,4.50568182 L100.081967,4.50568182 Z" id="Shape"></path>
                    <polygon id="Shape" points="101.75 6.94318182 101.219262 6.94318182 101.219262 0 101.75 0"></polygon>
                    <polygon id="Shape" points="103.721311 6.94318182 103.190574 6.94318182 103.190574 0 103.721311 0"></polygon>
                    <path d="M105.465164,4.0625 C105.616803,3.25 106.223361,2.73295455 107.057377,2.73295455 C107.891393,2.73295455 108.346311,3.17613636 108.57377,4.0625 L105.465164,4.0625 Z M109.104508,4.50568182 C109.104508,2.95454545 108.043033,2.28977273 107.057377,2.28977273 C105.844262,2.28977273 104.934426,3.25 104.934426,4.57954545 C104.934426,5.98295455 105.920082,7.01704545 107.284836,7.01704545 C107.967213,7.01704545 108.57377,6.79545455 109.104508,6.42613636 L109.104508,5.90909091 C108.497951,6.35227273 107.967213,6.57386364 107.360656,6.57386364 C106.29918,6.57386364 105.313525,5.6875 105.465164,4.50568182 L109.104508,4.50568182 Z" id="Shape"></path>
                    <path d="M46.477459,12.4829545 C46.0983607,12.3352273 45.8709016,12.3352273 45.6434426,12.3352273 C44.8852459,12.3352273 44.5061475,12.7784091 44.5061475,13.7386364 L44.5061475,14.3295455 L45.4159836,14.3295455 L45.4159836,14.6988636 L44.5061475,14.6988636 L44.5061475,18.9090909 L43.9754098,18.9090909 L43.9754098,14.6988636 L43.1413934,14.6988636 L43.1413934,14.3295455 L43.9754098,14.3295455 L43.9754098,13.5909091 C43.9754098,12.4090909 44.8094262,11.8920455 45.6434426,11.8920455 C45.9467213,11.8920455 46.0983607,11.9659091 46.477459,12.1136364 L46.477459,12.4829545 Z" id="Shape"></path>
                    <path d="M49.5102459,12.7784091 C49.5102459,13 49.2827869,13.2215909 49.0553279,13.2215909 C48.8278689,13.2215909 48.6004098,13 48.6004098,12.7784091 C48.6004098,12.5568182 48.8278689,12.3352273 49.0553279,12.3352273 C49.2827869,12.3352273 49.5102459,12.5568182 49.5102459,12.7784091 Z M47.6147541,12.7784091 C47.6147541,13 47.3872951,13.2215909 47.1598361,13.2215909 C46.932377,13.2215909 46.704918,13 46.704918,12.7784091 C46.704918,12.5568182 46.932377,12.3352273 47.1598361,12.3352273 C47.3872951,12.3352273 47.6147541,12.5568182 47.6147541,12.7784091 Z M49.5102459,18.0965909 C49.0553279,18.6875 48.6762295,18.9090909 47.9180328,18.9090909 C47.0840164,18.9090909 46.1741803,18.4659091 46.1741803,17.0625 L46.1741803,14.2556818 L46.704918,14.2556818 L46.704918,17.0625 C46.704918,18.0227273 47.3114754,18.3920455 47.9938525,18.3920455 C48.7520492,18.3920455 49.1311475,18.0227273 49.5102459,17.4318182 L49.5102459,14.2556818 L50.0409836,14.2556818 L50.0409836,18.8352273 L49.5102459,18.8352273 L49.5102459,18.0965909 Z" id="Shape"></path>
                    <path d="M54.2868852,15.1420455 C53.8319672,14.7727273 53.6045082,14.625 53.3770492,14.625 C52.9221311,14.625 52.3913934,15.0681818 51.8606557,15.9545455 L51.8606557,18.8352273 L51.329918,18.8352273 L51.329918,14.2556818 L51.8606557,14.2556818 L51.8606557,15.4375 C52.3913934,14.5511364 52.9979508,14.1079545 53.5286885,14.1079545 C53.8319672,14.1079545 54.1352459,14.2556818 54.5901639,14.625 L54.2868852,15.1420455 Z" id="Shape"></path>
                    <polygon id="Shape" points="58.4569672 18.8352273 57.9262295 18.8352273 57.9262295 11.8920455 58.4569672 11.8920455"></polygon>
                    <path d="M60.4282787,15.0681818 C60.8831967,14.4034091 61.3381148,14.1818182 62.0204918,14.1818182 C63.0061475,14.1818182 63.7643443,14.8465909 63.7643443,16.0284091 L63.7643443,18.8352273 L63.2336066,18.8352273 L63.2336066,16.25 C63.2336066,15.2159091 62.7786885,14.6988636 61.9446721,14.6988636 C61.2622951,14.6988636 60.807377,14.9943182 60.4282787,15.6590909 L60.4282787,18.8352273 L59.897541,18.8352273 L59.897541,14.2556818 L60.4282787,14.2556818 L60.4282787,15.0681818 Z" id="Shape"></path>
                    <path d="M66.0389344,14.2556818 L67.3278689,14.2556818 L67.3278689,14.625 L66.0389344,14.625 L66.0389344,17.3579545 C66.0389344,18.1704545 66.0389344,18.3920455 66.7213115,18.3920455 C67.0245902,18.3920455 67.1762295,18.3181818 67.5553279,18.1704545 L67.5553279,18.6136364 C67.4795082,18.6875 67.3278689,18.6875 67.1004098,18.7613636 C66.9487705,18.8352273 66.7213115,18.8352273 66.5696721,18.8352273 C66.0389344,18.8352273 65.5081967,18.5397727 65.5081967,17.875 L65.5081967,14.5511364 L64.2192623,14.5511364 L64.2192623,14.1818182 L65.5081967,14.1818182 L65.5081967,13.0738636 L65.8872951,12.6306818 L66.0389344,12.6306818 L66.0389344,14.2556818 Z" id="Shape"></path>
                    <path d="M68.6168033,15.9545455 C68.7684426,15.1420455 69.375,14.625 70.2090164,14.625 C71.0430328,14.625 71.4979508,15.0681818 71.7254098,15.9545455 L68.6168033,15.9545455 Z M72.2561475,16.3977273 C72.2561475,14.8465909 71.1946721,14.1818182 70.2090164,14.1818182 C68.9959016,14.1818182 68.0860656,15.1420455 68.0860656,16.4715909 C68.0860656,17.875 69.0717213,18.9090909 70.4364754,18.9090909 C71.1188525,18.9090909 71.7254098,18.6875 72.2561475,18.3181818 L72.2561475,17.8011364 C71.6495902,18.2443182 71.1188525,18.4659091 70.5122951,18.4659091 C69.4508197,18.4659091 68.4651639,17.5795455 68.6168033,16.3977273 L72.2561475,16.3977273 Z" id="Shape"></path>
                    <path d="M76.2745902,15.1420455 C75.8196721,14.7727273 75.5922131,14.625 75.3647541,14.625 C74.9098361,14.625 74.3790984,15.0681818 73.8483607,15.9545455 L73.8483607,18.8352273 L73.317623,18.8352273 L73.317623,14.2556818 L73.8483607,14.2556818 L73.8483607,15.4375 C74.3790984,14.5511364 74.9856557,14.1079545 75.5163934,14.1079545 C75.8196721,14.1079545 76.1229508,14.2556818 76.5778689,14.625 L76.2745902,15.1420455 Z" id="Shape"></path>
                    <path d="M77.3360656,15.0681818 C77.7909836,14.4034091 78.2459016,14.1818182 78.9282787,14.1818182 C79.9139344,14.1818182 80.6721311,14.8465909 80.6721311,16.0284091 L80.6721311,18.8352273 L80.1413934,18.8352273 L80.1413934,16.25 C80.1413934,15.2159091 79.6864754,14.6988636 78.852459,14.6988636 C78.170082,14.6988636 77.7151639,14.9943182 77.3360656,15.6590909 L77.3360656,18.8352273 L76.8053279,18.8352273 L76.8053279,14.2556818 L77.3360656,14.2556818 L77.3360656,15.0681818 Z" id="Shape"></path>
                    <path d="M84.4631148,17.9488636 C84.0081967,18.3920455 83.6290984,18.5397727 83.1741803,18.5397727 C82.6434426,18.5397727 82.2643443,18.2443182 82.2643443,17.8011364 C82.2643443,16.9886364 83.25,16.4715909 84.5389344,16.5454545 L84.5389344,17.9488636 L84.4631148,17.9488636 Z M85.7520492,18.0227273 C85.5245902,18.2443182 85.2213115,18.4659091 85.0696721,18.4659091 C84.9938525,18.4659091 84.9180328,18.3920455 84.9180328,18.2443182 L84.9180328,15.3636364 C84.9180328,14.4034091 84.0081967,14.1818182 83.477459,14.1818182 C82.9467213,14.1818182 82.567623,14.3295455 81.9610656,14.6988636 L81.9610656,15.2159091 C82.4918033,14.7727273 82.8709016,14.625 83.4016393,14.625 C84.0840164,14.625 84.4631148,14.9204545 84.4631148,15.5852273 L84.4631148,16.1761364 C83.0983607,16.25 81.7336066,16.6193182 81.7336066,17.875 C81.7336066,18.5397727 82.2643443,19.0568182 83.022541,19.0568182 C83.5532787,19.0568182 84.0081967,18.9090909 84.4631148,18.4659091 C84.5389344,18.9090909 84.5389344,19.0568182 84.7663934,19.0568182 C84.9938525,19.0568182 85.1454918,18.9829545 85.6004098,18.6136364 L85.6762295,18.5397727 L85.6762295,18.0227273 L85.7520492,18.0227273 Z" id="Shape"></path>
                    <path d="M87.3442623,14.2556818 L88.6331967,14.2556818 L88.6331967,14.625 L87.3442623,14.625 L87.3442623,17.3579545 C87.3442623,18.1704545 87.3442623,18.3920455 88.0266393,18.3920455 C88.329918,18.3920455 88.4815574,18.3181818 88.8606557,18.1704545 L88.8606557,18.6136364 C88.7848361,18.6875 88.6331967,18.6875 88.4057377,18.7613636 C88.2540984,18.8352273 88.0266393,18.8352273 87.875,18.8352273 C87.3442623,18.8352273 86.8135246,18.5397727 86.8135246,17.875 L86.8135246,14.5511364 L85.5245902,14.5511364 L85.5245902,14.1818182 L86.8135246,14.1818182 L86.8135246,13.0738636 L87.192623,12.6306818 L87.3442623,12.6306818 L87.3442623,14.2556818 Z" id="Shape"></path>
                    <path d="M90.2254098,18.8352273 L89.6946721,18.8352273 L89.6946721,14.2556818 L90.2254098,14.2556818 L90.2254098,18.8352273 Z M90.2254098,12.7045455 L89.6946721,12.7045455 L89.6946721,11.8920455 L90.2254098,11.8920455 L90.2254098,12.7045455 Z" id="Shape"></path>
                    <path d="M95.6844262,16.5454545 C95.6844262,17.6534091 94.9262295,18.4659091 93.8647541,18.4659091 C92.8032787,18.4659091 91.9692623,17.6534091 91.9692623,16.5454545 C91.9692623,15.4375 92.727459,14.625 93.8647541,14.625 C94.8504098,14.625 95.6844262,15.4375 95.6844262,16.5454545 Z M96.2151639,16.5454545 C96.2151639,15.2159091 95.2295082,14.1818182 93.8647541,14.1818182 C92.5,14.1818182 91.4385246,15.2159091 91.4385246,16.5454545 C91.4385246,17.875 92.5,18.9090909 93.8647541,18.9090909 C95.1536885,18.9090909 96.2151639,17.9488636 96.2151639,16.5454545 Z" id="Shape"></path>
                    <path d="M97.807377,15.0681818 C98.2622951,14.4034091 98.7172131,14.1818182 99.3995902,14.1818182 C100.385246,14.1818182 101.143443,14.8465909 101.143443,16.0284091 L101.143443,18.8352273 L100.612705,18.8352273 L100.612705,16.25 C100.612705,15.2159091 100.157787,14.6988636 99.3237705,14.6988636 C98.6413934,14.6988636 98.1864754,14.9943182 97.807377,15.6590909 L97.807377,18.8352273 L97.2766393,18.8352273 L97.2766393,14.2556818 L97.807377,14.2556818 L97.807377,15.0681818 Z" id="Shape"></path>
                    <path d="M104.934426,17.9488636 C104.479508,18.3920455 104.10041,18.5397727 103.645492,18.5397727 C103.114754,18.5397727 102.735656,18.2443182 102.735656,17.8011364 C102.735656,16.9886364 103.721311,16.4715909 105.010246,16.5454545 L105.010246,17.9488636 L104.934426,17.9488636 Z M106.223361,18.0227273 C105.995902,18.2443182 105.692623,18.4659091 105.540984,18.4659091 C105.465164,18.4659091 105.389344,18.3920455 105.389344,18.2443182 L105.389344,15.3636364 C105.389344,14.4034091 104.479508,14.1818182 103.94877,14.1818182 C103.418033,14.1818182 103.038934,14.3295455 102.432377,14.6988636 L102.432377,15.2159091 C102.963115,14.7727273 103.342213,14.625 103.872951,14.625 C104.555328,14.625 104.934426,14.9204545 104.934426,15.5852273 L104.934426,16.1761364 C103.569672,16.25 102.204918,16.6193182 102.204918,17.875 C102.204918,18.5397727 102.735656,19.0568182 103.493852,19.0568182 C104.02459,19.0568182 104.479508,18.9090909 104.934426,18.4659091 C105.010246,18.9090909 105.010246,19.0568182 105.237705,19.0568182 C105.465164,19.0568182 105.616803,18.9829545 106.071721,18.6136364 L106.147541,18.5397727 L106.147541,18.0227273 L106.223361,18.0227273 Z" id="Shape"></path>
                    <polygon id="Shape" points="107.512295 18.8352273 106.981557 18.8352273 106.981557 11.8920455 107.512295 11.8920455"></polygon>
                    <path d="M109.331967,15.9545455 C109.483607,15.1420455 110.090164,14.625 110.92418,14.625 C111.758197,14.625 112.213115,15.0681818 112.440574,15.9545455 L109.331967,15.9545455 Z M112.971311,16.3977273 C112.971311,14.8465909 111.909836,14.1818182 110.92418,14.1818182 C109.711066,14.1818182 108.80123,15.1420455 108.80123,16.4715909 C108.80123,17.875 109.786885,18.9090909 111.151639,18.9090909 C111.834016,18.9090909 112.440574,18.6875 112.971311,18.3181818 L112.971311,17.8011364 C112.364754,18.2443182 111.834016,18.4659091 111.227459,18.4659091 C110.165984,18.4659091 109.180328,17.5795455 109.331967,16.3977273 L112.971311,16.3977273 Z" id="Shape"></path>
                    <path d="M116.534836,15.0681818 C116.004098,14.6988636 115.70082,14.625 115.245902,14.625 C114.715164,14.625 114.260246,14.9943182 114.260246,15.3636364 C114.260246,16.4715909 116.686475,16.0284091 116.686475,17.6534091 C116.686475,18.3920455 116.004098,18.9090909 115.170082,18.9090909 C114.715164,18.9090909 114.260246,18.7613636 113.729508,18.4659091 L113.729508,18.0227273 C114.336066,18.3181818 114.790984,18.4659091 115.170082,18.4659091 C115.776639,18.4659091 116.155738,18.1704545 116.155738,17.6534091 C116.155738,16.5454545 113.729508,16.9147727 113.729508,15.4375 C113.729508,14.6988636 114.411885,14.1818182 115.245902,14.1818182 C115.625,14.1818182 116.004098,14.3295455 116.534836,14.5511364 L116.534836,15.0681818 Z" id="Shape"></path>
                    <polygon id="Shape" points="126.770492 11.8920455 127.30123 11.8920455 127.30123 18.8352273 126.770492 18.8352273 126.770492 12.7045455 126.770492 12.7045455 124.040984 15.9545455 121.311475 12.7045455 121.311475 12.7045455 121.311475 18.8352273 120.780738 18.8352273 120.780738 11.8920455 121.311475 11.8920455 124.040984 15.1420455"></polygon>
                    <path d="M131.319672,17.9488636 C130.864754,18.3920455 130.485656,18.5397727 130.030738,18.5397727 C129.5,18.5397727 129.120902,18.2443182 129.120902,17.8011364 C129.120902,16.9886364 130.106557,16.4715909 131.395492,16.5454545 L131.395492,17.9488636 L131.319672,17.9488636 Z M132.608607,18.0227273 C132.381148,18.2443182 132.077869,18.4659091 131.92623,18.4659091 C131.85041,18.4659091 131.77459,18.3920455 131.77459,18.2443182 L131.77459,15.3636364 C131.77459,14.4034091 130.864754,14.1818182 130.334016,14.1818182 C129.803279,14.1818182 129.42418,14.3295455 128.817623,14.6988636 L128.817623,15.2159091 C129.348361,14.7727273 129.727459,14.625 130.258197,14.625 C130.940574,14.625 131.319672,14.9204545 131.319672,15.5852273 L131.319672,16.1761364 C129.954918,16.25 128.590164,16.6193182 128.590164,17.875 C128.590164,18.5397727 129.120902,19.0568182 129.879098,19.0568182 C130.409836,19.0568182 130.864754,18.9090909 131.319672,18.4659091 C131.395492,18.9090909 131.395492,19.0568182 131.622951,19.0568182 C131.85041,19.0568182 132.002049,18.9829545 132.456967,18.6136364 L132.532787,18.5397727 L132.532787,18.0227273 L132.608607,18.0227273 Z" id="Shape"></path>
                    <path d="M133.821721,15.0681818 C134.276639,14.4034091 134.731557,14.1818182 135.413934,14.1818182 C136.39959,14.1818182 137.157787,14.8465909 137.157787,16.0284091 L137.157787,18.8352273 L136.627049,18.8352273 L136.627049,16.25 C136.627049,15.2159091 136.172131,14.6988636 135.338115,14.6988636 C134.655738,14.6988636 134.20082,14.9943182 133.821721,15.6590909 L133.821721,18.8352273 L133.290984,18.8352273 L133.290984,14.2556818 L133.821721,14.2556818 L133.821721,15.0681818 Z" id="Shape"></path>
                    <path d="M140.94877,17.9488636 C140.493852,18.3920455 140.114754,18.5397727 139.659836,18.5397727 C139.129098,18.5397727 138.75,18.2443182 138.75,17.8011364 C138.75,16.9886364 139.735656,16.4715909 141.02459,16.5454545 L141.02459,17.9488636 L140.94877,17.9488636 Z M142.237705,18.0227273 C142.010246,18.2443182 141.706967,18.4659091 141.555328,18.4659091 C141.479508,18.4659091 141.403689,18.3920455 141.403689,18.2443182 L141.403689,15.3636364 C141.403689,14.4034091 140.493852,14.1818182 139.963115,14.1818182 C139.432377,14.1818182 139.053279,14.3295455 138.446721,14.6988636 L138.446721,15.2159091 C138.977459,14.7727273 139.356557,14.625 139.887295,14.625 C140.569672,14.625 140.94877,14.9204545 140.94877,15.5852273 L140.94877,16.1761364 C139.584016,16.25 138.219262,16.6193182 138.219262,17.875 C138.219262,18.5397727 138.75,19.0568182 139.508197,19.0568182 C140.038934,19.0568182 140.493852,18.9090909 140.94877,18.4659091 C141.02459,18.9090909 141.02459,19.0568182 141.252049,19.0568182 C141.479508,19.0568182 141.631148,18.9829545 142.086066,18.6136364 L142.161885,18.5397727 L142.161885,18.0227273 L142.237705,18.0227273 Z" id="Shape"></path>
                    <path d="M145.72541,15.8806818 C145.72541,16.5454545 145.194672,17.1363636 144.436475,17.1363636 C143.754098,17.1363636 143.223361,16.5454545 143.223361,15.8806818 C143.223361,15.2159091 143.754098,14.6988636 144.436475,14.6988636 C145.194672,14.6988636 145.72541,15.2159091 145.72541,15.8806818 Z M146.635246,14.2556818 L144.739754,14.2556818 C143.223361,14.2556818 142.768443,15.1420455 142.768443,15.8806818 C142.768443,16.3977273 143.071721,17.1363636 144.057377,17.4318182 C143.526639,17.5795455 143.147541,17.8011364 143.147541,18.1704545 C143.147541,18.4659091 143.375,18.6875 143.905738,18.8352273 C142.995902,18.9829545 142.540984,19.3522727 142.540984,19.9431818 C142.540984,20.6079545 143.147541,21.1988636 144.588115,21.1988636 C145.877049,21.1988636 146.711066,20.6818182 146.711066,19.8693182 C146.711066,17.9488636 143.602459,19.1306818 143.602459,18.1704545 C143.602459,17.2840909 146.256148,17.9488636 146.256148,15.8806818 C146.256148,15.4375 146.028689,15.0681818 145.57377,14.6988636 L146.635246,14.6988636 L146.635246,14.2556818 Z M146.180328,19.8693182 C146.180328,20.3863636 145.57377,20.7556818 144.588115,20.7556818 C143.526639,20.7556818 142.995902,20.4602273 142.995902,19.9431818 C142.995902,19.2045455 144.133197,19.1306818 144.663934,19.1306818 C145.497951,19.0568182 146.180328,19.2784091 146.180328,19.8693182 Z" id="Shape"></path>
                    <path d="M147.772541,15.9545455 C147.92418,15.1420455 148.530738,14.625 149.364754,14.625 C150.19877,14.625 150.653689,15.0681818 150.881148,15.9545455 L147.772541,15.9545455 Z M151.411885,16.3977273 C151.411885,14.8465909 150.35041,14.1818182 149.364754,14.1818182 C148.151639,14.1818182 147.241803,15.1420455 147.241803,16.4715909 C147.241803,17.875 148.227459,18.9090909 149.592213,18.9090909 C150.27459,18.9090909 150.881148,18.6875 151.411885,18.3181818 L151.411885,17.8011364 C150.805328,18.2443182 150.27459,18.4659091 149.668033,18.4659091 C148.606557,18.4659091 147.620902,17.5795455 147.772541,16.3977273 L151.411885,16.3977273 Z" id="Shape"></path>
                    <path d="M152.928279,15.0681818 C153.383197,14.4034091 153.838115,14.1818182 154.444672,14.1818182 C155.202869,14.1818182 155.657787,14.5511364 155.961066,15.2897727 C156.415984,14.5511364 156.946721,14.1818182 157.629098,14.1818182 C158.614754,14.1818182 159.297131,14.9204545 159.297131,16.0284091 L159.297131,18.8352273 L158.766393,18.8352273 L158.766393,16.25 C158.766393,15.3636364 158.387295,14.625 157.553279,14.625 C156.946721,14.625 156.567623,14.9204545 156.112705,15.6590909 L156.112705,18.7613636 L155.581967,18.7613636 L155.581967,16.25 C155.581967,15.1420455 154.97541,14.6988636 154.368852,14.6988636 C153.762295,14.6988636 153.383197,14.9943182 152.928279,15.6590909 L152.928279,18.8352273 L152.397541,18.8352273 L152.397541,14.2556818 L152.928279,14.2556818 L152.928279,15.0681818 Z" id="Shape"></path>
                    <path d="M160.889344,15.9545455 C161.040984,15.1420455 161.647541,14.625 162.481557,14.625 C163.315574,14.625 163.770492,15.0681818 163.997951,15.9545455 L160.889344,15.9545455 Z M164.528689,16.3977273 C164.528689,14.8465909 163.467213,14.1818182 162.481557,14.1818182 C161.268443,14.1818182 160.358607,15.1420455 160.358607,16.4715909 C160.358607,17.875 161.344262,18.9090909 162.709016,18.9090909 C163.391393,18.9090909 163.997951,18.6875 164.528689,18.3181818 L164.528689,17.8011364 C163.922131,18.2443182 163.391393,18.4659091 162.784836,18.4659091 C161.723361,18.4659091 160.737705,17.5795455 160.889344,16.3977273 L164.528689,16.3977273 Z" id="Shape"></path>
                    <path d="M166.120902,15.0681818 C166.57582,14.4034091 167.030738,14.1818182 167.713115,14.1818182 C168.69877,14.1818182 169.456967,14.8465909 169.456967,16.0284091 L169.456967,18.8352273 L168.92623,18.8352273 L168.92623,16.25 C168.92623,15.2159091 168.471311,14.6988636 167.637295,14.6988636 C166.954918,14.6988636 166.5,14.9943182 166.120902,15.6590909 L166.120902,18.8352273 L165.590164,18.8352273 L165.590164,14.2556818 L166.120902,14.2556818 L166.120902,15.0681818 Z" id="Shape"></path>
                    <path d="M171.655738,14.2556818 L172.944672,14.2556818 L172.944672,14.625 L171.655738,14.625 L171.655738,17.3579545 C171.655738,18.1704545 171.655738,18.3920455 172.338115,18.3920455 C172.641393,18.3920455 172.793033,18.3181818 173.172131,18.1704545 L173.172131,18.6136364 C173.096311,18.6875 172.944672,18.6875 172.717213,18.7613636 C172.565574,18.8352273 172.338115,18.8352273 172.186475,18.8352273 C171.655738,18.8352273 171.125,18.5397727 171.125,17.875 L171.125,14.5511364 L169.836066,14.5511364 L169.836066,14.1818182 L171.125,14.1818182 L171.125,13.0738636 L171.504098,12.6306818 L171.655738,12.6306818 L171.655738,14.2556818 Z" id="Shape"></path>
                </g>
            </g>
        </g>
    </g>
</svg>